<svg width="36" height="50" viewBox="0 0 36 50" fill="none" xmlns="http://www.w3.org/2000/svg">
<path d="M8.04823 49.3491C7.44808 49.3491 7.26343 48.9182 7.26343 48.3642C7.26343 47.7949 7.46347 47.3794 8.04823 47.3794C8.64837 47.3794 8.81764 47.7949 8.81764 48.3642C8.81764 48.9336 8.61759 49.3491 8.04823 49.3491ZM8.04823 47.4871C7.54041 47.4871 7.41731 47.8564 7.41731 48.3642C7.41731 48.8567 7.5558 49.2414 8.04823 49.2414C8.55604 49.2414 8.67914 48.8567 8.67914 48.3642C8.67914 47.8564 8.55604 47.4871 8.04823 47.4871Z" fill="#8A8888"/>
<path d="M10.7873 47.5181V48.2875H11.6336V48.3952H10.7873V49.3185H10.6488V47.4258H11.6644V47.5335H10.7873V47.5181Z" fill="#8A8888"/>
<path d="M13.4343 49.3034V47.4106H13.5728V49.3034H13.4343Z" fill="#8A8888"/>
<path d="M16.1273 49.3489C15.5733 49.3489 15.3733 48.918 15.3733 48.3486C15.3733 47.8254 15.558 47.3638 16.1427 47.3638C16.312 47.3638 16.4351 47.3792 16.589 47.4253L16.5428 47.5484C16.4197 47.5023 16.2966 47.4715 16.1581 47.4715C15.6503 47.4715 15.5272 47.9024 15.5272 48.3332C15.5272 48.7949 15.6657 49.2257 16.1427 49.2257C16.2812 49.2257 16.4197 49.195 16.5736 49.1334L16.6197 49.2565C16.4351 49.3335 16.2812 49.3489 16.1273 49.3489Z" fill="#8A8888"/>
<path d="M18.3278 49.3034V47.4106H18.4663V49.3034H18.3278Z" fill="#8A8888"/>
<path d="M21.4977 49.3034L20.4975 47.5645V49.3034H20.3744V47.4106H20.5591L21.5593 49.1495V47.4106H21.6824V49.3034H21.4977Z" fill="#8A8888"/>
<path d="M24.8522 49.3034L24.6368 48.7033H23.8058L23.575 49.3034H23.4365L24.2059 47.4106H24.2983L25.0061 49.3034H24.8522ZM24.2367 47.6107L23.8366 48.6109H24.5906L24.2367 47.6107Z" fill="#8A8888"/>
<path d="M27.1452 49.3501C26.9759 49.3501 26.822 49.3039 26.6682 49.2731L26.7143 49.15C26.8528 49.1962 26.9913 49.2424 27.1452 49.2424C27.3606 49.2424 27.6376 49.1654 27.6376 48.8269C27.6376 48.5499 27.4068 48.4576 27.1606 48.3806C26.9144 48.2883 26.6528 48.1959 26.6528 47.8574C26.6528 47.5035 26.9298 47.3804 27.2837 47.3804C27.4068 47.3804 27.5761 47.4111 27.73 47.4573L27.6838 47.5804C27.5761 47.5343 27.4683 47.4881 27.2837 47.4881C27.0221 47.4881 26.822 47.5804 26.822 47.8574C26.822 48.0882 27.0221 48.1652 27.2375 48.2421C27.4991 48.3344 27.8069 48.4422 27.8069 48.8269C27.7915 49.227 27.4991 49.3501 27.1452 49.3501Z" fill="#8A8888"/>
<path d="M31.5776 0H3.47859C1.58583 0 0.0316162 1.55422 0.0316162 3.44698V31.0382C0.0316162 32.931 1.58583 34.4852 3.47859 34.4852H31.5622C33.455 34.4852 35.0092 32.931 35.0092 31.0382V28.1144H8.49518C7.34106 28.1144 6.40237 27.1757 6.40237 26.0216V8.44818C6.40237 7.29405 7.34106 6.35537 8.49518 6.35537H26.561C27.7152 6.35537 28.6539 7.29405 28.6539 8.44818V17.5273C28.6539 18.6814 27.7152 19.6201 26.561 19.6201H21.6983V13.2955C21.6983 12.8646 21.3444 12.4953 20.8981 12.4953H14.4197C13.9888 12.4953 13.6195 12.8492 13.6195 13.2955V20.3279C13.6195 20.7588 13.9734 21.1281 14.4197 21.1281H31.5622C33.3934 21.1281 34.9015 19.6816 34.9938 17.8658H35.0092V3.44698C35.0092 1.53883 33.4704 0 31.5776 0Z" fill="#8A8888"/>
<path d="M1.21567 43.4109V41.7028H4.10868V40.5794H1.21567V39.0098H4.50877V37.8711H0.89252C0.369317 37.8711 0 38.225 0 38.7175V43.7033C0 44.1957 0.369317 44.5496 0.89252 44.5496H4.52416V43.4109H1.21567Z" fill="#8A8888"/>
<path d="M8.23287 40.779L7.04797 40.502C6.43244 40.3635 6.30933 40.1173 6.30933 39.7788C6.30933 39.0863 6.92486 38.994 7.29418 38.994C7.87893 38.994 8.4483 39.1632 8.97151 39.3479L9.67936 39.5941L9.97175 38.44L9.31005 38.2246C8.66374 38.0091 8.0636 37.8398 7.27879 37.8398C6.20161 37.8398 5.10905 38.4554 5.10905 39.8095C5.10905 40.4866 5.40142 41.3638 6.81714 41.6715L8.00204 41.9485C8.61758 42.087 8.74068 42.3332 8.74068 42.6872C8.74068 43.4258 7.98665 43.4874 7.75583 43.4874C7.15568 43.4874 6.52477 43.3027 6.03234 43.1334L5.32448 42.9026L5.0321 44.0567L5.70918 44.2722C6.43243 44.503 7.03258 44.6415 7.7866 44.6415C8.87917 44.6415 9.97175 44.0259 9.97175 42.6718C9.94097 41.9639 9.64859 41.0868 8.23287 40.779Z" fill="#8A8888"/>
<path d="M13.3107 37.8711H11.5565C11.0333 37.8711 10.6639 38.225 10.6639 38.7175V44.5496H11.8488V42.1336H13.2184C14.511 42.1336 15.3728 41.2719 15.3728 39.9947C15.3728 38.7174 14.5418 37.8711 13.3107 37.8711ZM13.2184 41.0257H11.8488V38.979H13.28C13.8647 38.979 14.2186 39.3638 14.2186 39.9947C14.2186 40.6564 13.8647 41.0257 13.2184 41.0257Z" fill="#8A8888"/>
<path d="M18.6661 38.3318C18.543 37.9933 18.266 37.8086 17.8967 37.8086C17.5273 37.8086 17.2504 37.9933 17.1272 38.3472L14.7574 44.5487H16.0347L16.5579 43.1791H19.1431L19.6663 44.5487H20.9589L18.6661 38.3318ZM16.9734 42.0558L17.8813 39.5936L18.7584 42.0558H16.9734Z" fill="#8A8888"/>
<path d="M25.16 43.1637C24.6829 43.3176 24.1905 43.4407 23.8058 43.4407C22.6209 43.4407 22.0207 42.6867 22.0207 41.2094C22.0207 39.7321 22.6209 38.9781 23.7904 38.9781C24.0982 38.9781 24.4983 39.055 25.1446 39.2551L25.8986 39.4859L26.1448 38.3472L25.4677 38.1317C24.7906 37.9317 24.3136 37.8086 23.7904 37.8086C21.9438 37.8086 20.7897 39.1012 20.7897 41.194C20.7897 43.3484 21.8822 44.5794 23.7904 44.5794C24.3136 44.5794 24.806 44.4563 25.4677 44.2563L26.1448 44.0409L25.8986 42.9021L25.16 43.1637Z" fill="#8A8888"/>
<path d="M28.2068 37.8711H26.9911V44.5496H28.2068V37.8711Z" fill="#8A8888"/>
<path d="M32.6846 38.3479C32.5615 38.0094 32.2845 37.8247 31.9152 37.8247C31.5459 37.8247 31.2689 38.0094 31.1458 38.3633L28.776 44.5648H30.0532L30.5764 43.1952H33.1617L33.6849 44.5648H34.9775L32.6846 38.3479ZM30.9919 42.0565L31.8998 39.5944L32.7923 42.0565H30.9919Z" fill="#8A8888"/>
<path d="M34.8236 39.7634C34.285 39.7634 33.8541 39.3633 33.8541 38.7939C33.8541 38.2246 34.285 37.8398 34.8236 37.8398C35.3468 37.8398 35.793 38.2246 35.793 38.7939C35.7777 39.3633 35.3468 39.7634 34.8236 39.7634ZM34.8236 37.9937C34.3773 37.9937 34.008 38.3323 34.008 38.8093C34.008 39.2863 34.3773 39.6249 34.8236 39.6249C35.2698 39.6249 35.6238 39.2863 35.6238 38.8093C35.6238 38.3169 35.2698 37.9937 34.8236 37.9937ZM35.116 39.3017L34.9467 38.9478H34.6235V39.3017H34.4697V38.4246C34.4697 38.3323 34.5312 38.3015 34.6081 38.3015H34.9159C35.1006 38.3015 35.2083 38.4092 35.2083 38.5785C35.2083 38.6246 35.1929 38.6862 35.1621 38.7631L35.0698 38.8862L35.2699 39.3017H35.116ZM34.9159 38.4246H34.6235V38.8093H34.9621L35.0236 38.717C35.0544 38.6708 35.0544 38.6246 35.0544 38.5939C35.0544 38.4862 34.9929 38.4246 34.9159 38.4246Z" fill="#8A8888"/>
</svg>
