<svg width="23" height="23" viewBox="0 0 23 23" fill="none" xmlns="http://www.w3.org/2000/svg">
<path d="M11.5 1.91667C16.7843 1.91667 21.0833 6.21575 21.0833 11.5C21.0833 16.7843 16.7843 21.0833 11.5 21.0833C6.21575 21.0833 1.91667 16.7843 1.91667 11.5C1.91667 6.21575 6.21575 1.91667 11.5 1.91667ZM11.5 0C5.14913 0 0 5.14913 0 11.5C0 17.8509 5.14913 23 11.5 23C17.8509 23 23 17.8509 23 11.5C23 5.14913 17.8509 0 11.5 0ZM9.58333 9.58333H7.66667V11.5H9.58333V17.25H12.4583V11.5H14.2025L14.375 9.58333H12.4583V8.78504C12.4583 8.32696 12.5503 8.14583 12.9931 8.14583H14.375V5.75H12.0712C10.3481 5.75 9.58333 6.509 9.58333 7.96183V9.58333Z" fill="#8A8888"/>
</svg>
