<svg width="1640" height="536" viewBox="0 0 1640 536" fill="none" xmlns="http://www.w3.org/2000/svg">
<path d="M245.478 2.07178V12.5176H176.535V523.32H245.478V533.766H0V523.32H68.9427V12.5176H0V2.07178H245.478Z" fill="#54565A" fill-opacity="0.05"/>
<path d="M298.752 12.535V2.08914H367.695C393.287 2.08914 418.357 1.56678 443.949 1.04449C469.542 0.522197 494.612 0 520.204 0C542.663 0 566.166 1.56685 591.236 4.7006C616.306 7.83436 640.854 13.0573 665.402 20.8917C689.949 28.7261 712.93 39.1719 734.867 51.707C756.803 64.7643 776.127 80.9554 793.363 100.802C810.076 120.65 823.656 144.153 833.58 171.834C843.504 198.994 848.727 231.376 848.727 267.936C848.727 304.497 843.504 336.357 833.58 363.516C823.656 390.675 810.076 414.701 793.363 434.548C776.65 454.395 757.848 471.108 736.434 483.643C715.02 496.701 692.561 507.146 669.58 514.459C646.599 522.293 623.618 527.516 600.637 530.65C578.179 533.783 556.765 535.35 537.44 535.35C509.236 535.35 481.032 534.828 452.828 534.828C424.624 534.306 396.421 534.306 368.217 534.306H298.752V523.86H367.695V13.0573H298.752V12.535ZM515.503 525.949C547.886 525.949 575.567 522.293 598.548 514.459C621.529 506.624 640.854 496.178 656.523 483.121C672.191 470.064 684.726 454.917 693.605 437.681C703.007 420.968 709.796 402.688 714.497 384.408C719.198 365.605 722.332 347.325 723.898 328.522C725.465 309.72 725.988 292.484 725.988 275.771C725.988 235.554 723.376 198.994 718.676 166.089C713.453 133.707 704.051 105.503 689.427 82.5222C674.803 59.5413 653.911 41.7833 627.274 29.2483C600.637 16.7132 565.644 10.4459 522.293 10.4459C512.37 10.4459 503.491 10.4457 495.656 10.968C487.822 10.968 481.032 12.0127 476.331 13.0573V523.86C489.911 524.904 503.491 525.949 515.503 525.949Z" fill="#54565A" fill-opacity="0.05"/>
<path d="M1300.51 2.08948V130.051H1290.59C1287.97 121.695 1283.8 110.726 1278.05 97.669C1272.3 84.6117 1263.95 71.5544 1252.98 59.0194C1242.01 46.4843 1228.43 35.5161 1211.72 26.6372C1195.01 17.2359 1174.11 13.0577 1149.57 13.0577H1031.01V243.911H1072.79C1091.07 243.911 1106.74 241.3 1119.27 236.077C1131.81 230.854 1142.78 223.542 1151.13 213.618C1159.49 203.695 1166.8 192.204 1172.02 178.624C1177.25 165.045 1181.95 149.376 1185.6 132.663H1195.53V364.561H1185.6C1181.95 349.937 1177.77 336.357 1173.07 322.777C1168.37 309.198 1162.1 297.707 1154.27 287.261C1146.43 276.816 1136.51 268.981 1125.02 263.236C1113.53 257.491 1098.9 254.357 1081.15 254.357H1031.01V523.86H1153.74C1176.72 523.86 1197.09 520.204 1215.9 512.37C1234.18 504.535 1250.89 493.567 1264.99 479.987C1279.09 465.885 1291.11 449.695 1300.51 430.892C1309.91 412.09 1317.22 392.242 1321.92 370.828H1331.85V534.306H854.471V523.86H923.413V13.0577H854.471V2.6118H1300.51V2.08948Z" fill="#54565A" fill-opacity="0.05"/>
<path d="M1640 2.08948V12.5353H1571.06V523.338H1640V533.784H1394.52V523.338H1463.46V12.5353H1394.52V2.08948H1640Z" fill="#54565A" fill-opacity="0.05"/>
</svg>
