<svg width="23" height="23" viewBox="0 0 23 23" fill="none" xmlns="http://www.w3.org/2000/svg">
<path d="M11.5 2.07288C14.5705 2.07288 14.9347 2.08437 16.1479 2.13996C19.2644 2.28179 20.7201 3.7605 20.862 6.854C20.9175 8.06629 20.9281 8.43046 20.9281 11.501C20.9281 14.5724 20.9166 14.9356 20.862 16.1479C20.7192 19.2385 19.2673 20.7201 16.1479 20.862C14.9347 20.9175 14.5724 20.929 11.5 20.929C8.4295 20.929 8.06533 20.9175 6.85304 20.862C3.72887 20.7192 2.28083 19.2338 2.139 16.147C2.08342 14.9347 2.07192 14.5715 2.07192 11.5C2.07192 8.4295 2.08438 8.06629 2.139 6.85304C2.28179 3.7605 3.73367 2.28083 6.85304 2.139C8.06629 2.08438 8.4295 2.07288 11.5 2.07288ZM11.5 0C8.37679 0 7.98579 0.0134167 6.75912 0.069C2.58271 0.260667 0.261625 2.57792 0.0699583 6.75817C0.0134167 7.98579 0 8.37679 0 11.5C0 14.6232 0.0134167 15.0152 0.069 16.2418C0.260667 20.4182 2.57792 22.7393 6.75817 22.931C7.98579 22.9866 8.37679 23 11.5 23C14.6232 23 15.0152 22.9866 16.2418 22.931C20.4144 22.7393 22.7412 20.4221 22.93 16.2418C22.9866 15.0152 23 14.6232 23 11.5C23 8.37679 22.9866 7.98579 22.931 6.75912C22.7432 2.58654 20.423 0.261625 16.2428 0.0699583C15.0152 0.0134167 14.6232 0 11.5 0V0ZM11.5 5.59475C8.23879 5.59475 5.59475 8.23879 5.59475 11.5C5.59475 14.7612 8.23879 17.4062 11.5 17.4062C14.7612 17.4062 17.4053 14.7622 17.4053 11.5C17.4053 8.23879 14.7612 5.59475 11.5 5.59475ZM11.5 15.3333C9.38304 15.3333 7.66667 13.6179 7.66667 11.5C7.66667 9.38304 9.38304 7.66667 11.5 7.66667C13.617 7.66667 15.3333 9.38304 15.3333 11.5C15.3333 13.6179 13.617 15.3333 11.5 15.3333ZM17.6391 3.98188C16.8762 3.98188 16.2581 4.6 16.2581 5.36187C16.2581 6.12375 16.8762 6.74187 17.6391 6.74187C18.401 6.74187 19.0181 6.12375 19.0181 5.36187C19.0181 4.6 18.401 3.98188 17.6391 3.98188Z" fill="#8A8888"/>
</svg>
