<svg width="82" height="81" viewBox="0 0 82 81" fill="none" xmlns="http://www.w3.org/2000/svg">
<path d="M77.9472 22.577C84.4583 35.2127 82.9795 52.5044 74.5505 63.7239C65.4683 76.0251 49.3837 83.3462 33.2939 80.2004C18.244 77.3263 4.62068 65.4013 1.17174 50.3357C-0.835396 42.18 -0.253444 33.6017 2.8368 25.7918C5.92705 17.9819 11.3723 11.328 18.4164 6.75371C30.6706 -1.7589 49.6607 -2.35462 62.3538 5.70858C69.0807 9.69311 74.5011 15.5511 77.9524 22.5666" fill="#8A8888"/>
<path d="M76.3586 22.5767C82.9272 34.9406 81.7201 51.8404 73.1866 63.0181C63.8274 75.3768 47.8474 82.1544 32.4735 78.6271C18.3015 75.591 5.44111 63.8333 2.37887 49.4679C-1.39928 33.3677 5.66059 16.8337 18.7927 8.10682C29.845 0.268329 47.0113 -0.839512 58.9571 5.49399C66.4559 9.28782 72.5438 14.9786 76.3586 22.5662" fill="white"/>
<path d="M68.4783 14.1218C78.4384 23.8259 81.7828 39.6022 77.017 52.8806C72.4707 65.8925 60.3262 75.4293 46.7082 77.6554C32.207 79.8763 18.3642 73.7519 9.88293 62.4749C1.17175 51.2554 0.299062 33.3679 8.06962 21.2758C15.5632 8.86481 29.3015 1.87288 43.855 2.7926C53.1717 3.43176 61.9315 7.46216 68.4783 14.1218Z" fill="#8A8888"/>
<path d="M63.5558 27.6204C67.9297 34.5601 68.0969 45.3876 63.9948 52.505C59.1193 61.3886 49.2166 66.6143 39.1468 65.8931C28.9724 65.3706 19.723 58.3577 16.551 48.9254C13.5933 40.3083 15.6731 30.2228 21.6878 23.6646C24.945 20.0534 29.14 17.4166 33.8064 16.0475C38.4727 14.6784 43.4274 14.6307 48.1192 15.9097C54.5729 17.5924 60.0442 21.9296 63.5506 27.6204" fill="#F8F9FB"/>
<path d="M44.6807 22.2533C44.895 22.849 44.733 23.3925 44.7852 24.0405C46.1021 24.6362 47.304 25.7231 47.2517 27.2961C47.0323 28.0538 46.8128 28.8115 46.6456 29.517C47.304 29.6267 48.0147 29.5692 48.5634 30.0395C49.6608 32.041 48.0722 34.3193 46.9957 36.002C45.846 36.8695 47.6541 37.1412 47.6541 37.9512C48.3125 39.7436 47.6019 41.8025 46.4522 43.0462C46.4522 43.2657 45.846 43.5688 46.285 43.9189C46.1753 44.6191 46.2327 45.5963 45.7624 46.3018C45.9244 46.9498 45.3757 46.678 45.3235 47.1692C44.3496 48.049 43.1221 48.5978 41.817 48.7369C42.1463 42.9887 41.9843 37.3555 41.932 31.393C41.7125 31.1212 41.3258 30.7973 41.0541 31.1735L40.7249 31.7745C40.5629 37.5749 40.7249 42.6177 40.5629 48.4704C38.4726 47.7127 36.2935 46.2443 35.3059 44.1331C35.0916 43.3754 35.6351 42.508 36.1263 41.9122C35.0341 41.2068 33.341 39.9578 33.665 38.2543C33.5553 37.5488 34.3234 37.0576 34.7101 36.6866C35.3111 36.5246 36.0793 36.5246 36.5182 36.4148C35.0968 34.4082 33.179 31.8058 34.3287 29.0989C34.8199 28.3934 35.7501 28.3412 36.5182 28.1269C36.4607 27.4737 35.8075 26.9303 35.5881 26.2823C35.3111 25.4671 35.6978 24.7146 36.027 24.0561C36.8187 23.3308 37.859 22.9379 38.9325 22.9588C39.3714 22.9588 40.1919 23.7165 40.1919 22.7393C40.1919 21.8718 40.3539 21.0044 41.1743 20.649C42.5957 20.2153 44.2418 20.973 44.6807 22.2742" fill="#231F20"/>
<path d="M44.6808 22.2526C44.895 22.8483 44.733 23.3918 44.7853 24.0397C46.0969 24.6407 47.304 25.7224 47.2466 27.2953C47.0271 28.0531 46.8128 28.8108 46.6456 29.5162C47.304 29.626 48.0147 29.5685 48.5634 30.0388C49.6556 32.0455 48.0409 34.3238 46.9957 36.0013C45.8461 36.8687 47.6542 37.1405 47.6542 37.9557C48.3074 39.7429 47.5967 41.8018 46.447 43.0507C46.447 43.265 45.8461 43.5733 46.285 43.9182C46.1753 44.6184 46.2275 45.5956 45.7625 46.3011C45.9297 46.949 45.381 46.6773 45.3235 47.1685C44.3522 48.0491 43.1261 48.5981 41.8223 48.7362C42.1515 42.988 41.9895 37.3547 41.9321 31.3922C41.7126 31.1205 41.3311 30.7965 41.0594 31.1728L40.7302 31.7737C40.5629 37.5742 40.7302 42.617 40.5629 48.4697C38.4727 47.712 36.2988 46.2436 35.3373 44.1324C35.123 43.3747 35.6665 42.5072 36.1577 41.9115C35.0655 41.206 33.3672 39.9571 33.6964 38.2535C33.5867 37.5481 34.3548 37.0621 34.7415 36.6858C35.3425 36.5239 36.1107 36.5239 36.5496 36.4141C35.1282 34.4075 33.2104 31.8051 34.3601 29.0982C34.8513 28.3979 35.7814 28.3405 36.5496 28.1262C36.4921 27.4782 35.8389 26.9348 35.6195 26.2816C35.3425 25.4663 35.7292 24.7139 36.0584 24.0606C36.8413 23.3409 37.8691 22.9466 38.9325 22.958C39.3715 22.958 40.1919 23.7158 40.1919 22.7386C40.1919 21.8711 40.3539 21.0036 41.1743 20.6483C42.5905 20.1937 44.2366 20.9462 44.6808 22.2526Z" stroke="#CA9D81" stroke-width="0.25" stroke-miterlimit="3.86"/>
<path d="M24.7029 33.0902C25.26 33.6175 25.6413 34.3035 25.7951 35.0551C26.558 35.0028 27.4359 34.4071 28.3086 34.7833C29.9547 36.2517 29.6777 38.6869 30.3362 40.6413C31.2663 40.9078 32.578 40.5838 33.0169 41.6864C33.9471 43.4213 33.5082 45.5848 33.6179 47.6489C35.0968 47.4294 36.1367 48.6209 36.7951 49.6556C37.6155 51.8242 38.3262 54.0451 37.1766 56.266C32.2426 51.1217 27.9778 45.3751 24.4834 39.1624C24.4259 38.9482 24.2065 39.0527 24.0445 39.0057C23.5533 39.3819 23.8825 39.9776 23.987 40.3591C27.2165 46.4261 31.3761 52.4461 36.4084 57.0812C36.4659 57.6038 36.3561 58.3824 35.7552 58.6489C35.1069 58.9758 34.3558 59.034 33.6649 58.8109C33.1649 58.3832 32.8015 57.8181 32.6198 57.1857C30.9214 57.1857 28.7894 57.9435 27.5822 56.266C27.3105 55.5031 27.53 54.6356 27.6397 53.8779C25.8369 53.2822 23.2084 52.5244 22.8269 50.2199C22.8042 49.9374 22.8466 49.6534 22.9508 49.3898C23.055 49.1262 23.2182 48.89 23.4278 48.6993C23.6042 48.6117 23.7692 48.5029 23.9191 48.3753C22.4402 47.4555 19.9789 46.9121 19.7072 44.8009C19.7594 43.7558 20.7523 43.39 21.4003 42.8465C20.3552 41.7126 18.9913 40.5159 19.378 38.7809C19.7594 37.8612 20.8516 37.8612 21.6198 37.6992C22.0587 35.9643 20.4701 33.5762 22.4402 32.4422C23.2606 32.4422 24.1385 32.3847 24.6872 33.0327" fill="#231F20"/>
<path d="M24.6977 33.0963C25.2569 33.6207 25.6402 34.3052 25.7951 35.0559C26.558 35.0037 27.4359 34.408 28.3086 34.7842C29.9547 36.2526 29.6777 38.6878 30.3362 40.6422C31.2663 40.9087 32.578 40.5847 33.0169 41.6873C33.9471 43.4222 33.5081 45.5856 33.6179 47.6498C35.0967 47.4355 36.1367 48.627 36.7899 49.6564C37.6155 51.8251 38.321 54.046 37.1766 56.2669C32.2427 51.1308 27.9763 45.3931 24.4782 39.1894C24.4259 38.9752 24.2065 39.0849 24.0445 39.0327C23.5219 39.4089 23.8772 40.0046 23.987 40.3861C27.2164 46.4531 31.3761 52.4731 36.4084 57.1082C36.4659 57.6308 36.3561 58.4094 35.75 58.6759C35.1017 59.0028 34.3506 59.0611 33.6597 58.8379C33.1631 58.4072 32.8004 57.8432 32.6146 57.2127C30.9214 57.2127 28.7894 57.9705 27.5822 56.293C27.3105 55.5301 27.53 54.6626 27.6397 53.9049C25.8316 53.3092 23.2084 52.5515 22.8217 50.2469C22.799 49.9644 22.8414 49.6804 22.9456 49.4168C23.0497 49.1532 23.2129 48.917 23.4226 48.7263C23.6116 48.6442 23.7876 48.5351 23.9452 48.4023C22.4663 47.4826 20.005 46.9391 19.7333 44.8279C19.7856 43.7828 20.7784 43.417 21.4264 42.8735C20.3813 41.7396 19.0174 40.5429 19.4041 38.808C19.7856 37.8882 20.8777 37.8882 21.6459 37.7263C22.0848 35.9913 20.4962 33.6084 22.4663 32.4692C23.2554 32.5006 24.1542 32.4431 24.6977 33.0963Z" stroke="#CA9D81" stroke-width="0.25" stroke-miterlimit="3.86"/>
<path d="M59.835 34.0681C60.4934 35.4268 59.6678 36.9423 59.7827 38.4054C60.6031 38.6772 61.6953 38.7869 62.0245 39.7066C62.2963 41.3318 60.8749 42.3195 59.9343 43.3959C60.5352 44.0439 61.6849 44.4777 61.502 45.4862C60.9794 47.3831 58.8891 47.6549 57.3946 48.5746C57.7526 48.7938 58.0275 49.1258 58.176 49.5185C58.3245 49.9111 58.3383 50.3419 58.215 50.7432C57.6141 52.6976 55.4245 53.1836 53.7837 53.6173C53.6217 54.6625 54.2226 56.2772 52.8012 56.7527C51.7038 57.1865 49.901 56.6953 48.6939 56.9147C48.655 57.2041 48.5511 57.4808 48.39 57.7243C48.2289 57.9677 48.0148 58.1715 47.7637 58.3204C47.1105 58.5922 46.3423 58.3204 45.7414 58.0539C45.5683 57.8869 45.4345 57.6835 45.3495 57.4585C45.2646 57.2335 45.2306 56.9925 45.2501 56.7527C45.7727 55.5561 47.2202 54.9081 47.9832 53.8786C51.6411 50.2207 54.4421 45.9617 57.1229 41.6297C57.3423 41.0339 58.1105 40.3285 57.4521 39.623L57.1229 39.6753C53.3447 45.366 49.7338 50.9523 44.5813 55.7233C43.7608 54.7461 44.1998 53.0112 44.1423 51.872C44.5813 50.0848 45.4592 47.9684 47.424 47.6444C47.7532 47.7541 48.2497 47.6444 48.2497 47.2629C47.973 45.3288 48.2559 43.3559 49.0649 41.5774C49.7233 40.8667 51.0924 41.6297 51.5837 40.8145C52.2421 38.9698 51.8606 36.3152 53.9404 35.3955C54.8131 35.176 55.1946 35.7717 55.853 35.918C55.9546 35.3012 56.2383 34.7289 56.6675 34.2745C57.0968 33.8201 57.652 33.5044 58.2621 33.3679C58.5628 33.3344 58.867 33.3816 59.1435 33.5047C59.4199 33.6277 59.6586 33.8222 59.835 34.0681Z" fill="#231F20"/>
<path d="M59.8352 34.0737C60.4884 35.4271 59.668 36.9478 59.7778 38.4058C60.5982 38.6775 61.6956 38.7872 62.0196 39.707C62.2965 41.3321 60.8751 42.3198 59.9293 43.3963C60.5355 44.0443 61.6851 44.478 61.497 45.4865C61.0058 47.3887 58.8842 47.6552 57.3948 48.5801C57.7524 48.7984 58.0271 49.1296 58.1757 49.5213C58.3242 49.913 58.3382 50.343 58.2153 50.7436C57.6143 52.698 55.4248 53.1839 53.7839 53.6177C53.6219 54.6628 54.2229 56.2775 52.8015 56.7531C51.7041 57.1868 49.896 56.6956 48.6941 56.9151C48.6553 57.2044 48.5514 57.4812 48.3903 57.7246C48.2292 57.9681 48.0151 58.1719 47.764 58.3208C47.1055 58.5925 46.3426 58.3208 45.7416 58.0543C45.5641 57.8892 45.4252 57.687 45.3349 57.4621C45.2445 57.2372 45.205 56.9951 45.2191 56.7531C45.7678 55.5564 47.1891 54.9084 47.9573 53.879C51.6153 50.221 54.411 45.9673 57.097 41.63C57.3112 41.0343 58.0794 40.3288 57.4262 39.6233L57.097 39.6756C53.3188 45.3716 49.7079 50.9526 44.5554 55.7236C43.735 54.7464 44.1687 53.0115 44.1164 51.8723C44.5554 50.0851 45.4333 47.9687 47.3982 47.6447C47.7274 47.7545 48.2186 47.6447 48.2186 47.2685C47.9434 45.3322 48.2281 43.3575 49.039 41.5777C49.6974 40.8723 51.0666 41.63 51.5578 40.8148C52.2162 38.9754 51.8347 36.3155 53.9093 35.3958C54.7872 35.1763 55.1687 35.772 55.8272 35.9184C55.9287 35.3016 56.2124 34.7292 56.6416 34.2748C57.0709 33.8204 57.6262 33.5047 58.2362 33.3682C58.5416 33.3299 58.8518 33.3752 59.1334 33.4995C59.4151 33.6237 59.6577 33.8222 59.8352 34.0737V34.0737Z" stroke="#CA9D81" stroke-width="0.25" stroke-miterlimit="3.86"/>
<path d="M41.7701 50.1165V57.4324C42.5905 57.2182 43.4109 55.755 44.4561 56.2984C45.1668 57.8139 42.9772 57.9236 42.3658 58.9113C42.4755 60.1602 41.2162 59.8885 40.3957 59.8885C40.2791 59.8992 40.1615 59.8861 40.0501 59.8499C39.9388 59.8137 39.8359 59.7551 39.7479 59.6779C39.6599 59.6006 39.5885 59.5062 39.5382 59.4005C39.4879 59.2947 39.4596 59.1799 39.4551 59.0628C38.9639 58.4619 37.9762 58.4096 37.2656 58.0177C36.9363 57.8034 36.9938 57.3122 37.0983 57.0457C37.9188 56.2305 39.0684 57.422 40.0561 57.5683C40.2755 57.678 40.2755 57.4063 40.3278 57.2443L40.3853 49.8709C40.495 49.4946 40.8765 49.6044 41.1482 49.4424C41.3007 49.48 41.4388 49.5614 41.5456 49.6765C41.6524 49.7916 41.7232 49.9355 41.7492 50.0904" fill="#231F20"/>
<path d="M41.7701 50.1165V57.4324C42.5905 57.2182 43.4109 55.755 44.4508 56.2984C45.1668 57.8139 42.9772 57.9236 42.3606 58.9113C42.4651 60.1602 41.2109 59.8885 40.3853 59.8885C40.2695 59.8977 40.153 59.8835 40.0429 59.8466C39.9327 59.8097 39.8312 59.7509 39.7443 59.6738C39.6574 59.5967 39.587 59.5028 39.5373 59.3978C39.4876 59.2929 39.4597 59.1789 39.4551 59.0628C38.9325 58.4619 37.9762 58.4096 37.2656 58.0177C36.9363 57.8034 36.9938 57.3175 37.0983 57.0457C37.9188 56.2305 39.0684 57.422 40.0561 57.5683C40.2755 57.678 40.2755 57.4063 40.3278 57.2443L40.3801 49.8709C40.4898 49.4946 40.9026 49.6044 41.1482 49.4424C41.3082 49.4781 41.4534 49.5617 41.5646 49.6822C41.6757 49.8027 41.7474 49.9542 41.7701 50.1165V50.1165Z" stroke="#CA9D81" stroke-width="0.25" stroke-miterlimit="3.86"/>
<path d="M6.87808 47.8792L7.08711 48.6473L10.2225 47.8112C10.4233 47.7257 10.6392 47.6816 10.8574 47.6816C11.0756 47.6816 11.2916 47.7257 11.4923 47.8112C11.6951 47.9429 11.8694 48.1138 12.0049 48.314C12.1404 48.5141 12.2345 48.7394 12.2814 48.9766C12.3461 49.1877 12.3665 49.41 12.3413 49.6294C12.3161 49.8488 12.2459 50.0606 12.1351 50.2516C11.9522 50.5599 11.7223 50.7062 11.09 50.8682L7.89709 51.72L8.10089 52.4882L11.4662 51.5946C12.9398 51.2027 13.2847 49.9328 12.9764 48.8041C12.5479 47.2051 11.461 46.6511 10.1389 47.0065L6.85718 47.8792" fill="white"/>
<path d="M11.1163 44.5718C11.1233 44.6699 11.1596 44.7635 11.2204 44.8407C11.2813 44.9179 11.3638 44.975 11.4575 45.0048C11.5512 45.0345 11.6516 45.0355 11.7458 45.0076C11.8401 44.9796 11.9237 44.9241 11.986 44.8481C12.0484 44.7721 12.0864 44.6792 12.0954 44.5813C12.1043 44.4834 12.0837 44.3851 12.0362 44.2991C11.9887 44.2131 11.9164 44.1433 11.8288 44.0987C11.7412 44.0542 11.6423 44.037 11.5448 44.0493C11.42 44.065 11.3061 44.1279 11.2264 44.2252C11.1467 44.3224 11.1072 44.4464 11.1163 44.5718Z" fill="white"/>
<path d="M6.60144 37.8827C6.33949 38.2386 6.1886 38.664 6.16771 39.1055C6.13113 40.1506 6.69027 40.809 7.59954 40.8404C9.13588 40.8927 9.35014 38.4993 10.505 38.5411C10.8185 38.5411 11.2 38.8494 11.1791 39.466C11.1574 39.7562 11.0682 40.0373 10.9185 40.2868C10.7687 40.5364 10.5627 40.7474 10.3169 40.9031L11.3307 40.9345C11.695 40.5067 11.8983 39.9651 11.9055 39.4033C11.9212 39.2005 11.8952 38.9966 11.8291 38.8042C11.763 38.6118 11.6581 38.4349 11.521 38.2846C11.3839 38.1343 11.2175 38.0137 11.0319 37.9301C10.8464 37.8466 10.6457 37.802 10.4423 37.7991C8.66035 37.7364 8.59241 40.1349 7.52115 40.0984C7.124 40.0984 6.86795 39.7064 6.88885 39.1943C6.90273 38.9506 6.96539 38.7122 7.0731 38.4932C7.18082 38.2742 7.3314 38.079 7.51593 37.9193L6.60144 37.8827Z" fill="white"/>
<path d="M11.3147 35.7877C11.2951 35.9158 11.327 36.0465 11.4034 36.1512C11.4797 36.2559 11.5944 36.3262 11.7223 36.3468C11.8492 36.3587 11.976 36.3239 12.079 36.2488C12.182 36.1738 12.254 36.0636 12.2815 35.9392C12.3016 35.8103 12.2696 35.6787 12.1927 35.5734C12.1158 35.468 12.0001 35.3976 11.8712 35.3775C11.7424 35.3574 11.6108 35.3893 11.5054 35.4662C11.4001 35.5431 11.3296 35.6588 11.3095 35.7877" fill="white"/>
<path d="M12.7256 25.9116L11.9574 27.6099L12.6211 27.9026L13.0548 26.9306L14.0999 27.3905C14.067 27.8002 13.9701 28.2022 13.8125 28.5819C13.7116 28.855 13.5554 29.1042 13.3537 29.3142C13.152 29.5241 12.9092 29.6902 12.6405 29.802C12.3717 29.9138 12.0827 29.969 11.7917 29.9641C11.5006 29.9591 11.2137 29.8942 10.9489 29.7734C10.689 29.6642 10.454 29.5036 10.2578 29.3012C10.0616 29.0988 9.90839 28.8588 9.80735 28.5957C9.7063 28.3326 9.65951 28.0518 9.66978 27.7701C9.68006 27.4885 9.7472 27.2118 9.86715 26.9567C10.1645 26.3199 10.6196 25.7695 11.1892 25.3577L10.4472 25.0337C9.91263 25.467 9.48524 26.0178 9.19826 26.6432C9.00401 26.9913 8.8843 27.3761 8.84676 27.773C8.80921 28.1699 8.85465 28.5702 8.98018 28.9486C9.10572 29.327 9.3086 29.6752 9.57593 29.9709C9.84326 30.2667 10.1692 30.5036 10.533 30.6666C10.8969 30.8296 11.2906 30.9151 11.6893 30.9177C12.0879 30.9203 12.4828 30.84 12.8487 30.6817C13.2146 30.5235 13.5437 30.2909 13.8148 29.9987C14.086 29.7065 14.2934 29.361 14.4239 28.9843C14.7259 28.3293 14.8777 27.6152 14.8681 26.894L12.7256 25.9116Z" fill="white"/>
<path fill-rule="evenodd" clip-rule="evenodd" d="M13.8493 20.2726L14.1785 19.8754C14.6645 19.2745 15.1139 19.2327 15.5268 19.5567C15.9396 19.8807 16.0859 20.304 15.5268 20.9676L15.2028 21.37L13.8493 20.2726ZM12.8042 20.4659L17.1519 23.9515L17.6745 23.3348L15.7881 21.8194L15.9971 21.5581C16.2584 21.2446 16.5719 21.0669 17.9306 21.2132L19.2892 21.3648L19.8902 20.6227C19.237 20.5861 19.0018 20.5757 18.5524 20.5182C17.8966 20.3737 17.2172 20.3737 16.5614 20.5182C16.6596 20.2398 16.6658 19.9373 16.5793 19.6552C16.4927 19.373 16.318 19.126 16.0807 18.9505C15.3282 18.3443 14.4189 18.5168 13.7082 19.3895L12.8042 20.4659Z" fill="white"/>
<path d="M21.3272 12.272L18.7927 14.1637L22.1581 18.5898L24.7552 16.6563L24.3215 16.0815L22.3671 17.5447L21.3219 16.1651L23.1509 14.8012L22.712 14.2264L20.8882 15.5955L19.8692 14.2577L21.7661 12.8416L21.3272 12.272Z" fill="white"/>
<path d="M28.0318 8.64551L25.1577 9.97805L27.5197 15.0051L30.467 13.6412L30.1587 12.9933L27.943 14.0175L27.2062 12.455L29.286 11.4987L28.9777 10.8507L26.9031 11.807L26.1872 10.2864L28.3401 9.29349L28.0318 8.64551Z" fill="white"/>
<path d="M37.8769 6.2627L37.1296 6.37766L37.8089 10.6209L33.388 6.96816L32.7505 7.06745L33.6284 12.5439L34.3757 12.4237L33.7016 8.20664L38.0702 11.8437L38.7496 11.7392L37.8769 6.2627Z" fill="white"/>
<path fill-rule="evenodd" clip-rule="evenodd" d="M45.1039 9.44985L46.0654 9.58049C46.9015 9.70068 47.2412 10.1031 47.168 10.6256C47.1105 11.0385 46.7918 11.4617 45.8564 11.3311L44.8583 11.19L45.1039 9.47075V9.44985ZM45.4383 7.11921L46.1699 7.21849C46.9015 7.32301 47.0844 7.7097 47.0269 8.12253C46.9433 8.70781 46.5044 8.94296 45.731 8.83322L45.2084 8.76006L45.4383 7.11921ZM43.9595 11.7909L45.8616 12.0522C47.2516 12.2456 47.8787 11.5297 47.9519 10.8503C47.9986 10.489 47.9087 10.1232 47.7 9.82453C47.4912 9.52589 47.1786 9.31588 46.8231 9.2356C47.0839 9.19799 47.3248 9.07501 47.5082 8.88591C47.6917 8.69681 47.8073 8.45224 47.8369 8.19047C47.9362 7.50068 47.5234 6.72205 46.3319 6.55483L44.7381 6.31445L43.9595 11.7909Z" fill="white"/>
<path d="M57.4941 10.0558L56.7573 9.73705L55.43 12.6843C55.3625 12.8884 55.2553 13.0771 55.1145 13.2394C54.9737 13.4018 54.802 13.5346 54.6095 13.6302C54.1513 13.7691 53.6572 13.7261 53.2299 13.51C53.0238 13.4265 52.8369 13.3019 52.6806 13.1438C52.5242 12.9857 52.4018 12.7973 52.3207 12.5903C52.19 12.2558 52.2214 11.9841 52.4827 11.4145L53.8257 8.42018L53.0889 8.09619L51.6727 11.2316C51.0561 12.6112 51.8347 13.6772 52.9112 14.1527C54.4371 14.8268 55.524 14.3356 56.1093 13.1076L57.4941 10.0297" fill="white"/>
<path d="M62.0874 12.983L61.4394 12.5127L58.1472 16.9963L58.8004 17.4666L62.0874 12.983Z" fill="white"/>
<path d="M66.1006 16.4469L65.5414 15.8721L61.5125 19.7234L63.8274 22.0958L64.35 21.5994L62.5942 19.8018L66.1006 16.4469Z" fill="white"/>
<path fill-rule="evenodd" clip-rule="evenodd" d="M70.4117 22.9582L71.0126 24.0294C71.7704 25.3881 71.2844 26.4646 70.3019 27.0081C70.0514 27.1458 69.7752 27.2307 69.4905 27.2574C69.2058 27.2842 68.9187 27.2522 68.6469 27.1636C68.375 27.0749 68.1243 26.9314 67.9101 26.742C67.6959 26.5526 67.5229 26.3212 67.4017 26.0622L66.7798 24.9491L70.4378 22.9582H70.4117ZM65.7556 24.6043L66.8007 26.4959C66.9692 26.8396 67.2055 27.1456 67.4953 27.3956C67.7851 27.6456 68.1225 27.8344 68.4872 27.9506C68.8519 28.0667 69.2363 28.108 69.6173 28.0717C69.9983 28.0355 70.3681 27.9225 70.7043 27.7396C71.0423 27.5621 71.3393 27.3155 71.576 27.0159C71.8127 26.7163 71.9839 26.3704 72.0785 26.0005C72.173 25.6306 72.1889 25.2449 72.125 24.8685C72.0611 24.492 71.919 24.1332 71.7076 23.8152L70.6625 21.9287L65.7556 24.6043Z" fill="white"/>
<path d="M74.9269 31.3875L74.6918 30.6245L69.3354 32.2445L69.5706 33.0074L74.9269 31.3875Z" fill="white"/>
<path d="M76.3638 41.2587L76.3115 40.5167L71.9847 40.8145L76.045 36.7646L76.0032 36.1323L70.417 36.519L70.4693 37.2663L74.77 36.9684L70.7305 40.9661L70.7776 41.6454L76.3638 41.2587Z" fill="white"/>
<path d="M71.8541 50.7751L72.3088 48.967L71.6085 48.7946L71.3525 49.8397L70.2342 49.5627C70.1959 49.1536 70.2223 48.7409 70.3126 48.3399C70.3733 48.0654 70.4875 47.8056 70.6487 47.5752C70.8098 47.3449 71.0148 47.1485 71.2518 46.9973C71.4889 46.8462 71.7533 46.7432 72.0302 46.6943C72.307 46.6453 72.5908 46.6514 72.8653 46.7121C73.1398 46.7729 73.3996 46.8871 73.63 47.0482C73.8604 47.2094 74.0567 47.4143 74.2079 47.6514C74.359 47.8884 74.462 48.1529 74.511 48.4298C74.5599 48.7066 74.5538 48.9904 74.4931 49.2649C74.3017 49.9425 73.9422 50.5609 73.448 51.0625L74.2423 51.2611C74.6901 50.7384 75.012 50.1198 75.1829 49.453C75.2902 49.0806 75.3209 48.6903 75.273 48.3057C75.2251 47.9212 75.0996 47.5503 74.9042 47.2156C74.7088 46.881 74.4475 46.5894 74.1361 46.3587C73.8247 46.128 73.4697 45.9629 73.0926 45.8734C72.7209 45.7771 72.3335 45.7577 71.954 45.8163C71.5745 45.8749 71.211 46.0104 70.8857 46.2144C70.5603 46.4184 70.2801 46.6866 70.062 47.0027C69.844 47.3187 69.6927 47.676 69.6176 48.0525C69.4283 48.7586 69.4033 49.4987 69.5444 50.2159L71.8437 50.7855" fill="white"/>
<path d="M25.743 64.6594C25.4309 64.0766 25.0023 63.5643 24.4837 63.1544C24.1765 62.8998 23.8206 62.7107 23.4377 62.5987C23.0548 62.4867 22.653 62.4541 22.2571 62.5031C21.8611 62.552 21.4794 62.6814 21.1353 62.8832C20.7912 63.0851 20.492 63.3552 20.2561 63.677C20.0324 63.9851 19.8734 64.3355 19.7889 64.7068C19.7044 65.0782 19.6961 65.4628 19.7645 65.8375C19.8329 66.2121 19.9766 66.569 20.1868 66.8866C20.397 67.2041 20.6695 67.4758 20.9877 67.685C21.5464 68.1135 22.2043 68.3939 22.9003 68.5002L23.4228 67.8052C22.7248 67.7698 22.0509 67.538 21.4789 67.1363C21.2323 66.9829 21.0209 66.7789 20.8587 66.5379C20.6965 66.2969 20.5871 66.0244 20.5378 65.7381C20.4884 65.4518 20.5002 65.1584 20.5723 64.877C20.6445 64.5956 20.7753 64.3327 20.9563 64.1055C21.1306 63.8749 21.3498 63.682 21.6006 63.5383C21.8514 63.3947 22.1287 63.3032 22.4157 63.2696C22.7028 63.2359 22.9937 63.2606 23.271 63.3423C23.5482 63.424 23.8061 63.5609 24.029 63.7449C24.572 64.1607 24.9852 64.7227 25.2205 65.3648L25.743 64.6803" fill="white"/>
<path fill-rule="evenodd" clip-rule="evenodd" d="M27.2688 68.2813C27.3709 68.0151 27.5263 67.7725 27.7256 67.5686C27.9249 67.3646 28.1638 67.2036 28.4276 67.0954C28.6915 66.9872 28.9746 66.9342 29.2597 66.9395C29.5448 66.9449 29.8258 67.0085 30.0854 67.1265C30.3518 67.2222 30.596 67.3712 30.8032 67.5642C31.0103 67.7571 31.176 67.9902 31.2904 68.2492C31.4047 68.5082 31.4653 68.7877 31.4683 69.0708C31.4714 69.3539 31.4169 69.6347 31.3082 69.8961C31.2063 70.163 31.0506 70.4062 30.851 70.6106C30.6513 70.815 30.4118 70.9763 30.1474 71.0845C29.8829 71.1927 29.5991 71.2456 29.3134 71.2398C29.0277 71.2341 28.7462 71.1698 28.4864 71.0509C28.2204 70.9546 27.9768 70.8053 27.7702 70.6121C27.5637 70.4189 27.3985 70.1857 27.2846 69.9268C27.1708 69.6679 27.1107 69.3885 27.108 69.1057C27.1053 68.8229 27.16 68.5424 27.2688 68.2813ZM26.5006 67.9782C26.3543 68.3343 26.2823 68.7165 26.289 69.1015C26.2957 69.4864 26.3809 69.8659 26.5394 70.2167C26.6979 70.5675 26.9264 70.8822 27.2109 71.1416C27.4954 71.401 27.8298 71.5995 28.1937 71.725C28.5467 71.8908 28.9296 71.983 29.3193 71.996C29.709 72.009 30.0972 71.9427 30.4604 71.8009C30.8236 71.6591 31.1542 71.445 31.432 71.1714C31.7098 70.8978 31.9291 70.5706 32.0764 70.2096C32.2255 69.8518 32.2992 69.467 32.2928 69.0794C32.2864 68.6918 32.2 68.3097 32.0391 67.957C31.8782 67.6043 31.6463 67.2887 31.3577 67.0298C31.0692 66.7708 30.7304 66.5743 30.3624 66.4523C30.0098 66.291 29.6282 66.2026 29.2405 66.1924C28.8529 66.1822 28.4672 66.2504 28.1065 66.3929C27.7459 66.5354 27.4178 66.7493 27.1418 67.0217C26.8659 67.2941 26.6478 67.6195 26.5006 67.9782Z" fill="white"/>
<path d="M39.779 68.798L38.9847 68.6883L38.53 71.8864C38.5232 72.103 38.4735 72.3162 38.3838 72.5135C38.2941 72.7108 38.1662 72.8884 38.0075 73.036C37.6018 73.2962 37.1113 73.3898 36.6383 73.2973C36.4195 73.2743 36.2074 73.2079 36.0145 73.1021C35.8216 72.9962 35.6517 72.853 35.5148 72.6807C35.4 72.5111 35.3249 72.3177 35.2951 72.1151C35.2652 71.9125 35.2814 71.7057 35.3424 71.5101L35.8022 68.265L35.0079 68.1553L34.5219 71.5676C34.3129 73.0674 35.358 73.8774 36.5286 74.0394C38.1747 74.2693 39.1153 73.5168 39.3034 72.1529L39.779 68.8189" fill="white"/>
<path d="M47.1003 68.395L46.3478 68.4577L46.7241 72.7375L42.5697 68.7869L41.9321 68.8392L42.4181 74.368L43.1706 74.3L42.7944 70.0463L46.9017 73.976L47.5863 73.9185L47.1003 68.395Z" fill="white"/>
<path d="M53.9666 66.6296C53.3056 66.5578 52.637 66.6218 52.0017 66.8177C51.6234 66.9173 51.2695 67.0936 50.9622 67.3356C50.6549 67.5777 50.4006 67.8804 50.2152 68.2249C50.0298 68.5694 49.9173 68.9484 49.8845 69.3382C49.8518 69.728 49.8996 70.1205 50.0249 70.4911C50.1502 70.8617 50.3504 71.2025 50.6131 71.4925C50.8757 71.7824 51.1952 72.0153 51.5516 72.1765C51.908 72.3378 52.2938 72.424 52.685 72.4299C53.0762 72.4358 53.4644 72.3611 53.8255 72.2106C54.498 71.9996 55.1035 71.6158 55.5813 71.0975L55.2939 70.2771C54.8765 70.8346 54.3066 71.2593 53.653 71.4999C53.3859 71.6181 53.0973 71.6799 52.8053 71.6813C52.5132 71.6828 52.224 71.624 51.9557 71.5085C51.6874 71.3931 51.4459 71.2234 51.2462 71.0103C51.0465 70.7972 50.893 70.5451 50.7952 70.2698C50.6975 69.9946 50.6576 69.7022 50.6781 69.4108C50.6986 69.1195 50.779 68.8355 50.9144 68.5767C51.0497 68.3179 51.237 68.0898 51.4646 67.9067C51.6922 67.7236 51.9551 67.5895 52.2369 67.5127C52.8873 67.3006 53.5838 67.2734 54.2487 67.4343L53.9666 66.6296Z" fill="white"/>
<path d="M56.3078 64.8159L55.6023 65.2026L58.3144 70.052L59.0199 69.6653L56.3078 64.8159Z" fill="white"/>
<path d="M59.4796 62.668L58.8525 63.1696L62.3746 67.4756L64.9666 65.401L64.5119 64.8471L62.5471 66.42L59.4796 62.668Z" fill="white"/>
<path d="M44.6808 22.2526C44.9002 22.8484 44.733 23.3918 44.7905 24.045C46.1021 24.6408 47.3093 25.7225 47.2518 27.2954C47.0323 28.0531 46.8128 28.8161 46.6508 29.5163C47.3093 29.626 48.0199 29.5686 48.5634 30.0389C49.6608 32.0455 48.0722 34.3239 46.9957 36.0013C45.8461 36.8688 47.6542 37.1405 47.6542 37.9557C48.3074 39.7429 47.5967 41.8018 46.447 43.0508C46.447 43.265 45.8461 43.5733 46.285 43.9182C46.1753 44.6237 46.2275 45.5957 45.7625 46.3011C45.9245 46.9543 45.381 46.6826 45.3235 47.1686C44.3504 48.0465 43.1252 48.5951 41.8223 48.7363C42.1515 42.9881 41.9843 37.3496 41.9321 31.3871C41.7126 31.1154 41.3311 30.7914 41.0541 31.1728L40.7249 31.7686C40.5629 37.569 40.7249 42.6118 40.5629 48.4646C38.4727 47.7068 36.2936 46.2436 35.3373 44.1273C35.1178 43.3695 35.6665 42.5021 36.1577 41.9063C35.0655 41.2009 33.3672 39.952 33.6964 38.2484C33.5867 37.5429 34.3496 37.0569 34.7415 36.6807C35.3425 36.5187 36.1107 36.5187 36.5444 36.4089C35.123 34.4023 33.2104 31.7999 34.3548 29.093C34.8774 28.3928 35.7814 28.3353 36.5444 28.1211C36.4921 27.4731 35.8337 26.9296 35.6142 26.2764C35.3425 25.4664 35.724 24.7087 36.0532 24.0555C36.8399 23.3391 37.8686 22.9471 38.9325 22.9581C39.3663 22.9581 40.1867 23.7158 40.1867 22.7438C40.1867 21.8764 40.3539 21.0089 41.1743 20.6536C41.853 20.4372 42.5879 20.4811 43.236 20.7767C43.8841 21.0722 44.3991 21.5984 44.6808 22.2526Z" fill="#8A8888"/>
<path d="M24.703 33.0963C25.2633 33.619 25.6453 34.3045 25.7951 35.056C26.5633 35.0037 27.4412 34.408 28.3139 34.7842C29.9548 36.2526 29.683 38.6878 30.3415 40.6422C31.2716 40.9139 32.5833 40.5847 33.0222 41.6873C33.9524 43.4223 33.5134 45.5857 33.6232 47.6498C35.102 47.4356 36.1367 48.627 36.7952 49.6565C37.6156 51.8251 38.3263 54.046 37.1818 56.2669C32.2477 51.1331 27.9812 45.397 24.4835 39.1947C24.4312 38.9804 24.2118 39.085 24.0445 39.0327C23.5533 39.4089 23.8825 40.0047 23.9923 40.3861C27.2217 46.4584 31.3814 52.4731 36.4137 57.1083C36.4659 57.6308 36.3562 58.4095 35.7552 58.676C35.1069 59.0029 34.3559 59.0611 33.665 58.838C33.1684 58.4073 32.8057 57.8433 32.6198 57.2128C30.9267 57.2128 28.7894 57.9705 27.5875 56.2931C27.3158 55.5353 27.5301 54.6627 27.6398 53.9049C25.8369 53.3092 23.2084 52.5515 22.827 50.247C22.8043 49.9652 22.8467 49.682 22.9509 49.4193C23.0551 49.1565 23.2183 48.9212 23.4279 48.7315C23.6139 48.6439 23.7893 48.5352 23.9505 48.4075C22.4716 47.4826 20.0103 46.9444 19.7334 44.828C19.7908 43.7828 20.7785 43.417 21.4317 42.8736C20.3866 41.7396 19.0227 40.5429 19.4041 38.8132C19.7908 37.8883 20.883 37.8883 21.6512 37.7263C22.0849 35.9914 20.5015 33.6085 22.4716 32.4693C23.292 32.4693 24.1647 32.417 24.7134 33.065" fill="#8A8888"/>
<path d="M59.8352 34.0734C60.4937 35.4269 59.6732 36.9423 59.783 38.4107C60.6034 38.6772 61.7008 38.787 62.0248 39.7067C62.3017 41.3371 60.8751 42.3195 59.9345 43.396C60.5355 44.044 61.6851 44.4777 61.5022 45.4863C61.011 47.3884 58.8894 47.6549 57.4001 48.5799C57.7587 48.7984 58.0342 49.1304 58.1828 49.5233C58.3314 49.9161 58.3447 50.3473 58.2205 50.7485C57.6196 52.6977 55.43 53.1837 53.7891 53.6174C53.6271 54.6625 54.2229 56.2773 52.8067 56.7528C51.7093 57.1865 49.9013 56.7006 48.6993 56.9148C48.6601 57.2047 48.5561 57.4821 48.3951 57.7263C48.2341 57.9706 48.0202 58.1754 47.7692 58.3257C47.1107 58.5975 46.3478 58.3257 45.7468 58.054C45.569 57.8892 45.4299 57.687 45.3396 57.462C45.2492 57.237 45.2098 56.9948 45.2243 56.7528C45.7468 55.5614 47.1944 54.9081 47.9625 53.8787C51.6205 50.2207 54.4214 45.967 57.097 41.6297C57.3165 41.034 58.0846 40.3285 57.4314 39.6231L57.097 39.6753C53.3241 45.3713 49.7131 50.9523 44.5554 55.7234C43.735 54.7462 44.1687 53.0112 44.1164 51.872C44.5554 50.0849 45.4281 47.9685 47.3982 47.6445C47.7274 47.7542 48.2186 47.6445 48.2186 47.2682C47.9434 45.3319 48.2281 43.3572 49.039 41.5775C49.6974 40.872 51.0666 41.6297 51.5578 40.8145C52.2162 38.9751 51.8295 36.3152 53.9093 35.3955C54.7872 35.176 55.1687 35.777 55.8272 35.9181C55.9287 35.3013 56.2124 34.729 56.6416 34.2746C57.0709 33.8202 57.6262 33.5045 58.2362 33.368C58.5417 33.3284 58.8523 33.3733 59.1341 33.4976C59.416 33.622 59.6585 33.8211 59.8352 34.0734Z" fill="#8A8888"/>
<path d="M41.7752 50.1157V57.4316C42.5956 57.2174 43.416 55.7542 44.456 56.2977C45.1666 57.8131 42.9771 57.9228 42.3657 58.9105C42.4754 60.1594 41.216 59.8877 40.3956 59.8877C40.279 59.8984 40.1614 59.8853 40.05 59.8491C39.9386 59.8129 39.8358 59.7544 39.7478 59.6771C39.6598 59.5998 39.5884 59.5055 39.5381 59.3997C39.4877 59.294 39.4595 59.1791 39.455 59.062C38.9638 58.4611 37.9761 58.4088 37.2654 58.0169C37.1371 57.893 37.0521 57.7311 37.0229 57.5551C36.9937 57.3791 37.022 57.1984 37.1034 57.0397C37.9239 56.2245 39.0735 57.416 40.0559 57.5623C40.2754 57.672 40.2754 57.3951 40.3329 57.2331L40.3852 49.8597C40.4949 49.4834 40.8764 49.5931 41.1533 49.4312C41.3049 49.4705 41.442 49.5525 41.5485 49.6673C41.655 49.7821 41.7264 49.925 41.7543 50.0791" fill="#8A8888"/>
</svg>
