<svg width="194" height="72" viewBox="0 0 194 72" fill="none" xmlns="http://www.w3.org/2000/svg">
<g filter="url(#filter0_d)">
<path d="M25.1435 50.287C11.3005 50.287 0 39.0269 0 25.1435C0 11.2601 11.2601 0 25.1435 0C38.9865 0 50.287 11.2601 50.287 25.1435C50.287 39.0269 39.0269 50.287 25.1435 50.287ZM25.1435 1.73542C12.2287 1.73542 1.73545 12.2287 1.73545 25.1435C1.73545 38.0583 12.2287 48.5515 25.1435 48.5515C38.0583 48.5515 48.5516 38.0583 48.5516 25.1435C48.5516 12.2287 38.0583 1.73542 25.1435 1.73542Z" fill="#8A8888"/>
<path d="M7.46648 28.3318L19.9777 21.6726V9.16138L7.46648 15.8206V28.3318Z" fill="#8A8888"/>
<path d="M20.8253 21.6726L45.6862 34.4664C45.888 34.0224 46.0495 33.6188 46.2512 33.1749L20.6235 9.20178L20.8253 21.6726Z" fill="#8A8888"/>
<path d="M45.323 35.2331L20.8252 22.6412V35.112L37.7355 43.8295C40.9642 41.6905 43.5876 38.704 45.323 35.2331Z" fill="#8A8888"/>
<path d="M20.8252 47.26C22.2378 47.5425 23.6907 47.6636 25.184 47.6636C29.462 47.6636 33.4979 46.4528 36.9283 44.3542L20.8656 36.0806V47.26H20.8252Z" fill="#8A8888"/>
<path d="M19.9777 22.6412L7.46648 29.3004V39.0268C7.99114 39.6726 8.51582 40.3183 9.1212 40.8833L19.9777 35.0717V22.6412Z" fill="#8A8888"/>
<path d="M9.72658 41.5694C12.5517 44.2331 16.0629 46.1299 19.9373 47.0582V36.121L9.72658 41.5694Z" fill="#8A8888"/>
<path d="M85.843 4.27567V5.08284H80.5157V44.5537H85.843V45.3609H66.8744V44.5537H72.2018V5.08284H66.8744V4.27567H85.843Z" fill="#8A8888"/>
<path d="M89.9596 5.08515V4.27798H95.2869C97.2645 4.27798 99.2017 4.23762 101.179 4.19726C103.157 4.1569 105.094 4.11655 107.072 4.11655C108.807 4.11655 110.623 4.23762 112.56 4.47977C114.498 4.72193 116.395 5.12551 118.291 5.7309C120.188 6.33628 121.964 7.14345 123.659 8.11206C125.354 9.12103 126.847 10.3721 128.179 11.9058C129.471 13.4394 130.52 15.2556 131.287 17.3946C132.054 19.4932 132.457 21.9955 132.457 24.8206C132.457 27.6457 132.054 30.1076 131.287 32.2062C130.52 34.3049 129.471 36.1614 128.179 37.695C126.888 39.2286 125.435 40.5201 123.78 41.4887C122.125 42.4977 120.39 43.3049 118.614 43.8699C116.838 44.4753 115.063 44.8788 113.287 45.121C111.551 45.3632 109.897 45.4842 108.403 45.4842C106.224 45.4842 104.045 45.4439 101.865 45.4439C99.686 45.4035 97.5066 45.4035 95.3273 45.4035H89.9596V44.5963H95.2869V5.12551H89.9596V5.08515ZM106.708 44.7578C109.211 44.7578 111.35 44.4753 113.125 43.8699C114.901 43.2645 116.395 42.4573 117.605 41.4484C118.816 40.4394 119.785 39.269 120.471 37.9371C121.197 36.6457 121.722 35.2331 122.085 33.8206C122.448 32.3676 122.69 30.9551 122.812 29.5022C122.933 28.0493 122.973 26.7174 122.973 25.4259C122.973 22.3183 122.771 19.4932 122.408 16.9506C122.004 14.4484 121.278 12.269 120.148 10.4932C119.018 8.71744 117.403 7.34523 115.345 6.37663C113.287 5.40802 110.583 4.92372 107.233 4.92372C106.466 4.92372 105.78 4.92371 105.175 4.96407C104.569 4.96407 104.045 5.0448 103.682 5.12551V44.5963C104.731 44.6771 105.78 44.7578 106.708 44.7578Z" fill="#8A8888"/>
<path d="M167.368 4.278V14.1659H166.601C166.399 13.5201 166.076 12.6726 165.632 11.6636C165.188 10.6547 164.542 9.64571 163.695 8.6771C162.847 7.70849 161.798 6.86095 160.507 6.17485C159.215 5.4484 157.601 5.12554 155.704 5.12554H146.542V22.9641H149.771C151.184 22.9641 152.394 22.7623 153.363 22.3587C154.332 21.9551 155.179 21.3901 155.825 20.6233C156.471 19.8565 157.036 18.9686 157.439 17.9192C157.843 16.8699 158.206 15.6592 158.489 14.3677H159.255V32.287H158.489C158.206 31.1569 157.883 30.1076 157.52 29.0583C157.157 28.0089 156.673 27.121 156.067 26.3139C155.462 25.5067 154.695 24.9013 153.807 24.4574C152.919 24.0134 151.789 23.7713 150.417 23.7713H146.542V44.5964H156.027C157.803 44.5964 159.377 44.3138 160.829 43.7085C162.242 43.1031 163.533 42.2555 164.623 41.2062C165.713 40.1165 166.641 38.8654 167.368 37.4125C168.094 35.9596 168.659 34.426 169.022 32.7713H169.789V45.4035H132.901V44.5964H138.229V5.12554H132.901V4.31836H167.368V4.278Z" fill="#8A8888"/>
<path d="M193.601 4.27803V5.0852H188.273V44.556H193.601V45.3632H174.632V44.556H179.96V5.0852H174.632V4.27803H193.601Z" fill="#8A8888"/>
<path d="M5.52926 68.6905C5.04496 68.973 4.39923 69.0941 3.67277 69.0941C2.70416 69.0941 1.93734 68.7712 1.37232 68.1659C0.807296 67.5605 0.484421 66.7129 0.484421 65.704C0.484421 64.6143 0.8073 63.7264 1.45304 63.0806C2.09878 62.4349 2.94632 62.0717 3.95529 62.0717C4.60103 62.0717 5.12569 62.1524 5.56964 62.3542V63.2017C5.08533 62.9192 4.56067 62.7981 3.95529 62.7981C3.18847 62.7981 2.54273 63.0403 2.05842 63.5649C1.57412 64.0896 1.33197 64.7757 1.33197 65.6636C1.33197 66.4708 1.5741 67.1569 2.01805 67.6412C2.46199 68.1255 3.06738 68.3676 3.79384 68.3676C4.47994 68.3676 5.04497 68.2062 5.56964 67.9237V68.6905H5.52926Z" fill="#8A8888"/>
<path d="M9.52479 69.0941C8.55618 69.0941 7.78936 68.7712 7.22434 68.1255C6.65932 67.4797 6.33644 66.6726 6.33644 65.6636C6.33644 64.5739 6.61896 63.686 7.22434 63.0403C7.82972 62.3946 8.59653 62.0717 9.64586 62.0717C10.5741 62.0717 11.3409 62.3945 11.9059 62.9999C12.471 63.6053 12.7535 64.4528 12.7535 65.4618C12.7535 66.5515 12.471 67.4394 11.8656 68.0851C11.2602 68.7309 10.4934 69.0941 9.52479 69.0941ZM9.56514 62.7981C8.83868 62.7981 8.27367 63.0403 7.82972 63.5649C7.38577 64.0896 7.14362 64.7354 7.14362 65.5829C7.14362 66.4304 7.34542 67.0762 7.78937 67.6008C8.23332 68.1255 8.79832 68.3676 9.48442 68.3676C10.2109 68.3676 10.8163 68.1255 11.2602 67.6412C11.7042 67.1569 11.9059 66.4708 11.9059 65.5829C11.9059 64.695 11.7041 64.0089 11.3006 63.5246C10.897 63.0403 10.2916 62.7981 9.56514 62.7981Z" fill="#8A8888"/>
<path d="M19.5741 68.973H18.6055L15.1346 63.5649C15.0539 63.4439 14.9732 63.2824 14.9328 63.121H14.8925C14.9329 63.2824 14.9328 63.5649 14.9328 64.0492V68.9326H14.1257V62.1524H15.175L18.5651 67.4797C18.7266 67.6815 18.8073 67.843 18.8476 67.9237C18.8073 67.7219 18.8073 67.399 18.8073 66.9147V62.1524H19.6145V68.973H19.5741Z" fill="#8A8888"/>
<path d="M21.027 68.7308V67.8026C21.1481 67.8833 21.2692 67.964 21.4306 68.0447C21.5921 68.1255 21.7535 68.1658 21.9149 68.2465C22.0764 68.3273 22.2378 68.3273 22.3992 68.3676C22.5607 68.408 22.7221 68.408 22.8432 68.408C23.3275 68.408 23.6907 68.3273 23.9329 68.1255C24.175 67.9237 24.2961 67.6815 24.2961 67.3587C24.2961 67.1569 24.2557 67.0358 24.175 66.8744C24.0943 66.7129 23.9732 66.6322 23.8521 66.5111C23.7311 66.39 23.5293 66.3093 23.3678 66.1882C23.2064 66.0672 22.9643 65.9865 22.7221 65.8654C22.48 65.7443 22.2781 65.6232 22.0764 65.5021C21.8746 65.3811 21.7131 65.26 21.5517 65.0986C21.3903 64.9371 21.2692 64.7757 21.1885 64.6142C21.1077 64.4528 21.0674 64.2107 21.0674 63.9685C21.0674 63.6456 21.1481 63.4035 21.2692 63.1613C21.3903 62.9192 21.592 62.7577 21.7938 62.5963C21.9956 62.4349 22.2782 62.3542 22.5607 62.2734C22.8432 62.1927 23.1257 62.1524 23.4082 62.1524C24.0943 62.1524 24.5786 62.2331 24.8611 62.3945V63.2824C24.4575 62.9999 23.9329 62.8788 23.3275 62.8788C23.1661 62.8788 22.9642 62.8788 22.8028 62.9192C22.6414 62.9596 22.4799 62.9999 22.3589 63.0806C22.2378 63.1613 22.1167 63.2824 22.036 63.4035C21.9553 63.5246 21.9149 63.686 21.9149 63.8878C21.9149 64.0492 21.9553 64.2107 21.9956 64.3318C22.036 64.4528 22.1571 64.5739 22.2781 64.695C22.3992 64.816 22.5607 64.8968 22.7221 65.0178C22.8835 65.1389 23.1257 65.2196 23.3678 65.3407C23.61 65.4618 23.8521 65.5829 24.0539 65.7039C24.2557 65.825 24.4575 65.9865 24.619 66.1479C24.7804 66.3093 24.9015 66.4708 25.0225 66.6726C25.1436 66.8744 25.184 67.0761 25.184 67.3587C25.184 67.6815 25.1033 67.964 24.9822 68.2062C24.8611 68.4483 24.6593 68.6098 24.4575 68.7712C24.2557 68.9327 23.9732 69.0134 23.6907 69.0941C23.4082 69.1748 23.0853 69.1748 22.7625 69.1748C22.6414 69.1748 22.5203 69.1748 22.3589 69.1344C22.1974 69.0941 22.036 69.0941 21.8746 69.0537C21.7131 69.0133 21.5517 68.973 21.3903 68.9326C21.2288 68.8923 21.1078 68.7712 21.027 68.7308Z" fill="#8A8888"/>
<path d="M30.5114 62.9192H28.5338V68.973H27.7266V62.9192H25.7894V62.1927H30.5114V62.9192Z" fill="#8A8888"/>
<path d="M36.4036 68.973H35.4754L34.3453 67.0761C34.2243 66.9147 34.1436 66.7533 34.0225 66.6322C33.9014 66.5111 33.8207 66.39 33.74 66.3093C33.6592 66.2286 33.5382 66.1883 33.4171 66.1479C33.296 66.1075 33.1749 66.1075 33.0135 66.1075H32.3678V68.973H31.5606V62.1927H33.5785C33.861 62.1927 34.1435 62.2331 34.3857 62.3138C34.6278 62.3945 34.87 62.5156 35.0314 62.6367C35.1929 62.7578 35.3543 62.9595 35.4754 63.2017C35.5965 63.4438 35.6368 63.686 35.6368 64.0089C35.6368 64.251 35.5964 64.4528 35.5157 64.6546C35.435 64.8564 35.3543 65.0178 35.1929 65.1793C35.0314 65.3407 34.9103 65.4618 34.7086 65.5829C34.5068 65.7039 34.305 65.7846 34.1032 65.825C34.2242 65.8654 34.305 65.9461 34.3857 65.9864C34.4664 66.0268 34.5471 66.1075 34.6279 66.2286C34.7086 66.3497 34.7893 66.4304 34.87 66.5111C34.9507 66.5918 35.0314 66.7533 35.1121 66.9147L36.4036 68.973ZM32.3678 62.9192V65.3811H33.4574C33.6592 65.3811 33.8207 65.3407 34.0225 65.3003C34.2243 65.26 34.3453 65.1389 34.4664 65.0582C34.5875 64.9775 34.6682 64.8161 34.7489 64.6546C34.8296 64.4932 34.87 64.2914 34.87 64.0896C34.87 63.7264 34.7489 63.4439 34.5068 63.2421C34.2646 63.0403 33.9417 62.9192 33.4978 62.9192H32.3678Z" fill="#8A8888"/>
<path d="M42.2961 66.269C42.2961 68.1658 41.4485 69.1344 39.7131 69.1344C38.0584 69.1344 37.2512 68.2062 37.2512 66.39V62.2331H38.0584V66.3093C38.0584 67.6815 38.6638 68.408 39.8342 68.408C40.9642 68.408 41.5293 67.7219 41.5293 66.39V62.2331H42.3364V66.269H42.2961Z" fill="#8A8888"/>
<path d="M48.4306 62.1927L46.2109 66.4708V68.973H45.4037V66.4708L43.2243 62.1927H44.1122L45.6459 65.26C45.6459 65.3004 45.7266 65.4214 45.8073 65.6636C45.8476 65.5425 45.888 65.4214 45.9687 65.26L47.5427 62.1927H48.4306Z" fill="#8A8888"/>
<path d="M52.9507 68.973H49.3588V62.1927H52.7893V62.9192H50.1256V65.1793H52.5875V65.9057H50.1256V68.2869H52.9104V68.973H52.9507Z" fill="#8A8888"/>
<path d="M59.731 68.973H58.7624L55.2915 63.5649C55.2108 63.4439 55.1301 63.2824 55.0897 63.121H55.0494C55.0897 63.2824 55.0897 63.5649 55.0897 64.0492V68.9326H54.2826V62.1524H55.3319L58.722 67.4797C58.8835 67.6815 58.9642 67.843 59.0045 67.9237C58.9642 67.7219 58.9642 67.399 58.9642 66.9147V62.1524H59.7714V68.973H59.731Z" fill="#8A8888"/>
<path d="M61.5069 68.973V62.1927H63.3633C65.7445 62.1927 66.9553 63.2824 66.9553 65.5021C66.9553 66.5515 66.6324 67.399 65.9463 68.0447C65.2602 68.6905 64.4127 69.0134 63.2826 69.0134H61.5069V68.973ZM62.314 62.9192V68.2465H63.323C64.2109 68.2465 64.897 68.0044 65.3813 67.5201C65.8656 67.0358 66.1078 66.3497 66.1078 65.5021C66.1078 63.7667 65.1795 62.8788 63.323 62.8788H62.314V62.9192Z" fill="#8A8888"/>
<path d="M71.0314 69.0941C70.0628 69.0941 69.296 68.7712 68.731 68.1255C68.166 67.4797 67.8431 66.6726 67.8431 65.6636C67.8431 64.5739 68.1256 63.686 68.731 63.0403C69.3364 62.3946 70.1032 62.0717 71.1525 62.0717C72.0808 62.0717 72.8476 62.3945 73.4126 62.9999C73.9776 63.6053 74.2601 64.4528 74.2601 65.4618C74.2601 66.5515 73.9776 67.4394 73.3722 68.0851C72.7669 68.7309 72 69.0941 71.0314 69.0941ZM71.0718 62.7981C70.3453 62.7981 69.7803 63.0403 69.3364 63.5649C68.8924 64.0896 68.6503 64.7354 68.6503 65.5829C68.6503 66.4304 68.8521 67.0762 69.296 67.6008C69.7399 68.1255 70.305 68.3676 70.9911 68.3676C71.7175 68.3676 72.3229 68.1255 72.7669 67.6412C73.2108 67.1569 73.4126 66.4708 73.4126 65.5829C73.4126 64.695 73.2108 64.0089 72.8072 63.5246C72.4036 63.0403 71.8386 62.7981 71.0718 62.7981Z" fill="#8A8888"/>
<path d="M83.2199 66.269C83.2199 68.1658 82.3724 69.1344 80.6369 69.1344C78.9822 69.1344 78.175 68.2062 78.175 66.39V62.2331H78.9822V66.3093C78.9822 67.6815 79.5876 68.408 80.758 68.408C81.888 68.408 82.4531 67.7219 82.4531 66.39V62.2331H83.2602V66.269H83.2199Z" fill="#8A8888"/>
<path d="M90.3633 68.973H89.3947L85.9239 63.5649C85.8431 63.4439 85.7624 63.2824 85.7221 63.121H85.6817C85.7221 63.2824 85.7221 63.5649 85.7221 64.0492V68.9326H84.9149V62.1524H85.9642L89.3543 67.4797C89.5158 67.6815 89.5965 67.843 89.6369 67.9237C89.5965 67.7219 89.5965 67.399 89.5965 66.9147V62.1524H90.4037V68.973H90.3633Z" fill="#8A8888"/>
<path d="M101.704 68.973H100.897V64.4125C100.897 64.0492 100.937 63.6053 100.978 63.0806C100.897 63.4035 100.816 63.6053 100.776 63.7264L98.4755 68.9326H98.0719L95.7715 63.7667C95.6907 63.6053 95.6504 63.4035 95.5697 63.0806C95.61 63.3631 95.61 63.8071 95.61 64.4125V68.973H94.8028V62.1927H95.8522L97.9508 66.9147C98.1122 67.2779 98.2333 67.5604 98.2737 67.7219H98.314C98.4351 67.3586 98.5562 67.0761 98.6369 66.8744L100.776 62.1524H101.785V68.973H101.704Z" fill="#8A8888"/>
<path d="M107.112 68.973H103.52V62.1927H106.951V62.9192H104.287V65.1793H106.749V65.9057H104.287V68.2869H107.072V68.973H107.112ZM106.426 60.0537L105.175 61.5873H104.569L105.619 60.0537H106.426Z" fill="#8A8888"/>
<path d="M113.085 68.973H112.117L110.543 66.39C110.502 66.3093 110.462 66.1882 110.381 66.0672C110.341 66.1479 110.3 66.269 110.22 66.39L108.605 68.973H107.637L109.897 65.5829L107.798 62.1927H108.767L110.139 64.5739C110.22 64.7353 110.3 64.8968 110.381 65.0582C110.502 64.8564 110.583 64.695 110.664 64.5739L112.117 62.1927H113.045L110.906 65.5425L113.085 68.973Z" fill="#8A8888"/>
<path d="M114.901 68.973H114.094V62.1927H114.901V68.973Z" fill="#8A8888"/>
<path d="M121.318 68.6905C120.834 68.973 120.188 69.0941 119.462 69.0941C118.493 69.0941 117.726 68.7712 117.161 68.1659C116.596 67.5605 116.273 66.7129 116.273 65.704C116.273 64.6143 116.596 63.7264 117.242 63.0806C117.888 62.4349 118.735 62.0717 119.744 62.0717C120.39 62.0717 120.915 62.1524 121.359 62.3542V63.2017C120.874 62.9192 120.35 62.7981 119.744 62.7981C118.978 62.7981 118.332 63.0403 117.847 63.5649C117.363 64.0896 117.121 64.7757 117.121 65.6636C117.121 66.4708 117.363 67.1569 117.807 67.6412C118.251 68.1255 118.856 68.3676 119.583 68.3676C120.269 68.3676 120.834 68.2062 121.359 67.9237V68.6905H121.318Z" fill="#8A8888"/>
<path d="M125.314 69.0941C124.345 69.0941 123.579 68.7712 123.014 68.1255C122.449 67.4797 122.126 66.6726 122.126 65.6636C122.126 64.5739 122.408 63.686 123.014 63.0403C123.619 62.3946 124.386 62.0717 125.435 62.0717C126.363 62.0717 127.13 62.3945 127.695 62.9999C128.26 63.6053 128.543 64.4528 128.543 65.4618C128.543 66.5515 128.26 67.4394 127.655 68.0851C127.049 68.7309 126.283 69.0941 125.314 69.0941ZM125.354 62.7981C124.628 62.7981 124.063 63.0403 123.619 63.5649C123.175 64.0896 122.933 64.7354 122.933 65.5829C122.933 66.4304 123.135 67.0762 123.579 67.6008C124.023 68.1255 124.588 68.3676 125.274 68.3676C126 68.3676 126.606 68.1255 127.049 67.6412C127.493 67.1569 127.695 66.4708 127.695 65.5829C127.695 64.695 127.493 64.0089 127.09 63.5246C126.686 63.0403 126.081 62.7981 125.354 62.7981Z" fill="#8A8888"/>
<path d="M139.44 68.973H138.632V64.4125C138.632 64.0492 138.673 63.6053 138.713 63.0806C138.632 63.4035 138.552 63.6053 138.511 63.7264L136.211 68.9326H135.807L133.507 63.7667C133.426 63.6053 133.386 63.4035 133.305 63.0806C133.345 63.3631 133.345 63.8071 133.345 64.4125V68.973H132.579V62.1927H133.628L135.727 66.9147C135.888 67.2779 136.009 67.5604 136.049 67.7219H136.09C136.211 67.3586 136.332 67.0761 136.413 66.8744L138.552 62.1524H139.561V68.973H139.44Z" fill="#8A8888"/>
<path d="M144.807 68.973H141.215V62.1927H144.646V62.9192H141.982V65.1793H144.444V65.9057H141.982V68.2869H144.767V68.973H144.807Z" fill="#8A8888"/>
<path d="M148.157 66.5515C148.157 67.3586 147.996 67.964 147.632 68.408C147.269 68.8519 146.825 69.0941 146.26 69.0941C145.978 69.0941 145.776 69.0537 145.614 68.973V68.2062C145.776 68.3272 146.018 68.408 146.26 68.408C146.987 68.408 147.35 67.8026 147.35 66.5918V62.2331H148.157V66.5515Z" fill="#8A8888"/>
<path d="M152.637 69.0941C151.668 69.0941 150.901 68.7712 150.336 68.1255C149.771 67.4797 149.449 66.6726 149.449 65.6636C149.449 64.5739 149.731 63.686 150.336 63.0403C150.942 62.3946 151.709 62.0717 152.758 62.0717C153.686 62.0717 154.453 62.3945 155.018 62.9999C155.583 63.6053 155.866 64.4528 155.866 65.4618C155.866 66.5515 155.583 67.4394 154.978 68.0851C154.372 68.7309 153.605 69.0941 152.637 69.0941ZM152.677 62.7981C151.951 62.7981 151.386 63.0403 150.942 63.5649C150.498 64.0896 150.256 64.7354 150.256 65.5829C150.256 66.4304 150.457 67.0762 150.901 67.6008C151.345 68.1255 151.91 68.3676 152.596 68.3676C153.323 68.3676 153.928 68.1255 154.372 67.6412C154.816 67.1569 155.018 66.4708 155.018 65.5829C155.018 64.695 154.816 64.0089 154.413 63.5246C154.009 63.0403 153.404 62.7981 152.677 62.7981Z" fill="#8A8888"/>
<path d="M162.04 68.973H161.112L159.982 67.0761C159.861 66.9147 159.78 66.7533 159.659 66.6322C159.538 66.5111 159.457 66.39 159.377 66.3093C159.296 66.2286 159.175 66.1883 159.054 66.1479C158.933 66.1075 158.812 66.1075 158.65 66.1075H158.005V68.973H157.197V62.1927H159.215C159.498 62.1927 159.78 62.2331 160.022 62.3138C160.265 62.3945 160.507 62.5156 160.668 62.6367C160.83 62.7578 160.991 62.9595 161.112 63.2017C161.233 63.4438 161.274 63.686 161.274 64.0089C161.274 64.251 161.233 64.4528 161.153 64.6546C161.072 64.8564 160.991 65.0178 160.83 65.1793C160.668 65.3407 160.547 65.4618 160.345 65.5829C160.144 65.7039 159.942 65.7846 159.74 65.825C159.861 65.8654 159.942 65.9461 160.022 65.9864C160.103 66.0268 160.184 66.1075 160.265 66.2286C160.345 66.3497 160.426 66.4304 160.507 66.5111C160.587 66.5918 160.668 66.7533 160.749 66.9147L162.04 68.973ZM158.005 62.9192V65.3811H159.094C159.296 65.3811 159.457 65.3407 159.659 65.3003C159.861 65.26 159.982 65.1389 160.103 65.0582C160.224 64.9775 160.305 64.8161 160.386 64.6546C160.466 64.4932 160.507 64.2914 160.507 64.0896C160.507 63.7264 160.386 63.4439 160.144 63.2421C159.901 63.0403 159.579 62.9192 159.135 62.9192H158.005Z" fill="#8A8888"/>
<path d="M165.551 66.1883H193.601" stroke="#E0E0E0" stroke-width="4" stroke-miterlimit="10"/>
</g>
<defs>
<filter id="filter0_d" x="0" y="0" width="193.601" height="71.1748" filterUnits="userSpaceOnUse" color-interpolation-filters="sRGB">
<feFlood flood-opacity="0" result="BackgroundImageFix"/>
<feColorMatrix in="SourceAlpha" type="matrix" values="0 0 0 0 0 0 0 0 0 0 0 0 0 0 0 0 0 0 127 0"/>
<feOffset dy="2"/>
<feColorMatrix type="matrix" values="0 0 0 0 0 0 0 0 0 0 0 0 0 0 0 0 0 0 0.15 0"/>
<feBlend mode="normal" in2="BackgroundImageFix" result="effect1_dropShadow"/>
<feBlend mode="normal" in="SourceGraphic" in2="effect1_dropShadow" result="shape"/>
</filter>
</defs>
</svg>
