<svg width="144" height="57" viewBox="0 0 144 57" fill="none" xmlns="http://www.w3.org/2000/svg">
<g filter="url(#filter0_d)">
<path d="M21.5581 35.1162C11.8913 35.1162 4 27.2531 4 17.5581C4 7.8631 11.8631 0 21.5581 0C31.225 0 39.1163 7.8631 39.1163 17.5581C39.1163 27.2531 31.2532 35.1162 21.5581 35.1162ZM21.5581 1.21187C12.5395 1.21187 5.21189 8.5395 5.21189 17.5581C5.21189 26.5767 12.5395 33.9044 21.5581 33.9044C30.5768 33.9044 37.9044 26.5767 37.9044 17.5581C37.9044 8.5395 30.5768 1.21187 21.5581 1.21187Z" fill="#E0E0E0"/>
<path d="M9.21399 19.785L17.9508 15.1347V6.39795L9.21399 11.0482V19.785Z" fill="#E0E0E0"/>
<path d="M18.5426 15.1349L35.9034 24.069C36.0443 23.7589 36.1571 23.4771 36.298 23.1671L18.4017 6.42627L18.5426 15.1349Z" fill="#E0E0E0"/>
<path d="M35.6498 24.6047L18.5426 15.8115V24.5201L30.3513 30.6077C32.606 29.114 34.4379 27.0284 35.6498 24.6047Z" fill="#E0E0E0"/>
<path d="M18.5426 33.0025C19.529 33.1998 20.5436 33.2844 21.5864 33.2844C24.5738 33.2844 27.3921 32.4389 29.7877 30.9734L18.5708 25.1958V33.0025H18.5426Z" fill="#E0E0E0"/>
<path d="M17.9508 15.8115L9.21399 20.4617V27.2539C9.58037 27.7048 9.94676 28.1558 10.3695 28.5503L17.9508 24.492V15.8115Z" fill="#E0E0E0"/>
<path d="M10.7923 29.0289C12.7651 30.8889 15.2171 32.2135 17.9226 32.8618V25.2241L10.7923 29.0289Z" fill="#E0E0E0"/>
<path d="M63.9457 2.98682V3.55048H60.2255V31.1136H63.9457V31.6773H50.6996V31.1136H54.4198V3.55048H50.6996V2.98682H63.9457Z" fill="#E0E0E0"/>
<path d="M66.8204 3.55237V2.98871H70.5406C71.9215 2.98871 73.2743 2.96052 74.6553 2.93234C76.0363 2.90415 77.3891 2.87598 78.7701 2.87598C79.9819 2.87598 81.2502 2.96052 82.603 3.12962C83.9558 3.29872 85.2804 3.58056 86.605 4.0033C87.9296 4.42605 89.1696 4.98971 90.3533 5.66611C91.537 6.37069 92.5798 7.24437 93.5098 8.31533C94.4117 9.38629 95.1445 10.6545 95.68 12.1482C96.2154 13.6138 96.4973 15.3611 96.4973 17.3339C96.4973 19.3068 96.2154 21.0259 95.68 22.4915C95.1445 23.957 94.4117 25.2534 93.5098 26.3244C92.608 27.3954 91.5934 28.2972 90.4379 28.9736C89.2824 29.6782 88.0705 30.2419 86.8304 30.6364C85.5904 31.0592 84.3503 31.341 83.1103 31.5101C81.8984 31.6792 80.7429 31.7637 79.7001 31.7637C78.1782 31.7637 76.6563 31.7356 75.1344 31.7356C73.6125 31.7074 72.0906 31.7074 70.5687 31.7074H66.8204V31.1437H70.5406V3.58056H66.8204V3.55237ZM78.5164 31.2565C80.2638 31.2565 81.7575 31.0592 82.9975 30.6364C84.2376 30.2137 85.2804 29.65 86.1259 28.9454C86.9714 28.2408 87.6477 27.4235 88.1269 26.4935C88.6342 25.5916 89.0005 24.6052 89.2542 23.6188C89.5078 22.6042 89.6769 21.6178 89.7615 20.6032C89.846 19.5886 89.8742 18.6586 89.8742 17.7567C89.8742 15.5866 89.7333 13.6138 89.4797 11.8382C89.1978 10.0909 88.6905 8.56898 87.9014 7.32892C87.1123 6.08886 85.9849 5.13062 84.5476 4.45423C83.1103 3.77783 81.222 3.43964 78.8828 3.43964C78.3473 3.43964 77.8682 3.43963 77.4454 3.46782C77.0227 3.46782 76.6563 3.52419 76.4027 3.58056V31.1437C77.1354 31.2001 77.8682 31.2565 78.5164 31.2565Z" fill="#E0E0E0"/>
<path d="M120.876 2.98828V9.89316H120.34C120.199 9.44223 119.974 8.85038 119.664 8.1458C119.354 7.44122 118.903 6.73664 118.311 6.06025C117.719 5.38385 116.986 4.792 116.085 4.31289C115.183 3.80559 114.055 3.58013 112.731 3.58013H106.333V16.0371H108.588C109.574 16.0371 110.42 15.8962 111.096 15.6143C111.773 15.3325 112.364 14.938 112.815 14.4025C113.266 13.867 113.661 13.247 113.943 12.5142C114.224 11.7814 114.478 10.9359 114.675 10.0341H115.211V22.5474H114.675C114.478 21.7583 114.253 21.0255 113.999 20.2928C113.745 19.56 113.407 18.94 112.984 18.3763C112.562 17.8126 112.026 17.3899 111.406 17.0799C110.786 16.7699 109.997 16.6008 109.039 16.6008H106.333V31.1433H112.956C114.196 31.1433 115.295 30.946 116.31 30.5233C117.296 30.1005 118.198 29.5087 118.959 28.7759C119.72 28.0149 120.368 27.1413 120.876 26.1267C121.383 25.1121 121.778 24.0411 122.031 22.8856H122.567V31.707H96.8073V31.1433H100.527V3.58013H96.8073V3.01647H120.876V2.98828Z" fill="#E0E0E0"/>
<path d="M139.195 2.98828V3.55195H135.475V31.1151H139.195V31.6788H125.949V31.1151H129.669V3.55195H125.949V2.98828H139.195Z" fill="#E0E0E0"/>
<path d="M7.86109 47.9678C7.5229 48.165 7.07197 48.2496 6.56467 48.2496C5.88828 48.2496 5.35279 48.0241 4.95823 47.6014C4.56366 47.1786 4.3382 46.5868 4.3382 45.8822C4.3382 45.1212 4.56367 44.5012 5.0146 44.0503C5.46553 43.5994 6.05738 43.3457 6.76196 43.3457C7.21289 43.3457 7.57927 43.4021 7.88929 43.543V44.1348C7.55109 43.9375 7.18471 43.853 6.76196 43.853C6.22648 43.853 5.77555 44.0221 5.43735 44.3885C5.09915 44.7549 4.93005 45.234 4.93005 45.854C4.93005 46.4177 5.09914 46.8968 5.40915 47.235C5.71917 47.5732 6.14192 47.7423 6.64922 47.7423C7.12833 47.7423 7.52291 47.6295 7.88929 47.4323V47.9678H7.86109Z" fill="#E0E0E0"/>
<path d="M10.6511 48.2496C9.9747 48.2496 9.43922 48.0241 9.04466 47.5732C8.65009 47.1223 8.42462 46.5586 8.42462 45.854C8.42462 45.0931 8.62191 44.473 9.04466 44.0221C9.4674 43.5712 10.0029 43.3457 10.7356 43.3457C11.3839 43.3457 11.9193 43.5712 12.3139 43.9939C12.7085 44.4167 12.9058 45.0085 12.9058 45.7131C12.9058 46.474 12.7085 47.0941 12.2857 47.545C11.863 47.9959 11.3275 48.2496 10.6511 48.2496ZM10.6793 43.853C10.172 43.853 9.77742 44.0221 9.4674 44.3885C9.15739 44.7549 8.98829 45.2058 8.98829 45.7976C8.98829 46.3895 9.12921 46.8404 9.43923 47.2068C9.74924 47.5732 10.1438 47.7423 10.6229 47.7423C11.1302 47.7423 11.553 47.5732 11.863 47.235C12.173 46.8968 12.3139 46.4177 12.3139 45.7976C12.3139 45.1776 12.173 44.6985 11.8912 44.3603C11.6093 44.0221 11.1866 43.853 10.6793 43.853Z" fill="#E0E0E0"/>
<path d="M17.6687 48.1653H16.9923L14.5685 44.3888C14.5122 44.3042 14.4558 44.1915 14.4276 44.0787H14.3994C14.4276 44.1915 14.4276 44.3888 14.4276 44.727V48.1371H13.864V43.4023H14.5967L16.9641 47.1225C17.0768 47.2634 17.1332 47.3762 17.1614 47.4325C17.1332 47.2916 17.1332 47.0662 17.1332 46.728V43.4023H17.6969V48.1653H17.6687Z" fill="#E0E0E0"/>
<path d="M18.6834 47.9962V47.348C18.768 47.4044 18.8525 47.4607 18.9652 47.5171C19.078 47.5734 19.1907 47.6016 19.3034 47.658C19.4162 47.7144 19.5289 47.7144 19.6416 47.7426C19.7544 47.7707 19.8671 47.7707 19.9517 47.7707C20.2899 47.7707 20.5435 47.7144 20.7126 47.5735C20.8817 47.4325 20.9662 47.2634 20.9662 47.038C20.9662 46.8971 20.9381 46.8125 20.8817 46.6998C20.8253 46.587 20.7408 46.5307 20.6562 46.4461C20.5717 46.3616 20.4308 46.3052 20.318 46.2207C20.2053 46.1361 20.0362 46.0798 19.8671 45.9952C19.698 45.9107 19.5571 45.8261 19.4162 45.7415C19.2753 45.657 19.1625 45.5724 19.0498 45.4597C18.9371 45.347 18.8525 45.2342 18.7961 45.1215C18.7398 45.0088 18.7116 44.8397 18.7116 44.6706C18.7116 44.4451 18.768 44.276 18.8525 44.1069C18.9371 43.9378 19.078 43.8251 19.2189 43.7124C19.3598 43.5996 19.5571 43.5433 19.7544 43.4869C19.9517 43.4305 20.1489 43.4023 20.3462 43.4023C20.8253 43.4023 21.1635 43.4587 21.3608 43.5714V44.1915C21.079 43.9942 20.7126 43.9096 20.2899 43.9096C20.1771 43.9096 20.0362 43.9096 19.9235 43.9378C19.8107 43.966 19.698 43.9942 19.6135 44.0506C19.5289 44.1069 19.4444 44.1915 19.388 44.276C19.3316 44.3606 19.3034 44.4733 19.3034 44.6142C19.3034 44.727 19.3316 44.8397 19.3598 44.9242C19.388 45.0088 19.4725 45.0933 19.5571 45.1779C19.6416 45.2624 19.7544 45.3188 19.8671 45.4033C19.9798 45.4879 20.1489 45.5443 20.318 45.6288C20.4871 45.7134 20.6562 45.7979 20.7971 45.8825C20.9381 45.967 21.079 46.0798 21.1917 46.1925C21.3044 46.3052 21.389 46.4179 21.4735 46.5589C21.5581 46.6998 21.5863 46.8407 21.5863 47.038C21.5863 47.2634 21.5299 47.4607 21.4454 47.6298C21.3608 47.7989 21.2199 47.9117 21.079 48.0244C20.9381 48.1371 20.7408 48.1935 20.5435 48.2499C20.3462 48.3062 20.1207 48.3062 19.8953 48.3062C19.8107 48.3062 19.7262 48.3062 19.6135 48.278C19.5007 48.2498 19.388 48.2498 19.2753 48.2217C19.1625 48.1935 19.0498 48.1653 18.937 48.1371C18.8243 48.1089 18.7398 48.0244 18.6834 47.9962Z" fill="#E0E0E0"/>
<path d="M25.3064 43.9375H23.9254V48.165H23.3618V43.9375H22.009V43.4302H25.3064V43.9375Z" fill="#E0E0E0"/>
<path d="M29.421 48.165H28.7728L27.9837 46.8404C27.8992 46.7276 27.8428 46.6149 27.7582 46.5303C27.6737 46.4458 27.6173 46.3612 27.561 46.3049C27.5046 46.2485 27.42 46.2203 27.3355 46.1921C27.2509 46.164 27.1664 46.1639 27.0537 46.1639H26.6027V48.165H26.0391V43.4302H27.4482C27.6455 43.4302 27.8428 43.4584 28.0119 43.5147C28.181 43.5711 28.3501 43.6557 28.4628 43.7402C28.5756 43.8248 28.6883 43.9657 28.7728 44.1348C28.8574 44.3039 28.8856 44.473 28.8856 44.6984C28.8856 44.8675 28.8574 45.0084 28.801 45.1494C28.7446 45.2903 28.6883 45.403 28.5755 45.5157C28.4628 45.6285 28.3783 45.713 28.2373 45.7976C28.0964 45.8821 27.9555 45.9385 27.8146 45.9667C27.8991 45.9948 27.9555 46.0512 28.0119 46.0794C28.0683 46.1076 28.1246 46.1639 28.181 46.2485C28.2374 46.333 28.2937 46.3894 28.3501 46.4458C28.4065 46.5021 28.4628 46.6149 28.5192 46.7276L29.421 48.165ZM26.6027 43.9375V45.6567H27.3637C27.5046 45.6567 27.6173 45.6285 27.7582 45.6003C27.8992 45.5721 27.9837 45.4876 28.0683 45.4312C28.1528 45.3748 28.2092 45.2621 28.2655 45.1494C28.3219 45.0366 28.3501 44.8957 28.3501 44.7548C28.3501 44.5011 28.2655 44.3039 28.0964 44.1629C27.9273 44.022 27.7019 43.9375 27.3919 43.9375H26.6027Z" fill="#E0E0E0"/>
<path d="M33.536 46.2763C33.536 47.6009 32.9441 48.2773 31.7322 48.2773C30.5767 48.2773 30.0131 47.6291 30.0131 46.3609V43.458H30.5767V46.3045C30.5767 47.2627 30.9995 47.77 31.8168 47.77C32.6059 47.77 33.0005 47.2909 33.0005 46.3609V43.458H33.5641V46.2763H33.536Z" fill="#E0E0E0"/>
<path d="M37.8199 43.4302L36.2698 46.4176V48.165H35.7061V46.4176L34.1843 43.4302H34.8043L35.8753 45.5721C35.8753 45.6003 35.9316 45.6848 35.988 45.8539C36.0162 45.7694 36.0444 45.6848 36.1007 45.5721L37.1999 43.4302H37.8199Z" fill="#E0E0E0"/>
<path d="M40.9763 48.165H38.468V43.4302H40.8636V43.9375H39.0035V45.5157H40.7227V46.023H39.0035V47.6858H40.9481V48.165H40.9763Z" fill="#E0E0E0"/>
<path d="M45.711 48.1653H45.0347L42.6109 44.3888C42.5545 44.3042 42.4982 44.1915 42.47 44.0787H42.4418C42.47 44.1915 42.47 44.3888 42.47 44.727V48.1371H41.9063V43.4023H42.6391L45.0065 47.1225C45.1192 47.2634 45.1756 47.3762 45.2037 47.4325C45.1756 47.2916 45.1756 47.0662 45.1756 46.728V43.4023H45.7392V48.1653H45.711Z" fill="#E0E0E0"/>
<path d="M46.9512 48.165V43.4302H48.2476C49.9104 43.4302 50.7559 44.1911 50.7559 45.7412C50.7559 46.474 50.5304 47.0658 50.0513 47.5167C49.5722 47.9677 48.9804 48.1931 48.1912 48.1931H46.9512V48.165ZM47.5148 43.9375V47.6577H48.2194C48.8394 47.6577 49.3186 47.4886 49.6568 47.1504C49.9949 46.8122 50.1641 46.333 50.1641 45.7412C50.1641 44.5293 49.5158 43.9093 48.2194 43.9093H47.5148V43.9375Z" fill="#E0E0E0"/>
<path d="M53.6024 48.2496C52.926 48.2496 52.3905 48.0241 51.9959 47.5732C51.6014 47.1223 51.3759 46.5586 51.3759 45.854C51.3759 45.0931 51.5732 44.473 51.9959 44.0221C52.4187 43.5712 52.9542 43.3457 53.6869 43.3457C54.3352 43.3457 54.8706 43.5712 55.2652 43.9939C55.6598 44.4167 55.857 45.0085 55.857 45.7131C55.857 46.474 55.6598 47.0941 55.237 47.545C54.8143 47.9959 54.2788 48.2496 53.6024 48.2496ZM53.6306 43.853C53.1233 43.853 52.7287 44.0221 52.4187 44.3885C52.1087 44.7549 51.9396 45.2058 51.9396 45.7976C51.9396 46.3895 52.0805 46.8404 52.3905 47.2068C52.7005 47.5732 53.0951 47.7423 53.5742 47.7423C54.0815 47.7423 54.5043 47.5732 54.8143 47.235C55.1243 46.8968 55.2652 46.4177 55.2652 45.7976C55.2652 45.1776 55.1243 44.6985 54.8424 44.3603C54.5606 44.0221 54.1661 43.853 53.6306 43.853Z" fill="#E0E0E0"/>
<path d="M62.1137 46.2763C62.1137 47.6009 61.5219 48.2773 60.31 48.2773C59.1545 48.2773 58.5908 47.6291 58.5908 46.3609V43.458H59.1545V46.3045C59.1545 47.2627 59.5772 47.77 60.3946 47.77C61.1837 47.77 61.5782 47.2909 61.5782 46.3609V43.458H62.1419V46.2763H62.1137Z" fill="#E0E0E0"/>
<path d="M67.1022 48.1653H66.4258L64.002 44.3888C63.9456 44.3042 63.8893 44.1915 63.8611 44.0787H63.8329C63.8611 44.1915 63.8611 44.3888 63.8611 44.727V48.1371H63.2974V43.4023H64.0302L66.3976 47.1225C66.5103 47.2634 66.5667 47.3762 66.5949 47.4325C66.5667 47.2916 66.5667 47.0662 66.5667 46.728V43.4023H67.1303V48.1653H67.1022Z" fill="#E0E0E0"/>
<path d="M75.0215 48.1653H74.4579V44.9806C74.4579 44.7269 74.4861 44.4169 74.5142 44.0506C74.4579 44.276 74.4015 44.4169 74.3733 44.5015L72.7669 48.1371H72.485L70.8786 44.5297C70.8222 44.4169 70.7941 44.276 70.7377 44.0506C70.7659 44.2478 70.7659 44.5578 70.7659 44.9806V48.1653H70.2022V43.4305H70.935L72.4005 46.728C72.5132 46.9816 72.5978 47.1789 72.626 47.2916H72.6542C72.7387 47.038 72.8232 46.8407 72.8796 46.6998L74.3733 43.4023H75.0779V48.1653H75.0215Z" fill="#E0E0E0"/>
<path d="M78.7981 48.165H76.2898V43.4302H78.6854V43.9375H76.8253V45.5158H78.5444V46.0231H76.8253V47.6859H78.7699V48.165H78.7981ZM78.319 41.9365L77.4453 43.0075H77.0226L77.7553 41.9365H78.319Z" fill="#E0E0E0"/>
<path d="M82.9692 48.165H82.2928L81.1937 46.3612C81.1655 46.3049 81.1373 46.2203 81.0809 46.1358C81.0528 46.1921 81.0246 46.2767 80.9682 46.3612L79.8409 48.165H79.1645L80.7428 45.7976L79.2772 43.4302H79.9536L80.9119 45.093C80.9682 45.2057 81.0246 45.3185 81.0809 45.4312C81.1655 45.2903 81.2219 45.1775 81.2782 45.093L82.2928 43.4302H82.941L81.4473 45.7694L82.9692 48.165Z" fill="#E0E0E0"/>
<path d="M84.2375 48.165H83.6738V43.4302H84.2375V48.165Z" fill="#E0E0E0"/>
<path d="M88.7186 47.9678C88.3804 48.165 87.9294 48.2496 87.4221 48.2496C86.7457 48.2496 86.2103 48.0241 85.8157 47.6014C85.4211 47.1786 85.1957 46.5868 85.1957 45.8822C85.1957 45.1212 85.4211 44.5012 85.8721 44.0503C86.323 43.5994 86.9148 43.3457 87.6194 43.3457C88.0704 43.3457 88.4367 43.4021 88.7468 43.543V44.1348C88.4086 43.9375 88.0422 43.853 87.6194 43.853C87.0839 43.853 86.633 44.0221 86.2948 44.3885C85.9566 44.7549 85.7875 45.234 85.7875 45.854C85.7875 46.4177 85.9566 46.8968 86.2666 47.235C86.5767 47.5732 86.9994 47.7423 87.5067 47.7423C87.9858 47.7423 88.3804 47.6295 88.7468 47.4323V47.9678H88.7186Z" fill="#E0E0E0"/>
<path d="M91.5087 48.2496C90.8323 48.2496 90.2968 48.0241 89.9023 47.5732C89.5077 47.1223 89.2822 46.5586 89.2822 45.854C89.2822 45.0931 89.4795 44.473 89.9023 44.0221C90.325 43.5712 90.8605 43.3457 91.5933 43.3457C92.2415 43.3457 92.7769 43.5712 93.1715 43.9939C93.5661 44.4167 93.7633 45.0085 93.7633 45.7131C93.7633 46.474 93.5661 47.0941 93.1433 47.545C92.7206 47.9959 92.1851 48.2496 91.5087 48.2496ZM91.5369 43.853C91.0296 43.853 90.635 44.0221 90.325 44.3885C90.015 44.7549 89.8459 45.2058 89.8459 45.7976C89.8459 46.3895 89.9868 46.8404 90.2968 47.2068C90.6068 47.5732 91.0014 47.7423 91.4805 47.7423C91.9878 47.7423 92.4106 47.5732 92.7206 47.235C93.0306 46.8968 93.1715 46.4177 93.1715 45.7976C93.1715 45.1776 93.0306 44.6985 92.7488 44.3603C92.4669 44.0221 92.0442 43.853 91.5369 43.853Z" fill="#E0E0E0"/>
<path d="M101.373 48.1653H100.809V44.9806C100.809 44.7269 100.837 44.4169 100.866 44.0506C100.809 44.276 100.753 44.4169 100.725 44.5015L99.1182 48.1371H98.8363L97.2299 44.5297C97.1735 44.4169 97.1453 44.276 97.089 44.0506C97.1172 44.2478 97.1172 44.5578 97.1172 44.9806V48.1653H96.5817V43.4305H97.3144L98.78 46.728C98.8927 46.9816 98.9772 47.1789 99.0054 47.2916H99.0336C99.1182 47.038 99.2027 46.8407 99.2591 46.6998L100.753 43.4023H101.457V48.1653H101.373Z" fill="#E0E0E0"/>
<path d="M105.121 48.165H102.613V43.4302H105.009V43.9375H103.149V45.5157H104.868V46.023H103.149V47.6858H105.093V48.165H105.121Z" fill="#E0E0E0"/>
<path d="M107.46 46.4736C107.46 47.0373 107.348 47.46 107.094 47.77C106.84 48.08 106.53 48.2491 106.136 48.2491C105.939 48.2491 105.798 48.221 105.685 48.1646V47.6291C105.798 47.7137 105.967 47.77 106.136 47.77C106.643 47.77 106.897 47.3473 106.897 46.5018V43.458H107.46V46.4736Z" fill="#E0E0E0"/>
<path d="M110.589 48.2496C109.912 48.2496 109.377 48.0241 108.982 47.5732C108.588 47.1223 108.362 46.5586 108.362 45.854C108.362 45.0931 108.56 44.473 108.982 44.0221C109.405 43.5712 109.941 43.3457 110.673 43.3457C111.322 43.3457 111.857 43.5712 112.252 43.9939C112.646 44.4167 112.843 45.0085 112.843 45.7131C112.843 46.474 112.646 47.0941 112.223 47.545C111.801 47.9959 111.265 48.2496 110.589 48.2496ZM110.617 43.853C110.11 43.853 109.715 44.0221 109.405 44.3885C109.095 44.7549 108.926 45.2058 108.926 45.7976C108.926 46.3895 109.067 46.8404 109.377 47.2068C109.687 47.5732 110.082 47.7423 110.561 47.7423C111.068 47.7423 111.491 47.5732 111.801 47.235C112.111 46.8968 112.252 46.4177 112.252 45.7976C112.252 45.1776 112.111 44.6985 111.829 44.3603C111.547 44.0221 111.124 43.853 110.617 43.853Z" fill="#E0E0E0"/>
<path d="M117.155 48.165H116.507L115.718 46.8404C115.634 46.7276 115.577 46.6149 115.493 46.5303C115.408 46.4458 115.352 46.3612 115.295 46.3049C115.239 46.2485 115.154 46.2203 115.07 46.1921C114.985 46.164 114.901 46.1639 114.788 46.1639H114.337V48.165H113.773V43.4302H115.183C115.38 43.4302 115.577 43.4584 115.746 43.5147C115.915 43.5711 116.085 43.6557 116.197 43.7402C116.31 43.8248 116.423 43.9657 116.507 44.1348C116.592 44.3039 116.62 44.473 116.62 44.6984C116.62 44.8675 116.592 45.0084 116.535 45.1494C116.479 45.2903 116.423 45.403 116.31 45.5157C116.197 45.6285 116.113 45.713 115.972 45.7976C115.831 45.8821 115.69 45.9385 115.549 45.9667C115.634 45.9948 115.69 46.0512 115.746 46.0794C115.803 46.1076 115.859 46.1639 115.915 46.2485C115.972 46.333 116.028 46.3894 116.085 46.4458C116.141 46.5021 116.197 46.6149 116.254 46.7276L117.155 48.165ZM114.337 43.9375V45.6567H115.098C115.239 45.6567 115.352 45.6285 115.493 45.6003C115.634 45.5721 115.718 45.4876 115.803 45.4312C115.887 45.3748 115.944 45.2621 116 45.1494C116.056 45.0366 116.085 44.8957 116.085 44.7548C116.085 44.5011 116 44.3039 115.831 44.1629C115.662 44.022 115.436 43.9375 115.126 43.9375H114.337Z" fill="#E0E0E0"/>
<path d="M119.607 46.2202H139.195" stroke="#E0E0E0" stroke-width="4" stroke-miterlimit="10"/>
</g>
<defs>
<filter id="filter0_d" x="0" y="0" width="143.195" height="56.3062" filterUnits="userSpaceOnUse" color-interpolation-filters="sRGB">
<feFlood flood-opacity="0" result="BackgroundImageFix"/>
<feColorMatrix in="SourceAlpha" type="matrix" values="0 0 0 0 0 0 0 0 0 0 0 0 0 0 0 0 0 0 127 0"/>
<feOffset dy="4"/>
<feGaussianBlur stdDeviation="2"/>
<feColorMatrix type="matrix" values="0 0 0 0 0 0 0 0 0 0 0 0 0 0 0 0 0 0 0.25 0"/>
<feBlend mode="normal" in2="BackgroundImageFix" result="effect1_dropShadow"/>
<feBlend mode="normal" in="SourceGraphic" in2="effect1_dropShadow" result="shape"/>
</filter>
</defs>
</svg>
