<svg width="123" height="28" viewBox="0 0 123 28" fill="none" xmlns="http://www.w3.org/2000/svg">
<path d="M5.28119 15.3878L0.789754 19.002C0.280959 19.4055 0.000244141 20.0196 0.000244141 20.6687V25.8093C0.000244141 26.9848 0.947655 27.9322 2.12315 27.9322H11.0885C12.264 27.9322 13.2114 26.9848 13.2114 25.8093V20.6687C13.2114 20.0196 12.9131 19.4055 12.4219 19.002L7.94798 15.3878C7.17601 14.7562 6.05315 14.7562 5.28119 15.3878Z" fill="#8A8888"/>
<path d="M20.3694 15.3878L15.8779 19.002C15.3692 19.4055 15.0884 20.0196 15.0884 20.6687V25.8093C15.0884 26.9848 16.0358 27.9322 17.2113 27.9322H26.1767C27.3522 27.9322 28.2996 26.9848 28.2996 25.8093V20.6687C28.2996 20.0196 28.0013 19.4055 27.5101 19.002L23.0362 15.3878C22.2642 14.7562 21.1589 14.7562 20.3694 15.3878Z" fill="#8A8888"/>
<path d="M23.0363 12.563L27.5277 8.94879C28.0365 8.54526 28.3172 7.9312 28.3172 7.28204V2.14146C28.3172 0.965965 27.3698 0.0185547 26.1943 0.0185547H17.229C16.0535 0.0185547 15.1061 0.965965 15.1061 2.14146V7.28204C15.1061 7.9312 15.4043 8.54526 15.8956 8.94879L20.3695 12.563C21.1414 13.1771 22.2468 13.1771 23.0363 12.563Z" fill="#8A8888"/>
<path d="M7.94773 12.562L12.4392 8.94781C12.948 8.54428 13.2287 7.93022 13.2287 7.28107V2.14048C13.2287 0.964988 12.2813 0.0175781 11.1058 0.0175781H2.1229C0.947411 0.0175781 0 0.964988 0 2.14048V7.28107C0 7.93022 0.298259 8.54428 0.78951 8.94781L5.2634 12.5445C6.05291 13.1761 7.15822 13.1761 7.94773 12.562Z" fill="#8A8888"/>
<path d="M32.1595 23.9821V25.5085H34.2824V25.9296H32.1595V27.9297H31.6682V23.561H34.3525V23.9821H32.1595Z" fill="#8A8888"/>
<path d="M35.3703 23.5615V27.9301H34.879V23.5615H35.3703Z" fill="#8A8888"/>
<path d="M39.9317 23.561V27.9296H39.1247L37.3001 24.9646L37.0018 24.4733L36.8614 24.2277L36.7211 23.9821H36.7035V24.14V24.2979V24.6312V27.9296H36.2123V23.561H37.0193L38.6159 26.1576L39.037 26.8419L39.2475 27.1752L39.458 27.5085H39.4756V27.3506V27.1927V26.8594V23.5435H39.9317V23.561Z" fill="#8A8888"/>
<path d="M43.4583 27.0003H41.2477L40.9143 27.9301H40.388L41.9846 23.5615H42.6688L44.3005 27.9301H43.7917L43.4583 27.0003ZM43.3004 26.6318L42.3355 23.9651L41.3705 26.6318H43.3004Z" fill="#8A8888"/>
<path d="M48.4762 23.561V27.9296H47.6691L45.8445 24.9646L45.5462 24.4733L45.4059 24.2277L45.2655 23.9821H45.248V24.14V24.2979V24.6312V27.9296H44.7567V23.561H45.5638L47.1603 26.1576L47.5814 26.8419L47.7919 27.1752L48.0025 27.5085H48.02V27.3506V27.1927V26.8594V23.5435H48.4762V23.561Z" fill="#8A8888"/>
<path d="M52.1781 26.4734H52.6693V26.6313C52.6693 27.2278 52.5641 27.5963 52.3711 27.7542C52.1605 27.8945 51.6517 27.9823 50.8447 27.9823C50.1078 27.9823 49.6517 27.8594 49.4587 27.5963C49.2657 27.3331 49.1604 26.719 49.1604 25.7541C49.1604 24.9997 49.1779 24.526 49.2306 24.333C49.2832 24.14 49.406 23.9645 49.6166 23.8066C49.8622 23.6312 50.4061 23.5435 51.2131 23.5435C51.7746 23.5435 52.143 23.6312 52.336 23.8066C52.529 23.9821 52.6342 24.3154 52.6342 24.8067V24.9295H52.143V24.7891C52.143 24.4382 52.0904 24.2102 51.9675 24.1049C51.8447 23.9996 51.5991 23.947 51.1956 23.947C50.4938 23.947 50.0552 23.9996 49.9148 24.1224C49.7569 24.2452 49.6867 24.561 49.6867 25.1049C49.6867 26.3331 49.7394 27.0524 49.8446 27.2629C49.9499 27.4735 50.3008 27.5787 50.9149 27.5787C51.4938 27.5787 51.8623 27.5261 52.0026 27.4384C52.143 27.3506 52.2132 27.1226 52.2132 26.7541L52.1781 26.4734Z" fill="#8A8888"/>
<path d="M53.7044 23.5615V27.9301H53.2131V23.5615H53.7044Z" fill="#8A8888"/>
<path d="M57.231 27.0003H55.0204L54.687 27.9301H54.1607L55.7573 23.5615H56.4415L58.0732 27.9301H57.5644L57.231 27.0003ZM57.0907 26.6318L56.1257 23.9651L55.1608 26.6318H57.0907Z" fill="#8A8888"/>
<path d="M63.3365 23.5615V27.9301H62.8452V24.4388V24.1756V24.0528V23.93H62.8277L62.7926 24.0352C62.775 24.0879 62.7575 24.123 62.7575 24.1405L62.6698 24.351L61.1785 27.9652H60.6872L59.1959 24.4037L59.1082 24.2107L59.0731 24.1054C59.0556 24.0879 59.0556 24.0528 59.038 24.0001H59.0205V24.123V24.2458V24.4914V27.9828H58.5292V23.6142H59.3889L60.5469 26.4389L60.7399 26.895L60.8276 27.1231L60.9153 27.3512H60.9329L61.0206 27.1231C61.0732 27.0178 61.0908 26.9301 61.1083 26.895L61.3013 26.4389L62.4592 23.6142H63.3365V23.5615Z" fill="#8A8888"/>
<path d="M64.6524 23.5615V27.9301H64.1612V23.5615H64.6524Z" fill="#8A8888"/>
<path d="M65.8103 23.9826V25.4739H68.021V25.895H65.8103V27.5267H68.1262V27.9477H65.3191V23.5791H68.1262V24.0002H65.8103V23.9826Z" fill="#8A8888"/>
<path d="M72.4771 23.561V27.9296H71.67L69.8454 24.9646L69.5471 24.4733L69.4068 24.2277L69.2664 23.9821H69.2489V24.14V24.2979V24.6312V27.9296H68.7576V23.561H69.5647L71.1612 26.1576L71.5823 26.8419L71.7929 27.1752L72.0034 27.5085H72.0209V27.3506V27.1927V26.8594V23.5435H72.4771V23.561Z" fill="#8A8888"/>
<path d="M74.8281 24.0177V27.9301H74.3369V24.0177H72.9158V23.5615H76.2493V24.0177H74.8281Z" fill="#8A8888"/>
<path d="M78.2844 23.5259C79.1089 23.5259 79.6177 23.6487 79.8283 23.8943C80.0388 24.1399 80.1441 24.7365 80.1441 25.7014C80.1441 26.7366 80.0388 27.3857 79.8458 27.6313C79.6528 27.877 79.1265 27.9998 78.2844 27.9998C77.4422 27.9998 76.9334 27.877 76.7229 27.6313C76.5299 27.3857 76.4246 26.7716 76.4246 25.7716V25.4733V25.0523C76.4246 24.4733 76.5474 24.0698 76.8106 23.8592C77.0738 23.6311 77.565 23.5259 78.2844 23.5259ZM78.2844 23.9294C77.6001 23.9294 77.1966 23.9996 77.0738 24.1575C76.951 24.3154 76.8983 24.8417 76.8983 25.7365C76.8983 26.6313 76.951 27.1576 77.0738 27.3155C77.1966 27.4734 77.6001 27.5436 78.2844 27.5436C78.9686 27.5436 79.3897 27.4734 79.4949 27.3155C79.6177 27.1576 79.6704 26.6313 79.6704 25.7365V25.4558V25.0347C79.6704 24.561 79.5827 24.2452 79.4248 24.1224C79.2669 23.9996 78.8809 23.9294 78.2844 23.9294Z" fill="#8A8888"/>
<path d="M84.232 23.5615V27.9301H83.7408V23.5615H84.232Z" fill="#8A8888"/>
<path d="M88.7937 23.561V27.9296H87.9867L86.1621 24.9646L85.8638 24.4733L85.7234 24.2277L85.5831 23.9821H85.5655V24.14V24.2979V24.6312V27.9296H85.0743V23.561H85.8813L87.4779 26.1576L87.899 26.8419L88.1095 27.1752L88.32 27.5085H88.3376V27.3506V27.1927V26.8594V23.5435H88.7937V23.561Z" fill="#8A8888"/>
<path d="M94.4254 23.5615V27.9301H93.9341V24.4388V24.1756V24.0528V23.93H93.9166L93.8815 24.0352C93.864 24.0879 93.8464 24.123 93.8464 24.1405L93.7587 24.351L92.2674 27.9652H91.7762L90.2849 24.4037L90.1971 24.2107L90.162 24.1054C90.1445 24.0879 90.1445 24.0528 90.127 24.0001H90.1094V24.123V24.2458V24.4914V27.9828H89.6182V23.6142H90.4778L91.6358 26.4389L91.8288 26.895L91.9165 27.1231L92.0042 27.3512H92.0218L92.1095 27.1231C92.1621 27.0178 92.1797 26.9301 92.1972 26.895L92.3902 26.4389L93.5482 23.6142H94.4254V23.5615Z" fill="#8A8888"/>
<path d="M96.8468 23.5259C97.6714 23.5259 98.1802 23.6487 98.3907 23.8943C98.6013 24.1399 98.7065 24.7365 98.7065 25.7014C98.7065 26.7366 98.6013 27.3857 98.4083 27.6313C98.2153 27.877 97.6889 27.9998 96.8468 27.9998C96.0046 27.9998 95.4959 27.877 95.2853 27.6313C95.0923 27.3857 94.9871 26.7716 94.9871 25.7716V25.4733V25.0523C94.9871 24.4733 95.1099 24.0698 95.373 23.8592C95.6362 23.6311 96.1275 23.5259 96.8468 23.5259ZM96.8468 23.9294C96.1625 23.9294 95.759 23.9996 95.6362 24.1575C95.5134 24.3154 95.4608 24.8417 95.4608 25.7365C95.4608 26.6313 95.5134 27.1576 95.6362 27.3155C95.759 27.4734 96.1625 27.5436 96.8468 27.5436C97.531 27.5436 97.9521 27.4734 98.0574 27.3155C98.1802 27.1576 98.2328 26.6313 98.2328 25.7365V25.4558V25.0347C98.2328 24.561 98.1451 24.2452 97.9872 24.1224C97.8293 23.9996 97.4433 23.9294 96.8468 23.9294Z" fill="#8A8888"/>
<path d="M99.2679 27.9301V23.5615H101.198C101.724 23.5615 102.075 23.6317 102.25 23.7896C102.408 23.93 102.496 24.2458 102.496 24.7195C102.496 25.2107 102.303 25.509 101.935 25.6318V25.6493C102.391 25.7546 102.636 26.1055 102.636 26.6845C102.636 27.1406 102.549 27.474 102.356 27.667C102.18 27.86 101.864 27.9477 101.408 27.9477H99.2679V27.9301ZM99.7591 25.4914H101.057C101.461 25.4914 101.742 25.4388 101.847 25.3511C101.97 25.2458 102.022 25.0353 102.022 24.7019C102.022 24.4037 101.97 24.2107 101.864 24.123C101.759 24.0352 101.531 24.0001 101.18 24.0001H99.7591V25.4914ZM99.7591 27.5091H100.812H101.25C101.619 27.5091 101.864 27.4564 101.987 27.3687C102.11 27.2634 102.163 27.0705 102.163 26.7547C102.163 26.3687 102.11 26.123 101.987 26.0353C101.864 25.9476 101.549 25.895 101.022 25.895H99.7591V27.5091Z" fill="#8A8888"/>
<path d="M103.794 23.5615V27.9301H103.303V23.5615H103.794Z" fill="#8A8888"/>
<path d="M105.128 23.5615V27.474H107.373V27.9301H104.636V23.5615H105.128Z" fill="#8A8888"/>
<path d="M108.304 23.5615V27.9301H107.812V23.5615H108.304Z" fill="#8A8888"/>
<path d="M111.83 27.0003H109.619L109.286 27.9301H108.759L110.356 23.5615H111.04L112.672 27.9301H112.181L111.83 27.0003ZM111.689 26.6318L110.724 23.9651L109.777 26.6318H111.689Z" fill="#8A8888"/>
<path d="M113.146 27.9301V23.5615H115.216C115.69 23.5615 116.023 23.6492 116.216 23.8422C116.409 24.0352 116.497 24.351 116.497 24.8072C116.497 25.2107 116.444 25.4914 116.339 25.6493C116.233 25.8072 116.04 25.9125 115.742 25.9651V25.9827C116.198 26.0178 116.444 26.2985 116.444 26.8248V27.9477H115.953V26.9301C115.953 26.4213 115.725 26.1581 115.286 26.1581H115.128H113.637V27.9301H113.146ZM113.637 25.7546H115.058C115.426 25.7546 115.69 25.702 115.83 25.5792C115.97 25.4563 116.04 25.2458 116.04 24.93C116.04 24.544 115.988 24.2809 115.883 24.158C115.777 24.0352 115.567 23.9826 115.233 23.9826H113.637V25.7546Z" fill="#8A8888"/>
<path d="M117.707 23.5615V27.9301H117.216V23.5615H117.707Z" fill="#8A8888"/>
<path d="M120.146 23.5259C120.971 23.5259 121.48 23.6487 121.69 23.8943C121.901 24.1399 122.006 24.7365 122.006 25.7014C122.006 26.7366 121.901 27.3857 121.708 27.6313C121.515 27.877 120.988 27.9998 120.146 27.9998C119.304 27.9998 118.795 27.877 118.585 27.6313C118.392 27.3857 118.286 26.7716 118.286 25.7716V25.4733V25.0523C118.286 24.4733 118.409 24.0698 118.672 23.8592C118.953 23.6311 119.427 23.5259 120.146 23.5259ZM120.146 23.9294C119.462 23.9294 119.058 23.9996 118.936 24.1575C118.813 24.3154 118.76 24.8417 118.76 25.7365C118.76 26.6313 118.813 27.1576 118.936 27.3155C119.058 27.4734 119.462 27.5436 120.146 27.5436C120.83 27.5436 121.251 27.4734 121.357 27.3155C121.48 27.1576 121.532 26.6313 121.532 25.7365V25.4558V25.0347C121.532 24.561 121.444 24.2452 121.287 24.1224C121.129 23.9996 120.743 23.9294 120.146 23.9294Z" fill="#8A8888"/>
<path d="M31.6681 21.7028V0H42.3703C45.0371 0 46.8618 0.45616 47.8618 1.38603C48.8619 2.31589 49.3707 3.98264 49.3707 6.38626C49.3707 8.57934 49.125 10.0882 48.6162 10.8777C48.1074 11.6847 47.0898 12.2462 45.5284 12.5444V12.6848C47.932 12.8251 49.1426 14.2287 49.1426 16.8955V21.6852H45.0196V17.7201C45.0196 15.4919 43.9143 14.3691 41.7212 14.3691H35.7911V21.6852H31.6681V21.7028ZM35.7911 10.9303H41.7036C43.1072 10.9303 44.0546 10.6847 44.5108 10.1759C44.9669 9.66711 45.195 8.66707 45.195 7.14068C45.195 5.59675 45.002 4.5967 44.5985 4.14054C44.195 3.68438 43.3353 3.4563 41.9843 3.4563H35.7911V10.9303Z" fill="#8A8888"/>
<path d="M61.5468 16.8442H65.1961V17.4407C65.1961 20.4058 62.9679 21.8971 58.5116 21.8971C55.4939 21.8971 53.5114 21.3883 52.5815 20.3531C51.6516 19.318 51.1779 17.1425 51.1779 13.8265C51.1779 10.8615 51.6692 8.87893 52.6341 7.86134C53.6166 6.84375 55.5115 6.33496 58.3361 6.33496C61.0556 6.33496 62.8627 6.82621 63.7925 7.82626C64.7224 8.80876 65.1786 10.7562 65.1786 13.6686V14.7739H54.8974C54.8798 15.1073 54.8623 15.3354 54.8623 15.4406C54.8623 16.9319 55.0904 17.932 55.5465 18.4232C56.0027 18.9145 56.9326 19.1776 58.3011 19.1776C59.6344 19.1776 60.5117 19.0373 60.9152 18.739C61.3363 18.4408 61.5468 17.8092 61.5468 16.8442ZM61.5644 12.5282L61.5468 11.9317C61.5468 10.7211 61.3363 9.93162 60.9152 9.58072C60.4941 9.21229 59.5818 9.03684 58.1958 9.03684C56.8448 9.03684 55.9501 9.24738 55.5465 9.68599C55.143 10.1246 54.9325 11.072 54.9325 12.5282H61.5644Z" fill="#8A8888"/>
<path d="M71.4419 10.9141H67.7224C67.7224 9.08947 68.1435 7.87889 69.0032 7.26483C69.8453 6.65076 71.5296 6.33496 74.0385 6.33496C76.7755 6.33496 78.6177 6.7034 79.5826 7.45782C80.5476 8.21224 81.0213 9.6509 81.0213 11.7738V21.7041H77.3895L77.565 19.6163L77.4773 19.5987C76.7755 21.1076 75.1614 21.8795 72.6349 21.8795C68.9506 21.8795 67.1259 20.3181 67.1259 17.1951C67.1259 14.0371 69.0032 12.458 72.7753 12.458C75.2842 12.458 76.8106 13.037 77.3545 14.195H77.4246V11.7387C77.4246 10.5457 77.2141 9.77371 76.8106 9.37019C76.3895 8.9842 75.5473 8.79121 74.2666 8.79121C72.3718 8.77367 71.4419 9.493 71.4419 10.9141ZM73.8806 14.8968C71.8279 14.8968 70.7927 15.5985 70.7927 17.0197C70.7927 18.0022 71.0033 18.6513 71.4244 18.9671C71.8454 19.2829 72.7402 19.4233 74.0911 19.4233C76.3018 19.4233 77.4071 18.6689 77.4071 17.1776C77.4246 15.6687 76.2491 14.8968 73.8806 14.8968Z" fill="#8A8888"/>
<path d="M86.495 0V21.7028H82.8633V0H86.495Z" fill="#8A8888"/>
<path d="M91.9691 0.175781V3.21101H88.3198V0.175781H91.9691ZM91.9691 6.68485V21.8785H88.3198V6.68485H91.9691Z" fill="#8A8888"/>
<path d="M94.4252 6.51025H106.268V9.6332L98.1272 18.9319H106.268V21.7039H93.7936V18.5108L101.847 9.28231H94.4252V6.51025Z" fill="#8A8888"/>
<path d="M112.426 10.9141H108.707C108.707 9.08947 109.128 7.87889 109.97 7.26483C110.812 6.65076 112.496 6.33496 115.005 6.33496C117.742 6.33496 119.585 6.7034 120.549 7.45782C121.514 8.21224 121.988 9.6509 121.988 11.7738V21.7041H118.339L118.514 19.6163L118.427 19.5987C117.725 21.1076 116.111 21.8795 113.584 21.8795C109.9 21.8795 108.075 20.3181 108.075 17.1951C108.075 14.0371 109.952 12.458 113.725 12.458C116.233 12.458 117.76 13.037 118.304 14.195H118.374V11.7387C118.374 10.5457 118.163 9.77371 117.76 9.37019C117.339 8.9842 116.497 8.79121 115.216 8.79121C113.339 8.77367 112.426 9.493 112.426 10.9141ZM114.847 14.8968C112.795 14.8968 111.76 15.5985 111.76 17.0197C111.76 18.0022 111.97 18.6513 112.391 18.9671C112.812 19.2829 113.707 19.4233 115.058 19.4233C117.269 19.4233 118.374 18.6689 118.374 17.1776C118.391 15.6687 117.216 14.8968 114.847 14.8968Z" fill="#8A8888"/>
</svg>
