<svg width="67" height="27" viewBox="0 0 67 27" fill="none" xmlns="http://www.w3.org/2000/svg">
<path d="M0 11.9875C9.48286 24.731 27.2514 16.4926 38.4513 15.2009C47.4143 14.1613 57.8896 14.9489 66.9471 20.9032C56.2513 15.9413 44.6104 16.1303 34.4502 18.4459C24.2585 20.7772 6.41117 24.9988 0 11.9875Z" fill="#E0E0E0"/>
<path d="M34.592 19.0445L34.3085 19.1075C29.6301 20.1787 23.66 21.5649 17.6426 21.5491C15.7208 21.5491 13.8936 21.3916 12.2238 21.1081C10.9637 20.8875 9.76648 20.5725 8.64807 20.1787C13.8306 22.2107 20.0055 22.4313 24.8414 21.8642C31.1265 21.1081 36.7974 18.9343 42.8305 18.3514C49.3362 17.7056 55.9994 17.8474 62.7098 19.7534C58.2362 18.2412 53.4317 17.4693 48.328 17.4378C43.9331 17.422 39.3177 17.9576 34.592 19.0445Z" fill="#E0E0E0"/>
<path d="M26.9682 0.0157532L21.707 10.7273C20.6516 9.86092 19.8325 8.7425 19.2811 7.48232C20.7303 6.88374 21.8172 5.51329 21.959 3.90656C22.148 1.76426 20.5571 0.0157532 18.4148 0.0157532H0.157889L0.000366211 1.85877H5.0726L4.19047 11.9717H6.5218L7.40393 1.85877H12.4762L11.594 11.9717H13.9254L14.2877 7.78162H17.1388C18.6195 11.9245 22.5103 14.8071 27.3148 14.8071L27.4881 12.7593C26.1176 12.7593 24.8417 12.4758 23.7075 11.9717L24.8732 9.43561H30.7015L31.4261 11.9717H34.0568L30.2762 0H26.9682V0.0157532ZM17.5641 5.95436H14.4609L14.8232 1.85877H17.9264C19.0606 1.85877 19.8955 2.7724 19.7852 3.90656C19.6907 5.04073 18.6825 5.95436 17.5641 5.95436ZM25.7553 7.60834L28.4962 1.65399L30.1975 7.60834H25.7553Z" fill="#E0E0E0"/>
<path d="M45.5555 0.0157013H36.372L36.1987 1.87447H42.6256L34.7967 10.1287L34.6235 11.9874H44.0433L44.2008 10.1287H37.8054L45.3508 2.17376L45.5555 0.0157013Z" fill="#E0E0E0"/>
<path d="M61.2132 2.22102C57.7478 2.22102 54.6761 5.04067 54.3768 8.50617C54.3295 9.07325 54.361 9.60883 54.4555 10.1287H47.9026L55.4479 2.17376L55.6527 0.0157013H46.4691L46.3116 1.85872H52.7385L44.9097 10.1287L44.7521 11.9717H55.1486C56.1253 13.6572 57.9525 14.7756 60.1421 14.7756C63.6076 14.7756 66.6793 11.9559 66.9786 8.49042C67.2621 5.04068 64.6945 2.22102 61.2132 2.22102ZM64.915 8.50617C64.7102 10.8533 62.6467 12.7435 60.2996 12.7435C57.9525 12.7435 56.2198 10.8375 56.4246 8.50617C56.6293 6.17483 58.6929 4.26881 61.04 4.26881C63.3871 4.26881 65.1198 6.15908 64.915 8.50617Z" fill="#E0E0E0"/>
<path d="M29.3306 23.4236C29.3621 23.3448 29.3936 23.2976 29.4566 23.2976C29.6299 23.2976 29.7402 23.2976 29.8032 23.3133C29.8347 23.3291 29.8662 23.3448 29.8662 23.3921C29.8662 23.4236 29.8504 23.4551 29.8347 23.5181L29.0786 25.6919C29.0471 25.7707 29.0156 25.8337 28.9683 25.8809C28.9211 25.9282 28.8423 25.9439 28.732 25.9439H28.606C28.4957 25.9439 28.417 25.9282 28.3697 25.8809C28.3225 25.8337 28.291 25.7707 28.2595 25.6762L27.5349 23.5181C27.5191 23.4708 27.5034 23.4236 27.5034 23.3921C27.5034 23.3606 27.5191 23.3291 27.5506 23.3133C27.5821 23.2976 27.7081 23.2976 27.9287 23.2976C27.9602 23.2976 27.9917 23.3133 28.0074 23.3291C28.0232 23.3448 28.0389 23.3763 28.0547 23.4236C28.417 24.5577 28.6375 25.2193 28.6848 25.4084C28.732 25.2823 28.9368 24.6208 29.3306 23.4236Z" fill="#E0E0E0"/>
<path d="M30.5909 23.7072C30.5436 23.7544 30.4806 23.7702 30.3861 23.7702C30.2128 23.7702 30.1183 23.6757 30.1183 23.5024C30.1183 23.3134 30.2128 23.2189 30.3861 23.2189C30.4806 23.2189 30.5436 23.2346 30.5909 23.2819C30.6381 23.3291 30.6539 23.3921 30.6539 23.5024C30.6696 23.5969 30.6381 23.6599 30.5909 23.7072ZM30.5436 25.944H30.2285C30.1655 25.944 30.134 25.9125 30.134 25.8337V24.1797C30.134 24.101 30.1655 24.0695 30.2285 24.0695H30.5436C30.6066 24.0695 30.6381 24.101 30.6381 24.1797V25.8495C30.6381 25.9125 30.6066 25.944 30.5436 25.944Z" fill="#E0E0E0"/>
<path d="M32.3078 24.164C32.3393 24.101 32.3708 24.0537 32.4338 24.0537C32.5756 24.0537 32.6858 24.0537 32.7488 24.0695C32.7961 24.0852 32.8276 24.101 32.8276 24.1483C32.8276 24.1798 32.8276 24.2113 32.8118 24.2428L32.2605 25.692C32.229 25.7865 32.1818 25.8495 32.1345 25.881C32.0872 25.9125 32.0242 25.944 31.9297 25.944H31.8037C31.7092 25.944 31.6462 25.9283 31.5989 25.8968C31.5517 25.8653 31.5202 25.8022 31.4886 25.7077L30.9531 24.2743C30.9373 24.227 30.9216 24.1955 30.9216 24.164C30.9216 24.1168 30.9531 24.0852 31.0003 24.0852C31.0633 24.0695 31.1894 24.0695 31.3469 24.0695C31.4099 24.0695 31.4414 24.101 31.4571 24.164C31.6934 24.8571 31.8352 25.2824 31.8667 25.4242C31.9297 25.2824 32.0715 24.8571 32.3078 24.164Z" fill="#E0E0E0"/>
<path d="M33.631 25.4872C33.7098 25.5502 33.82 25.5659 33.9775 25.5659C34.1351 25.5659 34.2768 25.5502 34.3871 25.5187C34.4344 25.5029 34.4816 25.5029 34.4974 25.5029C34.5446 25.5029 34.5604 25.5187 34.5761 25.5659C34.6076 25.6447 34.6234 25.7234 34.6234 25.7864C34.6234 25.8337 34.6076 25.8652 34.5604 25.881C34.4029 25.944 34.1981 25.9755 33.9145 25.9755C33.5837 25.9755 33.3475 25.8967 33.2057 25.7392C33.0639 25.5817 33.0009 25.3454 33.0009 24.9988C33.0009 24.6523 33.0797 24.4002 33.2214 24.2427C33.3632 24.0852 33.5995 24.0064 33.8988 24.0064C34.0406 24.0064 34.1666 24.0222 34.2611 24.0537C34.3556 24.0852 34.4344 24.1325 34.4816 24.1797C34.5289 24.227 34.5761 24.3057 34.6076 24.4002C34.6391 24.4948 34.6549 24.5893 34.6549 24.668C34.6549 24.7468 34.6707 24.8571 34.6707 24.9988C34.6707 25.0618 34.6549 25.1091 34.6234 25.1249C34.6076 25.1406 34.5761 25.1406 34.5446 25.1406H33.5207C33.5207 25.3296 33.5522 25.4399 33.631 25.4872ZM34.1981 24.8098C34.1981 24.7941 34.1981 24.7783 34.1981 24.7468C34.1981 24.6365 34.1823 24.542 34.1351 24.4948C34.0878 24.4475 34.0091 24.416 33.883 24.416C33.757 24.416 33.6625 24.4475 33.6152 24.5105C33.5522 24.5735 33.5365 24.6838 33.5207 24.8256H34.1981V24.8098Z" fill="#E0E0E0"/>
<path d="M36.3876 25.4399C36.4506 25.5187 36.5451 25.5659 36.7026 25.5659C36.8129 25.5659 36.9232 25.5502 37.0177 25.5344C37.0649 25.5187 37.1122 25.5187 37.1279 25.5187C37.1752 25.5187 37.1909 25.5344 37.2067 25.5817C37.2382 25.6762 37.254 25.7392 37.254 25.8022C37.254 25.8495 37.2382 25.881 37.1909 25.8967C37.0492 25.944 36.8759 25.9755 36.6554 25.9755C36.3718 25.9755 36.1513 25.8967 36.0095 25.7549C35.8678 25.6132 35.8047 25.3611 35.8047 25.0146C35.8047 24.668 35.8678 24.4002 36.0095 24.2427C36.1513 24.0852 36.3876 24.0064 36.7184 24.0064C36.8917 24.0064 37.0334 24.0222 37.1594 24.0537C37.2067 24.0694 37.2225 24.101 37.2225 24.1325C37.2225 24.2112 37.2067 24.29 37.1752 24.3845C37.1594 24.4318 37.1437 24.4475 37.0964 24.4475C37.0807 24.4475 37.0649 24.4475 37.0334 24.4475C37.0019 24.4475 36.9862 24.4475 36.9862 24.4475C36.9074 24.4318 36.8286 24.4317 36.7184 24.4317C36.5451 24.4317 36.4348 24.479 36.3718 24.5578C36.3088 24.6523 36.2773 24.7941 36.2773 24.9831C36.2931 25.2194 36.3246 25.3611 36.3876 25.4399Z" fill="#E0E0E0"/>
<path d="M39.0814 25.7707C38.9396 25.9125 38.7191 25.9755 38.3883 25.9755C38.0732 25.9755 37.8527 25.9125 37.7267 25.7707C37.5849 25.6289 37.5219 25.3769 37.5219 24.9988C37.5219 24.8098 37.5377 24.6365 37.5849 24.5105C37.6322 24.3845 37.6952 24.2742 37.774 24.2112C37.8527 24.1482 37.9472 24.101 38.0575 24.0695C38.1678 24.038 38.278 24.0222 38.4198 24.0222C38.5773 24.0222 38.7033 24.038 38.7979 24.0537C38.8924 24.0695 38.9869 24.1167 39.0656 24.1955C39.1444 24.2585 39.2074 24.3688 39.2389 24.4948C39.2704 24.6208 39.2862 24.7941 39.2862 24.9988C39.2862 25.3769 39.2074 25.6289 39.0814 25.7707ZM38.7033 24.5578C38.6561 24.479 38.5458 24.4475 38.404 24.4475C38.2623 24.4475 38.1678 24.479 38.1047 24.5578C38.0417 24.6365 38.0102 24.7783 38.0102 24.9988C38.0102 25.2351 38.0417 25.3926 38.089 25.4557C38.1363 25.5344 38.2465 25.5659 38.3883 25.5659C38.5301 25.5659 38.6403 25.5344 38.6876 25.4557C38.7506 25.3769 38.7663 25.2351 38.7663 24.9988C38.7821 24.7783 38.7663 24.6365 38.7033 24.5578Z" fill="#E0E0E0"/>
<path d="M40.1052 25.944H39.7902C39.7272 25.944 39.6957 25.9125 39.6957 25.8337V24.4003C39.6957 24.29 39.7429 24.227 39.8217 24.1797C40.0895 24.0695 40.3888 24.0222 40.7353 24.0222C40.9716 24.0222 41.1291 24.0852 41.1921 24.1955C41.3339 24.0852 41.5702 24.0222 41.9167 24.0222C42.0743 24.0222 42.2003 24.038 42.279 24.0852C42.3578 24.1167 42.4051 24.1797 42.4366 24.2585C42.4523 24.3215 42.4681 24.4475 42.4681 24.6208V25.8337C42.4681 25.8967 42.4366 25.944 42.3736 25.944H42.0585C41.9955 25.944 41.964 25.9125 41.964 25.8337V24.7311C41.964 24.6523 41.964 24.5893 41.9483 24.542C41.9325 24.4633 41.8537 24.4318 41.712 24.4318C41.6175 24.4318 41.5229 24.4475 41.4284 24.479C41.3969 24.4948 41.3654 24.5105 41.3497 24.5263C41.3339 24.542 41.3339 24.5578 41.3339 24.5893C41.3339 24.5893 41.3339 24.6208 41.3339 24.6523C41.3339 24.6838 41.3339 24.6995 41.3339 24.7153V25.818C41.3339 25.881 41.3024 25.9282 41.2394 25.9282H40.9244C40.8613 25.9282 40.8298 25.8967 40.8298 25.818V24.7153C40.8298 24.6365 40.8298 24.5735 40.8141 24.542C40.7983 24.4948 40.7826 24.479 40.7353 24.4633C40.6881 24.4475 40.6566 24.4318 40.5778 24.4318C40.4675 24.4318 40.373 24.4475 40.2943 24.479C40.247 24.4948 40.2155 24.5105 40.2155 24.542C40.1997 24.5578 40.1997 24.605 40.1997 24.668V25.8337C40.1997 25.9125 40.1682 25.944 40.1052 25.944Z" fill="#E0E0E0"/>
<path d="M44.4529 25.7707C44.3111 25.9125 44.0906 25.9755 43.7598 25.9755C43.4448 25.9755 43.2242 25.9125 43.0982 25.7707C42.9564 25.6289 42.8934 25.3769 42.8934 24.9988C42.8934 24.8098 42.9092 24.6365 42.9564 24.5105C43.0037 24.3845 43.0667 24.2742 43.1455 24.2112C43.2242 24.1482 43.3187 24.101 43.429 24.0695C43.5393 24.038 43.6495 24.0222 43.7913 24.0222C43.9488 24.0222 44.0748 24.038 44.1694 24.0537C44.2639 24.0695 44.3584 24.1167 44.4372 24.1955C44.5159 24.2585 44.5789 24.3688 44.6104 24.4948C44.6419 24.6208 44.6577 24.7941 44.6577 24.9988C44.6577 25.3769 44.5947 25.6289 44.4529 25.7707ZM44.0906 24.5578C44.0433 24.479 43.9331 24.4475 43.7913 24.4475C43.6495 24.4475 43.555 24.479 43.492 24.5578C43.429 24.6365 43.3975 24.7783 43.3975 24.9988C43.3975 25.2351 43.429 25.3926 43.4763 25.4557C43.5235 25.5344 43.6338 25.5659 43.7756 25.5659C43.9173 25.5659 44.0276 25.5344 44.0749 25.4557C44.1379 25.3769 44.1536 25.2351 44.1536 24.9988C44.1694 24.7783 44.1379 24.6365 44.0906 24.5578Z" fill="#E0E0E0"/>
<path d="M46.4376 25.4714C46.4691 25.5187 46.5321 25.5659 46.6424 25.5817C46.6897 25.5817 46.7212 25.629 46.7212 25.6762C46.7212 25.755 46.7212 25.818 46.7054 25.8652C46.6897 25.9283 46.6581 25.944 46.5794 25.944C46.4061 25.944 46.2801 25.9283 46.1856 25.8967C46.0911 25.8652 46.0281 25.8022 45.9808 25.7235C45.9335 25.629 45.902 25.4872 45.902 25.2982V23.2661C45.902 23.2031 45.9335 23.1559 45.9966 23.1559H46.3116C46.3431 23.1559 46.3746 23.1716 46.3746 23.1874C46.3904 23.2031 46.3904 23.2346 46.3904 23.2661V25.2352C46.4061 25.3454 46.4061 25.4242 46.4376 25.4714Z" fill="#E0E0E0"/>
<path d="M48.4854 25.7707C48.3436 25.9125 48.1231 25.9755 47.7923 25.9755C47.4772 25.9755 47.2567 25.9125 47.1307 25.7707C47.0047 25.6289 46.9259 25.3769 46.9259 24.9988C46.9259 24.8098 46.9417 24.6365 46.9889 24.5105C47.0362 24.3845 47.0992 24.2742 47.1779 24.2112C47.2567 24.1482 47.3512 24.101 47.4615 24.0695C47.556 24.038 47.682 24.0222 47.8238 24.0222C47.9813 24.0222 48.1073 24.038 48.2018 24.0537C48.2964 24.0695 48.3909 24.1167 48.4696 24.1955C48.5484 24.2585 48.6114 24.3688 48.6429 24.4948C48.6744 24.6208 48.6902 24.7941 48.6902 24.9988C48.6902 25.3769 48.6272 25.6289 48.4854 25.7707ZM48.1231 24.5578C48.0758 24.479 47.9656 24.4475 47.8238 24.4475C47.682 24.4475 47.5875 24.479 47.5245 24.5578C47.4615 24.6365 47.43 24.7783 47.43 24.9988C47.43 25.2351 47.4615 25.3926 47.5087 25.4557C47.556 25.5344 47.6663 25.5659 47.808 25.5659C47.9498 25.5659 48.0601 25.5344 48.1073 25.4557C48.1703 25.3769 48.1861 25.2351 48.1861 24.9988C48.1861 24.7783 48.1703 24.6365 48.1231 24.5578Z" fill="#E0E0E0"/>
<path d="M50.3756 23.7072C50.3284 23.7544 50.2654 23.7702 50.1709 23.7702C49.9976 23.7702 49.9031 23.6757 49.9031 23.5024C49.9031 23.3134 49.9976 23.2189 50.1709 23.2189C50.2654 23.2189 50.3284 23.2346 50.3756 23.2819C50.4229 23.3291 50.4386 23.3921 50.4386 23.5024C50.4386 23.5969 50.4229 23.6599 50.3756 23.7072ZM50.3284 25.944H50.0133C49.9503 25.944 49.9188 25.9125 49.9188 25.8337V24.1797C49.9188 24.101 49.9503 24.0695 50.0133 24.0695H50.3284C50.3914 24.0695 50.4229 24.101 50.4229 24.1797V25.8495C50.4229 25.9125 50.3914 25.944 50.3284 25.944Z" fill="#E0E0E0"/>
<path d="M51.3367 25.944H51.0216C50.9586 25.944 50.9271 25.9125 50.9271 25.8337V24.4003C50.9271 24.29 50.9744 24.227 51.0531 24.1797C51.3209 24.0695 51.6202 24.0222 51.9668 24.0222C52.2031 24.0222 52.3606 24.0852 52.4236 24.1955C52.5654 24.0852 52.8016 24.0222 53.1482 24.0222C53.3057 24.0222 53.4317 24.038 53.5105 24.0852C53.5893 24.1167 53.6365 24.1797 53.668 24.2585C53.6838 24.3215 53.6995 24.4475 53.6995 24.6208V25.8337C53.6995 25.8967 53.668 25.944 53.605 25.944H53.29C53.227 25.944 53.1954 25.9125 53.1954 25.8337V24.7311C53.1954 24.6523 53.1954 24.5893 53.1797 24.542C53.1639 24.4633 53.0852 24.4318 52.9434 24.4318C52.8489 24.4318 52.7544 24.4475 52.6599 24.479C52.6284 24.4948 52.5969 24.5105 52.5811 24.5263C52.5654 24.542 52.5654 24.5578 52.5654 24.5893C52.5654 24.5893 52.5654 24.6208 52.5654 24.6523C52.5654 24.6838 52.5654 24.6995 52.5654 24.7153V25.818C52.5654 25.881 52.5339 25.9282 52.4708 25.9282H52.1558C52.0928 25.9282 52.0613 25.8967 52.0613 25.818V24.7153C52.0613 24.6365 52.0613 24.5735 52.0455 24.542C52.0298 24.4948 52.014 24.479 51.9668 24.4633C51.9195 24.4475 51.888 24.4318 51.8092 24.4318C51.699 24.4318 51.6045 24.4475 51.5257 24.479C51.4785 24.4948 51.4469 24.5105 51.4469 24.542C51.4312 24.5578 51.4312 24.605 51.4312 24.668V25.8337C51.4312 25.9125 51.3997 25.944 51.3367 25.944Z" fill="#E0E0E0"/>
<path d="M55.7 25.8022C55.6685 25.8495 55.6212 25.8652 55.574 25.881C55.4952 25.9125 55.3849 25.9282 55.2432 25.9597C55.1014 25.9755 54.9596 25.9912 54.8336 25.9912C54.5658 25.9912 54.3768 25.944 54.2823 25.8337C54.1878 25.7234 54.1248 25.5817 54.1248 25.3926C54.1248 25.1721 54.1878 25.0303 54.3295 24.9358C54.4398 24.8571 54.6446 24.8098 54.9281 24.8098C55.0541 24.8098 55.1644 24.8098 55.2589 24.8256V24.7311C55.2589 24.6523 55.2589 24.5893 55.2432 24.5578C55.2117 24.479 55.1014 24.4475 54.9281 24.4475C54.8179 24.4475 54.6918 24.4633 54.5501 24.479C54.4556 24.4948 54.3925 24.4948 54.3925 24.4948C54.3453 24.4948 54.3295 24.479 54.3138 24.4318C54.2823 24.3372 54.2823 24.2585 54.2823 24.2112C54.2823 24.1482 54.3138 24.1167 54.361 24.101C54.5343 24.038 54.7548 24.0222 55.0069 24.0222C55.3219 24.0222 55.5267 24.0695 55.637 24.1797C55.7315 24.2742 55.763 24.4318 55.763 24.668V25.6132C55.7472 25.7077 55.7315 25.755 55.7 25.8022ZM54.9754 25.1406C54.8179 25.1406 54.7076 25.1564 54.6603 25.2036C54.6131 25.2351 54.5973 25.2981 54.5973 25.3769C54.5973 25.4557 54.6131 25.5187 54.6603 25.5502C54.7076 25.5974 54.7706 25.6132 54.8809 25.6132C55.0069 25.6132 55.1172 25.5974 55.1802 25.5659C55.2117 25.5502 55.2274 25.5344 55.2432 25.5029C55.2432 25.4872 55.2589 25.4399 55.2589 25.3769V25.1564C55.1487 25.1564 55.0541 25.1406 54.9754 25.1406Z" fill="#E0E0E0"/>
<path d="M56.976 25.9912C56.6924 25.9912 56.4719 25.9282 56.3459 25.7865C56.2199 25.6447 56.1569 25.4084 56.1569 25.0461C56.1569 24.6523 56.2199 24.3845 56.3616 24.2427C56.5034 24.101 56.7239 24.0222 57.0547 24.0222C57.354 24.0222 57.5903 24.0537 57.7636 24.101C57.8423 24.1325 57.8896 24.1955 57.8896 24.29V25.755C57.8896 25.9755 57.8738 26.1488 57.8423 26.259C57.7951 26.448 57.6533 26.5898 57.4485 26.6843C57.228 26.7788 56.9287 26.8104 56.5507 26.8104C56.4719 26.8104 56.4246 26.7788 56.4246 26.7158C56.4089 26.6371 56.4089 26.5741 56.4089 26.5268C56.4089 26.448 56.4404 26.4008 56.5192 26.4008C56.7869 26.385 56.9917 26.3693 57.102 26.3378C57.2123 26.3063 57.291 26.259 57.3383 26.2118C57.3855 26.1488 57.4013 26.07 57.4013 25.9755V25.9282C57.291 25.9597 57.1492 25.9912 56.976 25.9912ZM57.3698 24.5735C57.3698 24.5105 57.354 24.479 57.3225 24.4633C57.2753 24.4475 57.1965 24.4318 57.0862 24.4318C56.913 24.4318 56.7869 24.479 56.7397 24.5578C56.6924 24.6365 56.6609 24.7941 56.6609 25.0303C56.6609 25.2194 56.6924 25.3611 56.7397 25.4399C56.7869 25.5187 56.8815 25.5659 57.0232 25.5659C57.1493 25.5659 57.2595 25.5502 57.3225 25.5187C57.354 25.5029 57.3698 25.4872 57.3855 25.4714C57.3855 25.4557 57.3855 25.4399 57.3855 25.3926V24.5735H57.3698Z" fill="#E0E0E0"/>
<path d="M58.8346 23.7072C58.7873 23.7544 58.7243 23.7702 58.6298 23.7702C58.4565 23.7702 58.362 23.6757 58.362 23.5024C58.362 23.3134 58.4565 23.2189 58.6298 23.2189C58.7243 23.2189 58.7873 23.2346 58.8346 23.2819C58.8818 23.3291 58.8976 23.3921 58.8976 23.5024C58.8976 23.5969 58.8818 23.6599 58.8346 23.7072ZM58.7873 25.944H58.4723C58.4092 25.944 58.3777 25.9125 58.3777 25.8337V24.1797C58.3777 24.101 58.4092 24.0695 58.4723 24.0695H58.7873C58.8503 24.0695 58.8818 24.101 58.8818 24.1797V25.8495C58.8818 25.9125 58.8503 25.944 58.7873 25.944Z" fill="#E0E0E0"/>
<path d="M59.7955 25.944H59.4804C59.4174 25.944 59.3859 25.9125 59.3859 25.8337V24.4002C59.3859 24.2742 59.4332 24.2112 59.5119 24.164C59.6222 24.1167 59.764 24.0852 59.953 24.0537C60.142 24.0222 60.3153 24.0064 60.4728 24.0064C60.6461 24.0064 60.7721 24.0222 60.8509 24.0694C60.9296 24.101 60.9926 24.164 61.0242 24.2427C61.0557 24.3215 61.0557 24.4318 61.0557 24.605V25.8179C61.0557 25.881 61.0242 25.9282 60.9612 25.9282H60.6461C60.5831 25.9282 60.5516 25.8967 60.5516 25.8179V24.7153C60.5516 24.6365 60.5516 24.5735 60.5358 24.5263C60.5201 24.4475 60.4413 24.416 60.2996 24.416C60.1578 24.416 60.0475 24.4318 59.9688 24.4633C59.9372 24.479 59.9057 24.4948 59.9057 24.5105C59.89 24.5263 59.8742 24.5578 59.8742 24.605V25.8179C59.89 25.9125 59.8585 25.944 59.7955 25.944Z" fill="#E0E0E0"/>
<path d="M63.0563 25.8022C63.0248 25.8495 62.9775 25.8652 62.9303 25.881C62.8515 25.9125 62.7413 25.9282 62.5995 25.9597C62.4577 25.9755 62.3159 25.9912 62.1899 25.9912C61.9221 25.9912 61.7331 25.944 61.6386 25.8337C61.5441 25.7234 61.4811 25.5817 61.4811 25.3926C61.4811 25.1721 61.5441 25.0303 61.6859 24.9358C61.7961 24.8571 62.0009 24.8098 62.2844 24.8098C62.4105 24.8098 62.5207 24.8098 62.6152 24.8256V24.7311C62.6152 24.6523 62.6152 24.5893 62.5995 24.5578C62.568 24.479 62.4577 24.4475 62.2844 24.4475C62.1742 24.4475 62.0482 24.4633 61.9064 24.479C61.8119 24.4948 61.7489 24.4948 61.7489 24.4948C61.7016 24.4948 61.6859 24.479 61.6701 24.4318C61.6386 24.3372 61.6386 24.2585 61.6386 24.2112C61.6386 24.1482 61.6701 24.1167 61.7174 24.101C61.8906 24.038 62.1112 24.0222 62.3632 24.0222C62.6782 24.0222 62.883 24.0695 62.9933 24.1797C63.0878 24.2742 63.1193 24.4318 63.1193 24.668V25.6132C63.1036 25.7077 63.0878 25.755 63.0563 25.8022ZM62.3317 25.1406C62.1742 25.1406 62.0639 25.1564 62.0167 25.2036C61.9694 25.2351 61.9536 25.2981 61.9536 25.3769C61.9536 25.4557 61.9694 25.5187 62.0167 25.5502C62.0639 25.5974 62.1269 25.6132 62.2372 25.6132C62.3632 25.6132 62.4735 25.5974 62.5365 25.5659C62.568 25.5502 62.5837 25.5344 62.5995 25.5029C62.5995 25.4872 62.6152 25.4399 62.6152 25.3769V25.1564C62.505 25.1564 62.4105 25.1406 62.3317 25.1406Z" fill="#E0E0E0"/>
<path d="M63.97 25.1721C63.8124 25.1249 63.6864 25.0618 63.6077 24.9831C63.5289 24.9043 63.4816 24.7783 63.4816 24.605C63.4816 24.2112 63.7337 24.0222 64.2377 24.0222C64.474 24.0222 64.6631 24.038 64.7891 24.0852C64.8363 24.101 64.8678 24.1325 64.8678 24.1797C64.8678 24.2112 64.8521 24.29 64.8206 24.416C64.8206 24.4633 64.7891 24.479 64.7418 24.479C64.7418 24.479 64.6946 24.479 64.6473 24.4633C64.5213 24.4318 64.3795 24.416 64.2377 24.416C64.1432 24.416 64.0802 24.4318 64.0487 24.4633C64.0172 24.4948 64.0015 24.5263 64.0015 24.5893C64.0015 24.6365 64.0172 24.668 64.033 24.6838C64.0645 24.6995 64.1117 24.7311 64.2062 24.7626L64.4583 24.8256C64.6473 24.8728 64.7733 24.9358 64.8363 25.0146C64.8993 25.0934 64.9466 25.2194 64.9466 25.3769C64.9466 25.7707 64.6946 25.9597 64.1747 25.9597C63.8754 25.9597 63.6707 25.9282 63.5131 25.8652C63.4659 25.8495 63.4501 25.818 63.4501 25.7707C63.4501 25.7392 63.4659 25.6762 63.5131 25.5344C63.5289 25.4872 63.5604 25.4557 63.6077 25.4557C63.6234 25.4557 63.6549 25.4714 63.7179 25.4872C63.8597 25.5344 64.0172 25.5502 64.2062 25.5502C64.3795 25.5502 64.474 25.4872 64.474 25.3769C64.474 25.3296 64.4583 25.3139 64.4425 25.2824C64.411 25.2666 64.3638 25.2351 64.2693 25.2194L63.97 25.1721Z" fill="#E0E0E0"/>
</svg>
