<svg width="122" height="49" viewBox="0 0 122 49" fill="none" xmlns="http://www.w3.org/2000/svg">
<path d="M0 21.7993C17.2673 45.004 49.622 30.0027 70.0157 27.6506C86.3365 25.7575 105.411 27.1917 121.904 38.034C102.428 28.9987 81.2309 29.3429 62.7302 33.5594C44.2008 37.8045 11.6741 45.5203 0 21.7993Z" fill="#00A94F"/>
<path d="M62.9883 34.678L62.472 34.7928C53.9531 36.7432 43.0822 39.2673 32.1252 39.2387C28.6258 39.2387 25.2986 38.9518 22.2582 38.4355C19.9635 38.034 17.7836 37.4603 15.7471 36.7432C25.1839 40.4434 36.4277 40.8449 45.2334 39.8123C56.678 38.4355 67.004 34.4772 77.9897 33.416C89.8358 32.24 101.969 32.4981 114.188 35.9688C106.042 33.2152 97.2935 31.8097 88.0001 31.7523C79.9975 31.7237 71.5933 32.6702 62.9883 34.678Z" fill="#D0D2D3"/>
<path d="M49.1057 0.028685L39.5255 19.5333C37.6037 17.9557 36.1122 15.9192 35.1083 13.6245C37.7471 12.5346 39.7263 10.0391 39.9844 7.11344C40.3286 3.21252 37.4316 0.028685 33.5307 0.028685H0.286832L0 3.38462H9.236L7.62974 21.7992H11.8749L13.4811 3.38462H22.7171L21.1109 21.7992H25.356L26.0157 14.1695H31.2073C33.9036 21.7132 40.9883 26.9622 49.7367 26.9622L50.0522 23.2334C47.5568 23.2334 45.2334 22.7171 43.1682 21.7992L45.2908 17.1812H55.9036L57.223 21.7992H62.0131L55.1292 0H49.1057V0.028685ZM31.9818 10.8423H26.3312L26.9909 3.38462H32.6415C34.7067 3.38462 36.2269 5.04825 36.0261 7.11344C35.854 9.17863 34.047 10.8423 31.9818 10.8423ZM46.8971 13.8253L51.8879 2.98306L54.9857 13.8253H46.8971Z" fill="#00A94F"/>
<path d="M82.9518 0.0286865H66.2295L65.914 3.38462H77.6167L63.3612 18.4433L63.0457 21.7992H80.1982L80.5137 18.4433H68.8397L82.5789 3.92961L82.9518 0.0286865Z" fill="#00A94F"/>
<path d="M111.463 4.01565C105.153 4.01565 99.5594 9.14995 99.0145 15.4603C98.9284 16.4929 98.9858 17.4681 99.1579 18.4146H87.2257L100.965 3.9296L101.338 0H84.6155L84.3287 3.35594H96.0314L81.7758 18.4146L81.489 21.7706H100.42C102.198 24.8397 105.526 26.8762 109.513 26.8762C115.823 26.8762 121.416 21.7419 121.961 15.4316C122.477 9.14995 117.802 4.01565 111.463 4.01565ZM118.204 15.4603C117.831 19.7341 114.073 23.176 109.799 23.176C105.526 23.176 102.37 19.7054 102.743 15.4603C103.116 11.2151 106.874 7.74447 111.147 7.74447C115.421 7.74447 118.576 11.2151 118.204 15.4603Z" fill="#00A94F"/>
<path d="M53.437 42.652C53.4944 42.5085 53.5517 42.4225 53.6665 42.4225C53.982 42.4225 54.1828 42.4225 54.2975 42.4512C54.3549 42.4799 54.4122 42.5085 54.4122 42.5946C54.4122 42.652 54.3835 42.7093 54.3549 42.8241L52.9781 46.7823C52.9207 46.9258 52.8633 47.0405 52.7773 47.1265C52.6912 47.2126 52.5478 47.2413 52.347 47.2413H52.0889C51.8881 47.2413 51.7447 47.2126 51.6586 47.1265C51.5726 47.0405 51.5152 46.9258 51.4578 46.7537L50.1384 42.8241C50.1097 42.738 50.0811 42.652 50.0811 42.5946C50.0811 42.5372 50.1097 42.4799 50.1671 42.4512C50.2245 42.4225 50.4539 42.4225 50.8555 42.4225C50.9129 42.4225 50.9702 42.4512 50.9989 42.4799C51.0276 42.5085 51.0563 42.5659 51.085 42.652C51.7447 44.7171 52.1462 45.9218 52.2323 46.266C52.3183 46.0366 52.6912 44.8319 53.437 42.652Z" fill="#00A94F"/>
<path d="M55.703 43.1682C55.617 43.2543 55.5022 43.283 55.3301 43.283C55.0146 43.283 54.8425 43.1109 54.8425 42.7954C54.8425 42.4512 55.0146 42.2791 55.3301 42.2791C55.5022 42.2791 55.617 42.3077 55.703 42.3938C55.7891 42.4798 55.8178 42.5946 55.8178 42.7954C55.8464 42.9388 55.7891 43.0822 55.703 43.1682ZM55.617 47.2126H55.0433C54.9286 47.2126 54.8712 47.1552 54.8712 47.0118V44C54.8712 43.8566 54.9286 43.7993 55.0433 43.7993H55.617C55.7317 43.7993 55.7891 43.8566 55.7891 44V47.0405C55.8178 47.1552 55.7604 47.2126 55.617 47.2126Z" fill="#00A94F"/>
<path d="M58.8293 44C58.8867 43.8853 58.944 43.7993 59.0588 43.7993C59.3169 43.7993 59.5177 43.7993 59.6324 43.8279C59.7185 43.8566 59.7758 43.8853 59.7758 43.9714C59.7758 44.0287 59.7758 44.0861 59.7472 44.1434L58.7432 46.7823C58.6859 46.9544 58.5998 47.0691 58.5138 47.1265C58.4277 47.1839 58.313 47.2412 58.1409 47.2412H57.9114C57.7393 47.2412 57.6246 47.2126 57.5386 47.1552C57.4525 47.0978 57.3951 46.9831 57.3378 46.811L56.3625 44.2008C56.3339 44.1148 56.3052 44.0574 56.3052 44C56.3052 43.914 56.3625 43.8566 56.4486 43.8566C56.5633 43.8279 56.7928 43.8279 57.0796 43.8279C57.1944 43.8279 57.2517 43.8853 57.2804 44C57.7107 45.2621 57.9688 46.0365 58.0262 46.2947C58.1409 46.0079 58.399 45.2334 58.8293 44Z" fill="#00A94F"/>
<path d="M61.2389 46.4094C61.3823 46.5242 61.5831 46.5528 61.8699 46.5528C62.1567 46.5528 62.4149 46.5242 62.6157 46.4668C62.7017 46.4381 62.7878 46.4381 62.8165 46.4381C62.9025 46.4381 62.9312 46.4668 62.9599 46.5528C63.0172 46.6963 63.0459 46.8397 63.0459 46.9544C63.0459 47.0405 63.0172 47.0978 62.9312 47.1265C62.6444 47.2412 62.2715 47.2986 61.7552 47.2986C61.1528 47.2986 60.7226 47.1552 60.4644 46.8684C60.2063 46.5815 60.0916 46.1513 60.0916 45.5202C60.0916 44.8892 60.235 44.4303 60.4931 44.1434C60.7513 43.8566 61.1815 43.7132 61.7265 43.7132C61.9846 43.7132 62.2141 43.7419 62.3862 43.7993C62.5583 43.8566 62.7017 43.9427 62.7878 44.0287C62.8738 44.1148 62.9599 44.2582 63.0172 44.4303C63.0746 44.6024 63.1033 44.7745 63.1033 44.9179C63.1033 45.0613 63.132 45.2621 63.132 45.5202C63.132 45.635 63.1033 45.721 63.0459 45.7497C63.0172 45.7784 62.9599 45.7784 62.9025 45.7784H61.0381C61.0381 46.0939 61.0955 46.2947 61.2389 46.4094ZM62.2715 45.1474C62.2715 45.1187 62.2715 45.09 62.2715 45.0326C62.2715 44.8318 62.2428 44.6597 62.1567 44.5737C62.0707 44.4876 61.9273 44.4303 61.6978 44.4303C61.4683 44.4303 61.2962 44.4876 61.2102 44.6024C61.0955 44.7171 61.0668 44.9179 61.0381 45.176H62.2715V45.1474Z" fill="#00A94F"/>
<path d="M66.2583 46.3234C66.373 46.4668 66.5451 46.5528 66.832 46.5528C67.0327 46.5528 67.2335 46.5242 67.4056 46.4955C67.4917 46.4668 67.5777 46.4668 67.6064 46.4668C67.6925 46.4668 67.7211 46.4955 67.7498 46.5815C67.8072 46.7536 67.8359 46.8684 67.8359 46.9831C67.8359 47.0691 67.8072 47.1265 67.7211 47.1552C67.463 47.2412 67.1475 47.2986 66.7459 47.2986C66.2296 47.2986 65.828 47.1552 65.5699 46.897C65.3118 46.6389 65.197 46.18 65.197 45.5489C65.197 44.9179 65.3118 44.4303 65.5699 44.1434C65.828 43.8566 66.2583 43.7132 66.8606 43.7132C67.1762 43.7132 67.4343 43.7419 67.6638 43.7993C67.7498 43.8279 67.7785 43.8853 67.7785 43.9427C67.7785 44.0861 67.7498 44.2295 67.6925 44.4016C67.6638 44.4876 67.6351 44.5163 67.549 44.5163C67.5204 44.5163 67.4917 44.5163 67.4343 44.5163C67.3769 44.5163 67.3483 44.5163 67.3483 44.5163C67.2048 44.4876 67.0614 44.4876 66.8606 44.4876C66.5451 44.4876 66.3443 44.5737 66.2296 44.7171C66.1149 44.8892 66.0575 45.1474 66.0575 45.4916C66.0862 45.8931 66.1436 46.18 66.2583 46.3234Z" fill="#00A94F"/>
<path d="M71.1634 46.9257C70.9052 47.1839 70.5037 47.2986 69.9013 47.2986C69.3276 47.2986 68.9261 47.1839 68.6966 46.9257C68.4385 46.6676 68.3237 46.2086 68.3237 45.5202C68.3237 45.176 68.3524 44.8605 68.4385 44.6311C68.5245 44.4016 68.6392 44.2008 68.7827 44.0861C68.9261 43.9714 69.0982 43.8853 69.299 43.8279C69.4711 43.7706 69.7005 43.7419 69.9587 43.7419C70.2455 43.7419 70.475 43.7706 70.6471 43.7993C70.8192 43.8279 70.9913 43.914 71.1347 44.0574C71.2781 44.1721 71.3928 44.3729 71.4502 44.6024C71.5076 44.8318 71.5362 45.1474 71.5362 45.5202C71.5362 46.18 71.4215 46.6676 71.1634 46.9257ZM70.5037 44.6884C70.4176 44.545 70.2168 44.4876 69.9587 44.4876C69.7005 44.4876 69.5284 44.545 69.4137 44.6884C69.299 44.8318 69.2416 45.09 69.2416 45.4916C69.2416 45.9218 69.299 46.2086 69.385 46.3234C69.4711 46.4668 69.6718 46.5242 69.93 46.5242C70.1881 46.5242 70.3889 46.4668 70.475 46.3234C70.5897 46.18 70.6184 45.9218 70.6184 45.4916C70.6184 45.1187 70.5897 44.8318 70.5037 44.6884Z" fill="#00A94F"/>
<path d="M73.0275 47.2126H72.4538C72.3391 47.2126 72.2817 47.1552 72.2817 47.0118V44.4016C72.2817 44.2008 72.3678 44.0861 72.5112 44C72.9988 43.7992 73.5438 43.7132 74.1748 43.7132C74.6051 43.7132 74.8919 43.8279 75.0066 44.0287C75.2648 43.8279 75.695 43.7132 76.3261 43.7132C76.6129 43.7132 76.8424 43.7419 76.9858 43.8279C77.1292 43.914 77.2153 44 77.2726 44.1434C77.3013 44.2582 77.33 44.4876 77.33 44.8032V47.0118C77.33 47.1265 77.2726 47.2126 77.1579 47.2126H76.5842C76.4695 47.2126 76.4121 47.1552 76.4121 47.0118V45.0039C76.4121 44.8605 76.4121 44.7458 76.3834 44.6597C76.3548 44.5163 76.2113 44.459 75.9532 44.459C75.7811 44.459 75.609 44.4876 75.4369 44.545C75.3795 44.5737 75.3222 44.6024 75.2935 44.6311C75.2648 44.6597 75.2648 44.6884 75.2648 44.7458C75.2648 44.7458 75.2648 44.8032 75.2648 44.8605C75.2648 44.9179 75.2648 44.9466 75.2648 44.9753V46.9831C75.2648 47.0978 75.2074 47.1839 75.0927 47.1839H74.519C74.4043 47.1839 74.3469 47.1265 74.3469 46.9831V44.9753C74.3469 44.8318 74.3469 44.7171 74.3182 44.6597C74.2896 44.5737 74.2609 44.545 74.1748 44.5163C74.1175 44.4876 74.0314 44.459 73.888 44.459C73.6872 44.459 73.5151 44.4876 73.3717 44.545C73.2857 44.5737 73.2283 44.6024 73.2283 44.6597C73.1996 44.6884 73.1996 44.7745 73.1996 44.8892V47.0118C73.1996 47.1552 73.1422 47.2126 73.0275 47.2126Z" fill="#00A94F"/>
<path d="M80.9441 46.9257C80.686 47.1839 80.2844 47.2986 79.6821 47.2986C79.1084 47.2986 78.7068 47.1839 78.4774 46.9257C78.2192 46.6676 78.1045 46.2086 78.1045 45.5202C78.1045 45.176 78.1332 44.8605 78.2192 44.6311C78.3053 44.4016 78.42 44.2008 78.5634 44.0861C78.7068 43.9714 78.8789 43.8853 79.0797 43.8279C79.2805 43.7706 79.4813 43.7419 79.7394 43.7419C80.0263 43.7419 80.2557 43.7706 80.4278 43.7993C80.5999 43.8279 80.772 43.914 80.9154 44.0574C81.0589 44.1721 81.1736 44.3729 81.231 44.6024C81.2883 44.8318 81.317 45.1474 81.317 45.5202C81.3457 46.18 81.2023 46.6676 80.9441 46.9257ZM80.2844 44.6884C80.1984 44.545 79.9976 44.4876 79.7394 44.4876C79.4813 44.4876 79.3092 44.545 79.1945 44.6884C79.0797 44.8318 79.0223 45.09 79.0223 45.4916C79.0223 45.9218 79.0797 46.2086 79.1658 46.3234C79.2518 46.4668 79.4526 46.5242 79.7107 46.5242C79.9689 46.5242 80.1697 46.4668 80.2557 46.3234C80.3705 46.18 80.3991 45.9218 80.3991 45.4916C80.4278 45.1187 80.3705 44.8318 80.2844 44.6884Z" fill="#00A94F"/>
<path d="M84.5582 46.3521C84.6156 46.4381 84.7303 46.5242 84.9311 46.5528C85.0172 46.5528 85.0745 46.6389 85.0745 46.7249C85.0745 46.8684 85.0745 46.9831 85.0459 47.0691C85.0172 47.1839 84.9598 47.2126 84.8164 47.2126C84.5009 47.2126 84.2714 47.1839 84.0993 47.1265C83.9272 47.0691 83.8125 46.9544 83.7264 46.811C83.6404 46.6389 83.583 46.3807 83.583 46.0365V42.3364C83.583 42.2217 83.6404 42.1356 83.7551 42.1356H84.3288C84.3861 42.1356 84.4435 42.1643 84.4435 42.193C84.4722 42.2217 84.4722 42.279 84.4722 42.3364V45.9218C84.5009 46.1226 84.5009 46.266 84.5582 46.3521Z" fill="#00A94F"/>
<path d="M88.2869 46.9257C88.0288 47.1839 87.6272 47.2986 87.0248 47.2986C86.4512 47.2986 86.0496 47.1839 85.8202 46.9257C85.562 46.6676 85.4473 46.2086 85.4473 45.5202C85.4473 45.176 85.476 44.8605 85.562 44.6311C85.6481 44.4016 85.7628 44.2008 85.9062 44.0861C86.0496 43.9714 86.2217 43.8853 86.4225 43.8279C86.6233 43.7706 86.8241 43.7419 87.0822 43.7419C87.369 43.7419 87.5985 43.7706 87.7706 43.7993C87.9427 43.8279 88.1148 43.914 88.2582 44.0574C88.4016 44.1721 88.5164 44.3729 88.5737 44.6024C88.6311 44.8318 88.6598 45.1474 88.6598 45.5202C88.6598 46.18 88.5451 46.6676 88.2869 46.9257ZM87.6272 44.6884C87.5411 44.545 87.3404 44.4876 87.0822 44.4876C86.8241 44.4876 86.652 44.545 86.5372 44.6884C86.4225 44.8318 86.3651 45.09 86.3651 45.4916C86.3651 45.9218 86.4225 46.2086 86.5085 46.3234C86.5946 46.4668 86.7954 46.5242 87.0535 46.5242C87.3117 46.5242 87.5125 46.4668 87.5985 46.3234C87.7132 46.18 87.7419 45.9218 87.7419 45.4916C87.7706 45.1187 87.7132 44.8318 87.6272 44.6884Z" fill="#00A94F"/>
<path d="M91.7291 43.1682C91.6431 43.2543 91.5284 43.283 91.3563 43.283C91.0407 43.283 90.8687 43.1109 90.8687 42.7954C90.8687 42.4512 91.0407 42.2791 91.3563 42.2791C91.5284 42.2791 91.6431 42.3077 91.7291 42.3938C91.8152 42.4798 91.8439 42.5946 91.8439 42.7954C91.8439 42.9388 91.8152 43.0822 91.7291 43.1682ZM91.6431 47.2126H91.0694C90.9547 47.2126 90.8973 47.1552 90.8973 47.0118V44C90.8973 43.8566 90.9547 43.7993 91.0694 43.7993H91.6431C91.7578 43.7993 91.8152 43.8566 91.8152 44V47.0405C91.8152 47.1552 91.7578 47.2126 91.6431 47.2126Z" fill="#00A94F"/>
<path d="M93.4787 47.2126H92.905C92.7903 47.2126 92.7329 47.1552 92.7329 47.0118V44.4016C92.7329 44.2008 92.819 44.0861 92.9624 44C93.45 43.7992 93.995 43.7132 94.626 43.7132C95.0562 43.7132 95.3431 43.8279 95.4578 44.0287C95.716 43.8279 96.1462 43.7132 96.7772 43.7132C97.0641 43.7132 97.2935 43.7419 97.4369 43.8279C97.5804 43.914 97.6664 44 97.7238 44.1434C97.7525 44.2582 97.7812 44.4876 97.7812 44.8032V47.0118C97.7812 47.1265 97.7238 47.2126 97.6091 47.2126H97.0354C96.9207 47.2126 96.8633 47.1552 96.8633 47.0118V45.0039C96.8633 44.8605 96.8633 44.7458 96.8346 44.6597C96.8059 44.5163 96.6625 44.459 96.4044 44.459C96.2323 44.459 96.0602 44.4876 95.8881 44.545C95.8307 44.5737 95.7733 44.6024 95.7446 44.6311C95.716 44.6597 95.716 44.6884 95.716 44.7458C95.716 44.7458 95.716 44.8032 95.716 44.8605C95.716 44.9179 95.716 44.9466 95.716 44.9753V46.9831C95.716 47.0978 95.6586 47.1839 95.5439 47.1839H94.9702C94.8555 47.1839 94.7981 47.1265 94.7981 46.9831V44.9753C94.7981 44.8318 94.7981 44.7171 94.7694 44.6597C94.7407 44.5737 94.712 44.545 94.626 44.5163C94.5686 44.4876 94.4826 44.459 94.3392 44.459C94.1384 44.459 93.9663 44.4876 93.8229 44.545C93.7368 44.5737 93.6795 44.6024 93.6795 44.6597C93.6508 44.6884 93.6508 44.7745 93.6508 44.8892V47.0118C93.6508 47.1552 93.5934 47.2126 93.4787 47.2126Z" fill="#00A94F"/>
<path d="M101.424 46.9544C101.367 47.0405 101.281 47.0691 101.195 47.0978C101.051 47.1552 100.85 47.1839 100.592 47.2412C100.334 47.2986 100.076 47.2986 99.8464 47.2986C99.3588 47.2986 99.0146 47.2125 98.8425 47.0118C98.6704 46.811 98.5557 46.5528 98.5557 46.2086C98.5557 45.8071 98.6704 45.5489 98.9285 45.3768C99.1293 45.2334 99.5022 45.1474 100.019 45.1474C100.248 45.1474 100.449 45.1474 100.621 45.176V45.0039C100.621 44.8605 100.621 44.7458 100.592 44.6884C100.535 44.545 100.334 44.4876 100.019 44.4876C99.8177 44.4876 99.5883 44.5163 99.3301 44.545C99.158 44.5737 99.0433 44.5737 99.0433 44.5737C98.9572 44.5737 98.9285 44.545 98.8999 44.459C98.8425 44.2869 98.8425 44.1434 98.8425 44.0574C98.8425 43.9427 98.8999 43.8853 98.9859 43.8566C99.3014 43.7419 99.703 43.7132 100.162 43.7132C100.736 43.7132 101.108 43.7992 101.309 44C101.481 44.1721 101.539 44.459 101.539 44.8892V46.6102C101.51 46.7823 101.481 46.897 101.424 46.9544ZM100.133 45.7784C99.8464 45.7784 99.6456 45.8071 99.5596 45.8931C99.4735 45.9505 99.4448 46.0652 99.4448 46.2086C99.4448 46.3521 99.4735 46.4668 99.5596 46.5242C99.6456 46.6102 99.7604 46.6389 99.9611 46.6389C100.191 46.6389 100.391 46.6102 100.506 46.5528C100.563 46.5242 100.592 46.4955 100.621 46.4381C100.621 46.4094 100.65 46.3234 100.65 46.2086V45.8071C100.42 45.7784 100.277 45.7784 100.133 45.7784Z" fill="#00A94F"/>
<path d="M103.747 47.2986C103.231 47.2986 102.83 47.1839 102.6 46.9257C102.371 46.6676 102.256 46.2373 102.256 45.5776C102.256 44.8605 102.371 44.3729 102.629 44.1148C102.887 43.8566 103.288 43.7132 103.891 43.7132C104.436 43.7132 104.866 43.7706 105.182 43.8566C105.325 43.914 105.411 44.0287 105.411 44.2008V46.8683C105.411 47.2699 105.382 47.5854 105.325 47.7862C105.239 48.1304 104.981 48.3886 104.608 48.5607C104.206 48.7328 103.661 48.7901 102.973 48.7901C102.83 48.7901 102.743 48.7328 102.743 48.618C102.715 48.4746 102.715 48.3599 102.715 48.2738C102.715 48.1304 102.772 48.0444 102.916 48.0444C103.403 48.0157 103.776 47.987 103.977 47.9296C104.178 47.8723 104.321 47.7862 104.407 47.7002C104.493 47.5854 104.522 47.442 104.522 47.2699V47.1839C104.321 47.2699 104.092 47.2986 103.747 47.2986ZM104.464 44.7458C104.464 44.6311 104.436 44.5737 104.378 44.545C104.292 44.5163 104.149 44.4876 103.948 44.4876C103.633 44.4876 103.403 44.5737 103.317 44.7171C103.231 44.8605 103.174 45.1474 103.174 45.5776C103.174 45.9218 103.231 46.18 103.317 46.3234C103.403 46.4668 103.575 46.5528 103.833 46.5528C104.063 46.5528 104.264 46.5242 104.378 46.4668C104.436 46.4381 104.464 46.4094 104.493 46.3807C104.493 46.3521 104.493 46.3234 104.493 46.2373V44.7458H104.464Z" fill="#00A94F"/>
<path d="M107.132 43.1682C107.046 43.2543 106.931 43.283 106.759 43.283C106.444 43.283 106.271 43.1109 106.271 42.7954C106.271 42.4512 106.444 42.2791 106.759 42.2791C106.931 42.2791 107.046 42.3077 107.132 42.3938C107.218 42.4798 107.247 42.5946 107.247 42.7954C107.247 42.9388 107.218 43.0822 107.132 43.1682ZM107.046 47.2126H106.472C106.358 47.2126 106.3 47.1552 106.3 47.0118V44C106.3 43.8566 106.358 43.7993 106.472 43.7993H107.046C107.161 43.7993 107.218 43.8566 107.218 44V47.0405C107.218 47.1552 107.161 47.2126 107.046 47.2126Z" fill="#00A94F"/>
<path d="M108.882 47.2126H108.308C108.193 47.2126 108.136 47.1552 108.136 47.0118V44.4017C108.136 44.1722 108.222 44.0575 108.365 43.9714C108.566 43.8854 108.824 43.828 109.169 43.7706C109.513 43.7133 109.828 43.6846 110.115 43.6846C110.431 43.6846 110.66 43.7133 110.804 43.7993C110.947 43.8854 111.062 43.9714 111.119 44.1148C111.176 44.2582 111.176 44.459 111.176 44.7745V46.9831C111.176 47.0979 111.119 47.1839 111.004 47.1839H110.431C110.316 47.1839 110.259 47.1266 110.259 46.9831V44.9753C110.259 44.8319 110.259 44.7172 110.23 44.6311C110.201 44.4877 110.058 44.4303 109.8 44.4303C109.541 44.4303 109.341 44.459 109.197 44.5164C109.14 44.5451 109.083 44.5737 109.083 44.6024C109.054 44.6311 109.025 44.6885 109.025 44.7745V46.9831C109.054 47.1552 108.996 47.2126 108.882 47.2126Z" fill="#00A94F"/>
<path d="M114.819 46.9544C114.762 47.0405 114.676 47.0691 114.59 47.0978C114.446 47.1552 114.246 47.1839 113.987 47.2412C113.729 47.2986 113.471 47.2986 113.242 47.2986C112.754 47.2986 112.41 47.2125 112.238 47.0118C112.066 46.811 111.951 46.5528 111.951 46.2086C111.951 45.8071 112.066 45.5489 112.324 45.3768C112.525 45.2334 112.897 45.1474 113.414 45.1474C113.643 45.1474 113.844 45.1474 114.016 45.176V45.0039C114.016 44.8605 114.016 44.7458 113.987 44.6884C113.93 44.545 113.729 44.4876 113.414 44.4876C113.213 44.4876 112.984 44.5163 112.725 44.545C112.553 44.5737 112.439 44.5737 112.439 44.5737C112.352 44.5737 112.324 44.545 112.295 44.459C112.238 44.2869 112.238 44.1434 112.238 44.0574C112.238 43.9427 112.295 43.8853 112.381 43.8566C112.697 43.7419 113.098 43.7132 113.557 43.7132C114.131 43.7132 114.504 43.7992 114.705 44C114.877 44.1721 114.934 44.459 114.934 44.8892V46.6102C114.905 46.7823 114.877 46.897 114.819 46.9544ZM113.5 45.7784C113.213 45.7784 113.012 45.8071 112.926 45.8931C112.84 45.9505 112.811 46.0652 112.811 46.2086C112.811 46.3521 112.84 46.4668 112.926 46.5242C113.012 46.6102 113.127 46.6389 113.328 46.6389C113.557 46.6389 113.758 46.6102 113.873 46.5528C113.93 46.5242 113.959 46.4955 113.987 46.4381C113.987 46.4094 114.016 46.3234 114.016 46.2086V45.8071C113.815 45.7784 113.643 45.7784 113.5 45.7784Z" fill="#00A94F"/>
<path d="M116.483 45.8358C116.196 45.7497 115.966 45.635 115.823 45.4916C115.68 45.3481 115.594 45.1187 115.594 44.8032C115.594 44.0861 116.052 43.7419 116.97 43.7419C117.401 43.7419 117.745 43.7706 117.974 43.8566C118.06 43.8853 118.118 43.9427 118.118 44.0287C118.118 44.0861 118.089 44.2295 118.032 44.459C118.032 44.545 117.974 44.5737 117.888 44.5737C117.888 44.5737 117.802 44.5737 117.716 44.545C117.487 44.4877 117.228 44.459 116.97 44.459C116.798 44.459 116.683 44.4877 116.626 44.545C116.569 44.6024 116.54 44.6597 116.54 44.7745C116.54 44.8605 116.569 44.9179 116.597 44.9466C116.655 44.9753 116.741 45.0326 116.913 45.09L117.372 45.2047C117.716 45.2908 117.946 45.4055 118.06 45.5489C118.175 45.6923 118.261 45.9218 118.261 46.2086C118.261 46.9257 117.802 47.2699 116.856 47.2699C116.311 47.2699 115.938 47.2126 115.651 47.0978C115.565 47.0691 115.536 47.0118 115.536 46.9257C115.536 46.8684 115.565 46.7536 115.651 46.4955C115.68 46.4094 115.737 46.3521 115.823 46.3521C115.852 46.3521 115.909 46.3807 116.024 46.4094C116.282 46.4955 116.569 46.5242 116.913 46.5242C117.228 46.5242 117.401 46.4094 117.401 46.2086C117.401 46.1226 117.372 46.0939 117.343 46.0365C117.286 46.0079 117.2 45.9505 117.028 45.9218L116.483 45.8358Z" fill="#00A94F"/>
</svg>
