<svg width="90" height="30" viewBox="0 0 90 30" fill="none" xmlns="http://www.w3.org/2000/svg">
<path d="M0 16.0815C12.7212 33.1769 36.5575 22.1251 51.5819 20.3924C63.6058 18.9977 77.6582 20.0543 89.8088 28.042C75.4605 21.3855 59.8444 21.6391 46.2145 24.7455C32.5425 27.8729 8.60051 33.5361 0 16.0815Z" fill="#8A8888"/>
<path d="M46.4049 25.548L46.0245 25.6325C39.7485 27.0694 31.7396 28.929 23.6674 28.9079C21.0894 28.9079 18.6381 28.6965 16.3982 28.3162C14.7076 28.0203 13.1017 27.5977 11.6013 27.0694C18.5536 29.7954 26.8371 30.0912 33.3245 29.3305C41.7559 28.3162 49.3633 25.4 57.4566 24.6182C66.1839 23.7518 75.1225 23.942 84.1245 26.4989C78.1232 24.4702 71.6781 23.4348 64.8315 23.3925C58.9358 23.3714 52.7443 24.0899 46.4049 25.548Z" fill="#8A8888"/>
<path d="M36.1776 0.0211328L29.1197 14.3905C27.7039 13.2283 26.605 11.728 25.8654 10.0375C27.8095 9.23446 29.2676 7.39602 29.4578 5.24061C29.7113 2.36673 27.5771 0.0211328 24.7032 0.0211328H0.211803L0.000488281 2.49352H6.80483L5.62146 16.0599H8.74892L9.93228 2.49352H16.7366L15.5533 16.0599H18.6807L19.1667 10.439H22.9915C24.9779 15.9965 30.1974 19.8636 36.6425 19.8636L36.8749 17.1165C35.0365 17.1165 33.3248 16.7361 31.8034 16.0599L33.3671 12.6578H41.1857L42.1578 16.0599H45.6867L40.6152 0H36.1776V0.0211328ZM23.5621 7.9877H19.3992L19.8852 2.49352H24.0481C25.5696 2.49352 26.6895 3.71914 26.5416 5.24061C26.4148 6.76208 25.0624 7.9877 23.5621 7.9877ZM34.5505 10.2065L38.2273 2.2188L40.5095 10.2065H34.5505Z" fill="#8A8888"/>
<path d="M61.1123 0.0209961H48.7926L48.5602 2.51451H57.1818L46.6795 13.5874L46.447 16.0809H59.0836L59.295 13.5874H50.7156L60.8376 2.91601L61.1123 0.0209961Z" fill="#8A8888"/>
<path d="M82.1169 2.9794C77.468 2.9794 73.3474 6.76194 72.9459 11.4109C72.8825 12.1716 72.9247 12.8901 73.0515 13.5874H64.2608L74.3828 2.91601L74.6575 0.0209961H62.3379L62.1266 2.49338H70.7482L60.2459 13.5874L60.0345 16.0598H73.9813C75.2915 18.3209 77.7427 19.8212 80.68 19.8212C85.3289 19.8212 89.4496 16.0387 89.8511 11.3897C90.2314 6.76194 86.787 2.9794 82.1169 2.9794ZM87.0828 11.4109C86.8081 14.5595 84.0399 17.0952 80.8913 17.0952C77.7427 17.0952 75.4183 14.5383 75.693 11.4109C75.9677 8.2834 78.7359 5.7265 81.8845 5.7265C85.0331 5.7265 87.3575 8.26227 87.0828 11.4109Z" fill="#8A8888"/>
<path d="M34.4195 25.8534C34.4543 25.7665 34.489 25.7144 34.5586 25.7144C34.7498 25.7144 34.8715 25.7144 34.9411 25.7317C34.9758 25.7491 35.0106 25.7665 35.0106 25.8187C35.0106 25.8534 34.9932 25.8882 34.9758 25.9578L34.1413 28.357C34.1065 28.444 34.0718 28.5135 34.0196 28.5657C33.9674 28.6178 33.8805 28.6352 33.7588 28.6352H33.6197C33.498 28.6352 33.4111 28.6178 33.3589 28.5657C33.3068 28.5135 33.272 28.444 33.2372 28.3396L32.4375 25.9578C32.4201 25.9056 32.4027 25.8534 32.4027 25.8187C32.4027 25.7839 32.4201 25.7491 32.4549 25.7317C32.4896 25.7144 32.6287 25.7144 32.8721 25.7144C32.9069 25.7144 32.9417 25.7317 32.9591 25.7491C32.9764 25.7665 32.9938 25.8013 33.0112 25.8534C33.4111 27.1052 33.6545 27.8354 33.7067 28.0441C33.7588 27.905 33.9848 27.1748 34.4195 25.8534Z" fill="#8A8888"/>
<path d="M35.8105 26.1659C35.7584 26.2181 35.6888 26.2355 35.5845 26.2355C35.3933 26.2355 35.2889 26.1311 35.2889 25.9399C35.2889 25.7313 35.3933 25.627 35.5845 25.627C35.6888 25.627 35.7584 25.6443 35.8105 25.6965C35.8627 25.7487 35.8801 25.8182 35.8801 25.9399C35.8974 26.0442 35.8627 26.1138 35.8105 26.1659ZM35.7584 28.6347H35.4106C35.3411 28.6347 35.3063 28.6 35.3063 28.513V26.6875C35.3063 26.6006 35.3411 26.5658 35.4106 26.5658H35.7584C35.8279 26.5658 35.8627 26.6006 35.8627 26.6875V28.5304C35.8627 28.6 35.8279 28.6347 35.7584 28.6347Z" fill="#8A8888"/>
<path d="M37.7054 26.6705C37.7401 26.601 37.7749 26.5488 37.8445 26.5488C38.0009 26.5488 38.1226 26.5488 38.1922 26.5662C38.2443 26.5836 38.2791 26.601 38.2791 26.6531C38.2791 26.6879 38.2791 26.7227 38.2617 26.7575L37.6532 28.357C37.6184 28.4613 37.5663 28.5308 37.5141 28.5656C37.462 28.6004 37.3924 28.6351 37.2881 28.6351H37.149C37.0447 28.6351 36.9752 28.6178 36.923 28.583C36.8709 28.5482 36.8361 28.4787 36.8013 28.3744L36.2102 26.7922C36.1928 26.7401 36.1754 26.7053 36.1754 26.6705C36.1754 26.6184 36.2102 26.5836 36.2623 26.5836C36.3319 26.5662 36.471 26.5662 36.6448 26.5662C36.7144 26.5662 36.7491 26.601 36.7665 26.6705C37.0273 27.4355 37.1838 27.9049 37.2186 28.0614C37.2881 27.9049 37.4446 27.4355 37.7054 26.6705Z" fill="#8A8888"/>
<path d="M39.1659 28.1309C39.2528 28.2004 39.3745 28.2178 39.5484 28.2178C39.7222 28.2178 39.8787 28.2004 40.0004 28.1656C40.0526 28.1482 40.1047 28.1482 40.1221 28.1482C40.1743 28.1482 40.1917 28.1656 40.2091 28.2178C40.2438 28.3047 40.2612 28.3917 40.2612 28.4612C40.2612 28.5134 40.2438 28.5481 40.1917 28.5655C40.0178 28.6351 39.7918 28.6698 39.4788 28.6698C39.1137 28.6698 38.8529 28.5829 38.6965 28.409C38.54 28.2352 38.4705 27.9744 38.4705 27.5919C38.4705 27.2094 38.5574 26.9312 38.7139 26.7574C38.8703 26.5835 39.1311 26.4966 39.4614 26.4966C39.6179 26.4966 39.757 26.514 39.8613 26.5487C39.9657 26.5835 40.0526 26.6357 40.1047 26.6878C40.1569 26.74 40.209 26.8269 40.2438 26.9312C40.2786 27.0355 40.296 27.1399 40.296 27.2268C40.296 27.3137 40.3134 27.4354 40.3134 27.5919C40.3134 27.6614 40.296 27.7136 40.2612 27.731C40.2438 27.7484 40.2091 27.7484 40.1743 27.7484H39.0442C39.0442 27.957 39.079 28.0787 39.1659 28.1309ZM39.7918 27.3833C39.7918 27.3659 39.7918 27.3485 39.7918 27.3137C39.7918 27.192 39.7744 27.0877 39.7222 27.0355C39.6701 26.9834 39.5832 26.9486 39.4441 26.9486C39.305 26.9486 39.2007 26.9834 39.1485 27.0529C39.079 27.1225 39.0616 27.2442 39.0442 27.4007H39.7918V27.3833Z" fill="#8A8888"/>
<path d="M42.2083 28.0787C42.2779 28.1656 42.3822 28.2178 42.5561 28.2178C42.6778 28.2178 42.7995 28.2004 42.9038 28.183C42.9559 28.1656 43.0081 28.1656 43.0255 28.1656C43.0776 28.1656 43.095 28.183 43.1124 28.2352C43.1472 28.3395 43.1646 28.409 43.1646 28.4786C43.1646 28.5307 43.1472 28.5655 43.095 28.5829C42.9386 28.6351 42.7473 28.6698 42.5039 28.6698C42.191 28.6698 41.9476 28.5829 41.7911 28.4264C41.6346 28.27 41.5651 27.9918 41.5651 27.6093C41.5651 27.2268 41.6346 26.9312 41.7911 26.7574C41.9476 26.5835 42.2083 26.4966 42.5734 26.4966C42.7647 26.4966 42.9212 26.514 43.0603 26.5487C43.1124 26.5661 43.1298 26.6009 43.1298 26.6357C43.1298 26.7226 43.1124 26.8095 43.0776 26.9138C43.0603 26.966 43.0429 26.9834 42.9907 26.9834C42.9733 26.9834 42.9559 26.9834 42.9212 26.9834C42.8864 26.9834 42.869 26.9834 42.869 26.9834C42.7821 26.966 42.6951 26.966 42.5734 26.966C42.3822 26.966 42.2605 27.0182 42.191 27.1051C42.1214 27.2094 42.0866 27.3659 42.0866 27.5745C42.104 27.8353 42.1388 27.9918 42.2083 28.0787Z" fill="#8A8888"/>
<path d="M45.1817 28.4445C45.0252 28.601 44.7818 28.6705 44.4167 28.6705C44.069 28.6705 43.8256 28.601 43.6865 28.4445C43.53 28.288 43.4604 28.0098 43.4604 27.5926C43.4604 27.3839 43.4778 27.1927 43.53 27.0536C43.5822 26.9145 43.6517 26.7928 43.7386 26.7233C43.8256 26.6537 43.9299 26.6016 44.0516 26.5668C44.1733 26.532 44.295 26.5146 44.4515 26.5146C44.6253 26.5146 44.7644 26.532 44.8687 26.5494C44.973 26.5668 45.0774 26.619 45.1643 26.7059C45.2512 26.7754 45.3208 26.8971 45.3555 27.0362C45.3903 27.1753 45.4077 27.3666 45.4077 27.5926C45.4077 28.0098 45.3208 28.288 45.1817 28.4445ZM44.7644 27.1058C44.7122 27.0188 44.5905 26.9841 44.4341 26.9841C44.2776 26.9841 44.1733 27.0188 44.1037 27.1058C44.0342 27.1927 43.9994 27.3492 43.9994 27.5926C43.9994 27.8534 44.0342 28.0272 44.0864 28.0968C44.1385 28.1837 44.2602 28.2185 44.4167 28.2185C44.5732 28.2185 44.6949 28.1837 44.747 28.0968C44.8166 28.0098 44.8339 27.8534 44.8339 27.5926C44.8513 27.3492 44.8339 27.1927 44.7644 27.1058Z" fill="#8A8888"/>
<path d="M46.3116 28.6357H45.9639C45.8944 28.6357 45.8596 28.601 45.8596 28.514V26.9319C45.8596 26.8102 45.9118 26.7407 45.9987 26.6885C46.2943 26.5668 46.6246 26.5146 47.0071 26.5146C47.2679 26.5146 47.4417 26.5842 47.5113 26.7059C47.6678 26.5842 47.9285 26.5146 48.311 26.5146C48.4849 26.5146 48.624 26.532 48.7109 26.5842C48.7978 26.619 48.85 26.6885 48.8848 26.7754C48.9022 26.845 48.9195 26.9841 48.9195 27.1753V28.514C48.9195 28.5836 48.8848 28.6357 48.8152 28.6357H48.4675C48.398 28.6357 48.3632 28.601 48.3632 28.514V27.297C48.3632 27.2101 48.3632 27.1405 48.3458 27.0884C48.3284 27.0015 48.2415 26.9667 48.085 26.9667C47.9807 26.9667 47.8764 26.9841 47.7721 27.0188C47.7373 27.0362 47.7025 27.0536 47.6851 27.071C47.6678 27.0884 47.6678 27.1058 47.6678 27.1405C47.6678 27.1405 47.6678 27.1753 47.6678 27.2101C47.6678 27.2449 47.6678 27.2622 47.6678 27.2796V28.4966C47.6678 28.5662 47.633 28.6183 47.5634 28.6183H47.2157C47.1462 28.6183 47.1114 28.5836 47.1114 28.4966V27.2796C47.1114 27.1927 47.1114 27.1232 47.094 27.0884C47.0766 27.0362 47.0592 27.0188 47.0071 27.0015C46.9549 26.9841 46.9202 26.9667 46.8332 26.9667C46.7115 26.9667 46.6072 26.9841 46.5203 27.0188C46.4681 27.0362 46.4334 27.0536 46.4334 27.0884C46.416 27.1058 46.416 27.1579 46.416 27.2275V28.514C46.416 28.601 46.3812 28.6357 46.3116 28.6357Z" fill="#8A8888"/>
<path d="M51.1101 28.4445C50.9536 28.601 50.7102 28.6705 50.3451 28.6705C49.9974 28.6705 49.754 28.601 49.6149 28.4445C49.4585 28.288 49.3889 28.0098 49.3889 27.5926C49.3889 27.3839 49.4063 27.1927 49.4585 27.0536C49.5106 26.9145 49.5802 26.7928 49.6671 26.7233C49.754 26.6537 49.8583 26.6016 49.98 26.5668C50.1017 26.532 50.2234 26.5146 50.3799 26.5146C50.5538 26.5146 50.6929 26.532 50.7972 26.5494C50.9015 26.5668 51.0058 26.619 51.0927 26.7059C51.1797 26.7754 51.2492 26.8971 51.284 27.0362C51.3188 27.1753 51.3361 27.3666 51.3361 27.5926C51.3361 28.0098 51.2666 28.288 51.1101 28.4445ZM50.7102 27.1058C50.6581 27.0188 50.5364 26.9841 50.3799 26.9841C50.2234 26.9841 50.1191 27.0188 50.0496 27.1058C49.98 27.1927 49.9453 27.3492 49.9453 27.5926C49.9453 27.8534 49.98 28.0272 50.0322 28.0968C50.0844 28.1837 50.2061 28.2185 50.3625 28.2185C50.519 28.2185 50.6407 28.1837 50.6929 28.0968C50.7624 28.0098 50.7798 27.8534 50.7798 27.5926C50.7972 27.3492 50.7624 27.1927 50.7102 27.1058Z" fill="#8A8888"/>
<path d="M53.3007 28.1138C53.3355 28.166 53.405 28.2182 53.5267 28.2355C53.5789 28.2355 53.6137 28.2877 53.6137 28.3399C53.6137 28.4268 53.6137 28.4963 53.5963 28.5485C53.5789 28.618 53.5441 28.6354 53.4572 28.6354C53.2659 28.6354 53.1269 28.618 53.0225 28.5833C52.9182 28.5485 52.8487 28.4789 52.7965 28.392C52.7444 28.2877 52.7096 28.1312 52.7096 27.9226V25.6798C52.7096 25.6103 52.7444 25.5581 52.8139 25.5581H53.1616C53.1964 25.5581 53.2312 25.5755 53.2312 25.5929C53.2486 25.6103 53.2486 25.645 53.2486 25.6798V27.8531C53.266 27.9748 53.2659 28.0617 53.3007 28.1138Z" fill="#8A8888"/>
<path d="M55.5609 28.4445C55.4045 28.601 55.1611 28.6705 54.7959 28.6705C54.4482 28.6705 54.2048 28.601 54.0657 28.4445C53.9266 28.288 53.8397 28.0098 53.8397 27.5926C53.8397 27.3839 53.8571 27.1927 53.9093 27.0536C53.9614 26.9145 54.031 26.7928 54.1179 26.7233C54.2048 26.6537 54.3091 26.6016 54.4308 26.5668C54.5352 26.532 54.6742 26.5146 54.8307 26.5146C55.0046 26.5146 55.1437 26.532 55.248 26.5494C55.3523 26.5668 55.4566 26.619 55.5435 26.7059C55.6305 26.7754 55.7 26.8971 55.7348 27.0362C55.7696 27.1753 55.787 27.3666 55.787 27.5926C55.787 28.0098 55.7174 28.288 55.5609 28.4445ZM55.1611 27.1058C55.1089 27.0188 54.9872 26.9841 54.8307 26.9841C54.6742 26.9841 54.5699 27.0188 54.5004 27.1058C54.4308 27.1927 54.3961 27.3492 54.3961 27.5926C54.3961 27.8534 54.4308 28.0272 54.483 28.0968C54.5352 28.1837 54.6569 28.2185 54.8133 28.2185C54.9698 28.2185 55.0915 28.1837 55.1437 28.0968C55.2132 28.0098 55.2306 27.8534 55.2306 27.5926C55.2306 27.3492 55.2132 27.1927 55.1611 27.1058Z" fill="#8A8888"/>
<path d="M57.6472 26.1659C57.595 26.2181 57.5255 26.2355 57.4212 26.2355C57.2299 26.2355 57.1256 26.1311 57.1256 25.9399C57.1256 25.7313 57.2299 25.627 57.4212 25.627C57.5255 25.627 57.595 25.6443 57.6472 25.6965C57.6993 25.7487 57.7167 25.8182 57.7167 25.9399C57.7167 26.0442 57.6993 26.1138 57.6472 26.1659ZM57.595 28.6347H57.2473C57.1778 28.6347 57.143 28.6 57.143 28.513V26.6875C57.143 26.6006 57.1778 26.5658 57.2473 26.5658H57.595C57.6646 26.5658 57.6993 26.6006 57.6993 26.6875V28.5304C57.6993 28.6 57.6646 28.6347 57.595 28.6347Z" fill="#8A8888"/>
<path d="M58.7079 28.6357H58.3602C58.2906 28.6357 58.2559 28.601 58.2559 28.514V26.9319C58.2559 26.8102 58.308 26.7407 58.3949 26.6885C58.6905 26.5668 59.0208 26.5146 59.4033 26.5146C59.6641 26.5146 59.838 26.5842 59.9075 26.7059C60.064 26.5842 60.3248 26.5146 60.7073 26.5146C60.8811 26.5146 61.0202 26.532 61.1072 26.5842C61.1941 26.619 61.2462 26.6885 61.281 26.7754C61.2984 26.845 61.3158 26.9841 61.3158 27.1753V28.514C61.3158 28.5836 61.281 28.6357 61.2115 28.6357H60.8638C60.7942 28.6357 60.7594 28.601 60.7594 28.514V27.297C60.7594 27.2101 60.7594 27.1405 60.742 27.0884C60.7247 27.0015 60.6377 26.9667 60.4813 26.9667C60.3769 26.9667 60.2726 26.9841 60.1683 27.0188C60.1335 27.0362 60.0988 27.0536 60.0814 27.071C60.064 27.0884 60.064 27.1058 60.064 27.1405C60.064 27.1405 60.064 27.1753 60.064 27.2101C60.064 27.2449 60.064 27.2622 60.064 27.2796V28.4966C60.064 28.5662 60.0292 28.6183 59.9597 28.6183H59.612C59.5424 28.6183 59.5077 28.5836 59.5077 28.4966V27.2796C59.5077 27.1927 59.5076 27.1232 59.4903 27.0884C59.4729 27.0362 59.4555 27.0188 59.4033 27.0015C59.3512 26.9841 59.3164 26.9667 59.2295 26.9667C59.1078 26.9667 59.0035 26.9841 58.9165 27.0188C58.8644 27.0362 58.8296 27.0536 58.8296 27.0884C58.8122 27.1058 58.8122 27.1579 58.8122 27.2275V28.514C58.8122 28.601 58.7774 28.6357 58.7079 28.6357Z" fill="#8A8888"/>
<path d="M63.5236 28.4793C63.4889 28.5314 63.4367 28.5488 63.3845 28.5662C63.2976 28.601 63.1759 28.6183 63.0194 28.6531C62.863 28.6705 62.7065 28.6879 62.5674 28.6879C62.2718 28.6879 62.0632 28.6357 61.9589 28.514C61.8546 28.3923 61.785 28.2359 61.785 28.0272C61.785 27.7838 61.8546 27.6274 62.011 27.523C62.1328 27.4361 62.3588 27.3839 62.6717 27.3839C62.8108 27.3839 62.9325 27.3839 63.0368 27.4013V27.297C63.0368 27.2101 63.0368 27.1405 63.0194 27.1058C62.9847 27.0188 62.863 26.9841 62.6717 26.9841C62.55 26.9841 62.4109 27.0015 62.2545 27.0188C62.1501 27.0362 62.0806 27.0362 62.0806 27.0362C62.0284 27.0362 62.0111 27.0188 61.9937 26.9667C61.9589 26.8624 61.9589 26.7754 61.9589 26.7233C61.9589 26.6537 61.9937 26.619 62.0458 26.6016C62.2371 26.532 62.4805 26.5146 62.7586 26.5146C63.1064 26.5146 63.3324 26.5668 63.4541 26.6885C63.5584 26.7928 63.5932 26.9667 63.5932 27.2275V28.2706C63.5758 28.3749 63.5584 28.4271 63.5236 28.4793ZM62.7239 27.749C62.55 27.749 62.4283 27.7664 62.3762 27.8186C62.324 27.8534 62.3066 27.9229 62.3066 28.0098C62.3066 28.0968 62.324 28.1663 62.3762 28.2011C62.4283 28.2532 62.4979 28.2706 62.6196 28.2706C62.7586 28.2706 62.8804 28.2532 62.9499 28.2185C62.9847 28.2011 63.002 28.1837 63.0194 28.1489C63.0194 28.1315 63.0368 28.0794 63.0368 28.0098V27.7664C62.9151 27.7664 62.8108 27.749 62.7239 27.749Z" fill="#8A8888"/>
<path d="M64.9321 28.6879C64.6192 28.6879 64.3758 28.6183 64.2367 28.4619C64.0976 28.3054 64.0281 28.0446 64.0281 27.6447C64.0281 27.2101 64.0976 26.9145 64.2541 26.7581C64.4106 26.6016 64.654 26.5146 65.0191 26.5146C65.3494 26.5146 65.6102 26.5494 65.8014 26.6016C65.8884 26.6364 65.9405 26.7059 65.9405 26.8102V28.4271C65.9405 28.6705 65.9231 28.8618 65.8884 28.9835C65.8362 29.1921 65.6797 29.3486 65.4537 29.4529C65.2103 29.5572 64.88 29.592 64.4627 29.592C64.3758 29.592 64.3236 29.5572 64.3236 29.4876C64.3062 29.4007 64.3062 29.3312 64.3062 29.279C64.3062 29.1921 64.341 29.1399 64.428 29.1399C64.7235 29.1225 64.9495 29.1052 65.0712 29.0704C65.1929 29.0356 65.2799 28.9835 65.332 28.9313C65.3842 28.8618 65.4016 28.7748 65.4016 28.6705V28.6183C65.2799 28.6531 65.1234 28.6879 64.9321 28.6879ZM65.3668 27.1232C65.3668 27.0536 65.3494 27.0188 65.3146 27.0015C65.2625 26.9841 65.1755 26.9667 65.0538 26.9667C64.8626 26.9667 64.7235 27.0188 64.6713 27.1058C64.6192 27.1927 64.5844 27.3666 64.5844 27.6273C64.5844 27.836 64.6192 27.9925 64.6713 28.0794C64.7235 28.1663 64.8278 28.2185 64.9843 28.2185C65.1234 28.2185 65.2451 28.2011 65.3146 28.1663C65.3494 28.1489 65.3668 28.1315 65.3842 28.1142C65.3842 28.0968 65.3842 28.0794 65.3842 28.0272V27.1232H65.3668Z" fill="#8A8888"/>
<path d="M66.9834 26.1659C66.9312 26.2181 66.8617 26.2355 66.7573 26.2355C66.5661 26.2355 66.4618 26.1311 66.4618 25.9399C66.4618 25.7313 66.5661 25.627 66.7573 25.627C66.8617 25.627 66.9312 25.6443 66.9834 25.6965C67.0355 25.7487 67.0529 25.8182 67.0529 25.9399C67.0529 26.0442 67.0355 26.1138 66.9834 26.1659ZM66.9312 28.6347H66.5835C66.5139 28.6347 66.4792 28.6 66.4792 28.513V26.6875C66.4792 26.6006 66.5139 26.5658 66.5835 26.5658H66.9312C67.0007 26.5658 67.0355 26.6006 67.0355 26.6875V28.5304C67.0355 28.6 67.0007 28.6347 66.9312 28.6347Z" fill="#8A8888"/>
<path d="M68.0439 28.6351H67.6962C67.6267 28.6351 67.5919 28.6003 67.5919 28.5134V26.9312C67.5919 26.7921 67.6441 26.7226 67.731 26.6704C67.8527 26.6183 68.0092 26.5835 68.2178 26.5487C68.4264 26.514 68.6177 26.4966 68.7915 26.4966C68.9828 26.4966 69.1219 26.514 69.2088 26.5661C69.2957 26.6009 69.3653 26.6704 69.4001 26.7574C69.4348 26.8443 69.4348 26.966 69.4348 27.1572V28.496C69.4348 28.5655 69.4001 28.6177 69.3305 28.6177H68.9828C68.9133 28.6177 68.8785 28.5829 68.8785 28.496V27.279C68.8785 27.192 68.8785 27.1225 68.8611 27.0703C68.8437 26.9834 68.7568 26.9486 68.6003 26.9486C68.4438 26.9486 68.3221 26.966 68.2352 27.0008C68.2004 27.0182 68.1657 27.0355 68.1657 27.0529C68.1483 27.0703 68.1309 27.1051 68.1309 27.1572V28.496C68.1483 28.6003 68.1135 28.6351 68.0439 28.6351Z" fill="#8A8888"/>
<path d="M71.6429 28.4793C71.6081 28.5314 71.556 28.5488 71.5038 28.5662C71.4169 28.601 71.2952 28.6183 71.1387 28.6531C70.9822 28.6705 70.8258 28.6879 70.6867 28.6879C70.3911 28.6879 70.1825 28.6357 70.0782 28.514C69.9738 28.3923 69.9043 28.2359 69.9043 28.0272C69.9043 27.7838 69.9738 27.6274 70.1303 27.523C70.252 27.4361 70.478 27.3839 70.791 27.3839C70.9301 27.3839 71.0518 27.3839 71.1561 27.4013V27.297C71.1561 27.2101 71.1561 27.1405 71.1387 27.1058C71.1039 27.0188 70.9822 26.9841 70.791 26.9841C70.6693 26.9841 70.5302 27.0015 70.3737 27.0188C70.2694 27.0362 70.1999 27.0362 70.1999 27.0362C70.1477 27.0362 70.1303 27.0188 70.1129 26.9667C70.0782 26.8624 70.0782 26.7754 70.0782 26.7233C70.0782 26.6537 70.1129 26.619 70.1651 26.6016C70.3563 26.532 70.5997 26.5146 70.8779 26.5146C71.2256 26.5146 71.4516 26.5668 71.5733 26.6885C71.6777 26.7928 71.7124 26.9667 71.7124 27.2275V28.2706C71.695 28.3749 71.6777 28.4271 71.6429 28.4793ZM70.8431 27.749C70.6693 27.749 70.5476 27.7664 70.4954 27.8186C70.4433 27.8534 70.4259 27.9229 70.4259 28.0098C70.4259 28.0968 70.4433 28.1663 70.4954 28.2011C70.5476 28.2532 70.6171 28.2706 70.7388 28.2706C70.8779 28.2706 70.9996 28.2532 71.0692 28.2185C71.1039 28.2011 71.1213 28.1837 71.1387 28.1489C71.1387 28.1315 71.1561 28.0794 71.1561 28.0098V27.7664C71.0344 27.7664 70.9301 27.749 70.8431 27.749Z" fill="#8A8888"/>
<path d="M72.6514 27.7838C72.4775 27.7317 72.3384 27.6621 72.2515 27.5752C72.1646 27.4883 72.1124 27.3492 72.1124 27.1579C72.1124 26.7233 72.3906 26.5146 72.9469 26.5146C73.2077 26.5146 73.4164 26.532 73.5554 26.5842C73.6076 26.6016 73.6424 26.6364 73.6424 26.6885C73.6424 26.7233 73.625 26.8102 73.5902 26.9493C73.5902 27.0015 73.5554 27.0188 73.5033 27.0188C73.5033 27.0188 73.4511 27.0188 73.399 27.0015C73.2599 26.9667 73.1034 26.9493 72.9469 26.9493C72.8426 26.9493 72.7731 26.9667 72.7383 27.0015C72.7035 27.0362 72.6861 27.071 72.6861 27.1405C72.6861 27.1927 72.7035 27.2275 72.7209 27.2449C72.7557 27.2622 72.8078 27.297 72.9122 27.3318L73.1903 27.4013C73.399 27.4535 73.5381 27.523 73.6076 27.61C73.6771 27.6969 73.7293 27.836 73.7293 28.0098C73.7293 28.4445 73.4511 28.6531 72.8774 28.6531C72.5471 28.6531 72.321 28.6183 72.1472 28.5488C72.095 28.5314 72.0776 28.4966 72.0776 28.4445C72.0776 28.4097 72.095 28.3402 72.1472 28.1837C72.1646 28.1315 72.1993 28.0968 72.2515 28.0968C72.2689 28.0968 72.3037 28.1142 72.3732 28.1315C72.5297 28.1837 72.7035 28.2011 72.9122 28.2011C73.1034 28.2011 73.2077 28.1315 73.2077 28.0098C73.2077 27.9577 73.1903 27.9403 73.1729 27.9055C73.1382 27.8881 73.086 27.8534 72.9817 27.836L72.6514 27.7838Z" fill="#8A8888"/>
</svg>
