<?xml version="1.0" encoding="UTF-8"?>
<svg width="153px" height="55px" viewBox="0 0 153 55" version="1.1" xmlns="http://www.w3.org/2000/svg" xmlns:xlink="http://www.w3.org/1999/xlink">
    <!-- Generator: Sketch 50 (54983) - http://www.bohemiancoding.com/sketch -->
    <title>Group</title>
    <desc>Created with Sketch.</desc>
    <defs>
        <polygon id="path-1" points="0 0.000571962617 39.5552902 0.000571962617 39.5552902 39.5553617 0 39.5553617"></polygon>
        <polygon id="path-3" points="0.117323832 0.511978037 15.0590607 0.511978037 15.0590607 32.8485995 0.117323832 32.8485995"></polygon>
        <polygon id="path-5" points="0.579398131 0.200401402 4.36078598 0.200401402 4.36078598 5.71962617 0.579398131 5.71962617"></polygon>
        <polygon id="path-7" points="0.429686916 0.200258411 4.22608879 0.200258411 4.22608879 5.71962617 0.429686916 5.71962617"></polygon>
        <polygon id="path-9" points="0.694791589 0.200401402 4.43042243 0.200401402 4.43042243 5.71962617 0.694791589 5.71962617"></polygon>
        <polygon id="path-11" points="0.443485514 0.246873364 4.23130794 0.246873364 4.23130794 5.71962617 0.443485514 5.71962617"></polygon>
        <polygon id="path-13" points="0.41081215 0.200258411 4.20721402 0.200258411 4.20721402 5.71962617 0.41081215 5.71962617"></polygon>
        <polygon id="path-15" points="0.242369159 0.246873364 4.0316215 0.246873364 4.0316215 5.71962617 0.242369159 5.71962617"></polygon>
    </defs>
    <g id="Page-1" stroke="none" stroke-width="1" fill="none" fill-rule="evenodd">
        <g id="01_IDEI_Home_escaparate" transform="translate(-130.000000, -39.000000)">
            <g id="Group" transform="translate(130.000000, 39.000000)">
                <g id="Group-3">
                    <mask id="mask-2" fill="white">
                        <use xlink:href="#path-1"></use>
                    </mask>
                    <g id="Clip-2"></g>
                    <path d="M19.7775379,1.35612336 C9.62019673,1.35612336 1.35533692,9.62026822 1.35533692,19.7783243 C1.35533692,29.9356654 9.62019673,38.1990953 19.7775379,38.1990953 C29.9355939,38.1990953 38.1997388,29.9356654 38.1997388,19.7783243 C38.1997388,9.62026822 29.9355939,1.35612336 19.7775379,1.35612336 M19.7775379,39.5553617 C8.87235561,39.5553617 -0.000214485981,30.6835065 -0.000214485981,19.7783243 C-0.000214485981,8.8724271 8.87235561,0.000571962617 19.7775379,0.000571962617 C30.6827201,0.000571962617 39.5552902,8.8724271 39.5552902,19.7783243 C39.5552902,30.6835065 30.6827201,39.5553617 19.7775379,39.5553617" id="Fill-1" fill="#030100" mask="url(#mask-2)"></path>
                </g>
                <polygon id="Fill-4" fill="#030100" points="5.84295561 22.3089729 15.6850023 17.0533514 15.6850023 7.21559439 5.84295561 12.4604916"></polygon>
                <path d="M16.362635,17.0537089 L35.9337659,27.1131014 C36.0867659,26.7770734 36.2304715,26.4346107 36.3634528,26.0871435 L16.1967659,7.21523692 L16.362635,17.0537089 Z" id="Fill-6" fill="#55565A"></path>
                <path d="M35.6384902,27.730535 L16.362635,17.8255724 L16.362635,27.6490304 L29.6772098,34.5025724 C32.2024248,32.8024136 34.2629201,30.4680911 35.6384902,27.730535" id="Fill-8" fill="#55565A"></path>
                <path d="M16.362635,37.1827178 C17.4708126,37.3993486 18.6133079,37.515886 19.7844014,37.515886 C23.1661304,37.515886 26.3255089,36.5692879 29.0144481,34.9270402 L16.362635,28.4166757 L16.362635,37.1827178 Z" id="Fill-10" fill="#55565A"></path>
                <path d="M15.6847164,17.8258584 L5.84266963,23.0686107 L5.84266963,30.7379145 C6.24876308,31.2526808 6.68059486,31.7467136 7.14030981,32.213578 L15.6847164,27.6486014 L15.6847164,17.8258584 Z" id="Fill-12" fill="#030100"></path>
                <path d="M7.64563879,32.7051799 C9.86485374,34.7906986 12.6209986,36.3092593 15.6845734,37.034222 L15.6845734,28.4168902 L7.64563879,32.7051799 Z" id="Fill-14" fill="#030100"></path>
                <polygon id="Fill-16" fill="#030100" points="67.5377033 3.37179112 67.5377033 4.00738458 63.3588014 4.00738458 63.3588014 35.0728192 67.5377033 35.0728192 67.5377033 35.7084126 52.5958949 35.7084126 52.5958949 35.0728192 56.7733668 35.0728192 56.7733668 4.00738458 52.5958949 4.00738458 52.5958949 3.37179112"></polygon>
                <path d="M83.9334407,35.2088748 C85.9009921,35.2088748 87.5818472,34.975085 88.9745762,34.5053607 C90.3665902,34.0363514 91.5405435,33.400043 92.4942911,32.5978654 C93.4487537,31.7964028 94.2044593,30.8791178 94.7649827,29.8503 C95.3255061,28.8207673 95.7480435,27.7376131 96.0375995,26.6022673 C96.3242958,25.4669215 96.5137584,24.3315757 96.6045575,23.1962299 C96.6960715,22.0601692 96.7403986,20.9934589 96.7403986,19.9946692 C96.7403986,17.5416645 96.5888285,15.3245944 96.2864033,13.3405991 C95.9832631,11.3580336 95.3855621,9.66216449 94.4925855,8.2544215 C93.5996089,6.84596355 92.342721,5.7635243 90.7226369,5.00710374 C89.1025528,4.24996822 86.9762818,3.87104299 84.341679,3.87104299 C83.7361136,3.87104299 83.1913192,3.87962243 82.7065808,3.8939215 C82.2218425,3.90965047 81.8286182,3.94682804 81.526193,4.00688411 L81.526193,35.0730336 C82.4034407,35.1638327 83.2063332,35.2088748 83.9334407,35.2088748 Z M70.7618565,4.00688411 L70.7618565,3.37200561 L74.9407584,3.37200561 C76.4850575,3.37200561 78.0293565,3.34841215 79.5729407,3.30337009 C81.1179547,3.25832804 82.6615388,3.23473458 84.2058379,3.23473458 C85.5685388,3.23473458 87.0063098,3.3262486 88.5205808,3.50784673 C90.0341369,3.68944486 91.5333939,4.01546355 93.016207,4.48375794 C94.499735,4.9541972 95.907478,5.58264112 97.2401509,6.36908972 C98.5728238,7.15696822 99.7532117,8.15575794 100.782744,9.36617383 C101.811562,10.5780196 102.628754,12.0165056 103.235749,13.6816318 C103.841314,15.3474729 104.14374,17.3000103 104.14374,19.5399589 C104.14374,21.7513093 103.841314,23.6888327 103.235749,25.3539589 C102.628754,27.019085 101.820142,28.457571 100.806338,29.6687019 C99.7911042,30.8791178 98.6335949,31.8793374 97.33095,32.665071 C96.0290201,33.4536645 94.6741836,34.0813935 93.2671556,34.5504028 C91.8586977,35.0201271 90.4652537,35.3447159 89.0882537,35.527029 C87.7098238,35.7086271 86.4307724,35.7994262 85.2503846,35.7994262 C83.5244874,35.7994262 81.8050248,35.7836972 80.0955715,35.7543841 C78.3846883,35.7236411 76.6666556,35.7086271 74.9407584,35.7086271 L70.7618565,35.7086271 L70.7618565,35.0730336 L74.9407584,35.0730336 L74.9407584,4.00688411 L70.7618565,4.00688411 Z" id="Fill-18" fill="#030100"></path>
                <path d="M131.665651,3.37179112 L131.665651,11.1376136 L131.0751,11.1376136 C130.92353,10.6235621 130.666862,9.96509019 130.30295,9.16291262 C129.939754,8.36073505 129.432852,7.58072103 128.78153,6.82287056 C128.130207,6.06716495 127.290137,5.40869299 126.260605,4.84745467 C125.231072,4.28764626 123.974184,4.00738458 122.491371,4.00738458 L115.269628,4.00738458 L115.269628,18.0419173 L117.813432,18.0419173 C118.933049,18.0419173 119.880362,17.8824827 120.652511,17.5650435 C121.423946,17.2461743 122.066689,16.792179 122.58217,16.2016276 C123.096936,15.6110762 123.520189,14.9004126 123.853357,14.0674921 C124.186525,13.2345715 124.458922,12.3037023 124.671264,11.2741696 L125.261815,11.2741696 L125.261815,25.3995014 L124.671264,25.3995014 C124.458922,24.5215388 124.209404,23.6736042 123.921993,22.8556977 C123.634581,22.0377911 123.248507,21.3192631 122.763768,20.6979687 C122.27903,20.0781042 121.680614,19.5855014 120.96995,19.2223051 C120.258572,18.8591089 119.372745,18.6767958 118.312469,18.6767958 L115.269628,18.6767958 L115.269628,35.0728192 L122.718011,35.0728192 C124.111455,35.0728192 125.367628,34.8383145 126.48796,34.3685902 C127.607577,33.8995808 128.599932,33.2411089 129.46288,32.3931743 C130.325829,31.5452397 131.045072,30.5535995 131.620609,29.4182537 C132.194717,28.2829079 132.633698,27.0646276 132.936838,25.7619827 L133.52739,25.7619827 L133.52739,35.7084126 L104.506007,35.7084126 L104.506007,35.0728192 L108.684193,35.0728192 L108.684193,4.00738458 L104.506007,4.00738458 L104.506007,3.37179112 L131.665651,3.37179112 Z" id="Fill-20" fill="#030100"></path>
                <g id="Group-24" transform="translate(137.271028, 2.859813)">
                    <mask id="mask-4" fill="white">
                        <use xlink:href="#path-3"></use>
                    </mask>
                    <g id="Clip-23"></g>
                    <polygon id="Fill-22" fill="#030100" mask="url(#mask-4)" points="15.0591322 0.511978037 15.0591322 1.1475715 10.8802304 1.1475715 10.8802304 32.2130061 15.0591322 32.2130061 15.0591322 32.8485995 0.117323832 32.8485995 0.117323832 32.2130061 4.29479579 32.2130061 4.29479579 1.1475715 0.117323832 1.1475715 0.117323832 0.511978037"></polygon>
                </g>
                <g id="Group-27" transform="translate(0.000000, 48.616822)">
                    <mask id="mask-6" fill="white">
                        <use xlink:href="#path-5"></use>
                    </mask>
                    <g id="Clip-26"></g>
                    <path d="M2.47759907,5.71984065 C1.94352897,5.71984065 1.45593084,5.5217986 1.09058972,5.15574252 C0.579398131,4.64455093 0.579398131,4.11119579 0.579398131,2.96083598 C0.579398131,1.80904626 0.579398131,1.27569112 1.09058972,0.764499533 C1.45593084,0.399158411 1.94352897,0.200401402 2.47759907,0.200401402 C3.45279533,0.200401402 4.17775794,0.795242523 4.36078598,1.81691075 L3.76594486,1.81691075 C3.6215243,1.15343411 3.15537477,0.719457477 2.47759907,0.719457477 C2.11940748,0.719457477 1.77694486,0.856728505 1.53958037,1.10052757 C1.19711776,1.45085467 1.15851028,1.82477523 1.15851028,2.96083598 C1.15851028,4.09618178 1.19711776,4.47010234 1.53958037,4.81971449 C1.77694486,5.0642285 2.11940748,5.20078458 2.47759907,5.20078458 C3.15537477,5.20078458 3.63582336,4.76680794 3.78095888,4.10333131 L4.36078598,4.10333131 C4.18490748,5.12499953 3.44564579,5.71984065 2.47759907,5.71984065" id="Fill-25" fill="#030100" mask="url(#mask-6)"></path>
                </g>
                <g id="Group-30" transform="translate(5.004673, 48.616822)">
                    <mask id="mask-8" fill="white">
                        <use xlink:href="#path-7"></use>
                    </mask>
                    <g id="Clip-29"></g>
                    <path d="M3.26590654,1.10824907 C3.02925701,0.863735047 2.68607944,0.719314486 2.32788785,0.719314486 C1.97041121,0.719314486 1.62723364,0.863735047 1.39058411,1.10824907 C1.04740654,1.45857617 1.00951402,1.82463224 1.00951402,2.96069299 C1.00951402,4.09603879 1.04740654,4.46137991 1.39058411,4.81313692 C1.62723364,5.05622103 1.97041121,5.20135654 2.32788785,5.20135654 C2.68607944,5.20135654 3.02925701,5.05622103 3.26590654,4.81313692 C3.60836916,4.46137991 3.64626168,4.09603879 3.64626168,2.96069299 C3.64626168,1.82463224 3.60836916,1.45857617 3.26590654,1.10824907 M3.71561215,5.15559953 C3.34955607,5.52165561 2.86910748,5.71969766 2.32788785,5.71969766 C1.78738318,5.71969766 1.30621963,5.52165561 0.940878505,5.15559953 C0.429686916,4.64440794 0.429686916,4.1110528 0.429686916,2.96069299 C0.429686916,1.80890327 0.429686916,1.27554813 0.940878505,0.765071495 C1.30621963,0.399015421 1.78738318,0.200258411 2.32788785,0.200258411 C2.86910748,0.200258411 3.34955607,0.399015421 3.71561215,0.765071495 C4.22608879,1.27554813 4.22608879,1.80890327 4.22608879,2.96069299 C4.22608879,4.1110528 4.22608879,4.64440794 3.71561215,5.15559953" id="Fill-28" fill="#030100" mask="url(#mask-8)"></path>
                </g>
                <polygon id="Fill-31" fill="#030100" points="14.0551234 54.2906201 11.1745766 49.9379846 11.1745766 54.2906201 10.5947495 54.2906201 10.5947495 48.8634098 11.1438336 48.8634098 14.0250953 53.2010313 14.0250953 48.8634098 14.6049224 48.8634098 14.6049224 54.2906201"></polygon>
                <g id="Group-35" transform="translate(15.014019, 48.616822)">
                    <mask id="mask-10" fill="white">
                        <use xlink:href="#path-9"></use>
                    </mask>
                    <g id="Clip-34"></g>
                    <path d="M2.55438505,5.71984065 C1.73862336,5.71984065 1.20526822,5.51393411 0.694791589,5.00345748 L1.0908757,4.60665841 C1.54129626,5.05636402 1.96025888,5.20078458 2.56939907,5.20078458 C3.3629972,5.20078458 3.85059533,4.82829393 3.85059533,4.19484533 C3.85059533,3.91315374 3.76623084,3.66935467 3.59178224,3.51635467 C3.41590374,3.36406963 3.27934766,3.31902757 2.8825486,3.25825654 L2.24981495,3.15816308 C1.8237028,3.08952757 1.48767477,2.9529715 1.25174019,2.74706495 C0.977198131,2.50255093 0.839927103,2.16723785 0.839927103,1.73326121 C0.839927103,0.810971495 1.50268879,0.200401402 2.57726355,0.200401402 C3.27148318,0.200401402 3.72905327,0.375564953 4.1937729,0.795242523 L3.82056729,1.16916308 C3.48525421,0.863878037 3.12634766,0.703728505 2.55438505,0.703728505 C1.83013738,0.703728505 1.41117477,1.10839206 1.41117477,1.71038271 C1.41117477,1.97706028 1.48767477,2.19011636 1.65497383,2.33596682 C1.8237028,2.48038738 2.10467944,2.58691542 2.38708598,2.63267243 L2.9819271,2.72418645 C3.49240374,2.7999715 3.74406729,2.90649953 3.97213738,3.10525654 C4.26955794,3.35620514 4.43042243,3.73084065 4.43042243,4.18054626 C4.43042243,5.13286402 3.68258131,5.71984065 2.55438505,5.71984065" id="Fill-33" fill="#030100" mask="url(#mask-10)"></path>
                </g>
                <polygon id="Fill-36" fill="#030100" points="22.2484164 49.3816079 22.2484164 54.2904771 21.6685893 54.2904771 21.6685893 49.3816079 20.0992668 49.3816079 20.0992668 48.8632668 23.8191687 48.8632668 23.8191687 49.3816079"></polygon>
                <path d="M26.8600794,49.3816079 L25.4115841,49.3816079 L25.4115841,51.3713229 L26.8600794,51.3713229 C27.4928131,51.3713229 27.9425187,51.0438743 27.9425187,50.3796827 C27.9425187,49.717636 27.4928131,49.3816079 26.8600794,49.3816079 Z M27.9503832,54.2904771 L26.7156589,51.8817995 L25.4115841,51.8817995 L25.4115841,54.2904771 L24.832472,54.2904771 L24.832472,48.8632668 L26.912986,48.8632668 C27.8581542,48.8632668 28.5216308,49.4352294 28.5216308,50.3732481 C28.5216308,51.1654164 28.0411822,51.6837575 27.340528,51.828893 L28.6288738,54.2904771 L27.9503832,54.2904771 Z" id="Fill-38" fill="#030100"></path>
                <g id="Group-42" transform="translate(29.313084, 48.616822)">
                    <mask id="mask-12" fill="white">
                        <use xlink:href="#path-11"></use>
                    </mask>
                    <g id="Clip-41"></g>
                    <path d="M2.33382196,5.71984065 C1.23636869,5.71984065 0.443485514,4.96485 0.443485514,3.8831257 L0.443485514,0.246873364 L1.02259766,0.246873364 L1.02259766,3.83665374 C1.02259766,4.66027991 1.54093879,5.20078458 2.33382196,5.20078458 C3.12599019,5.20078458 3.65219579,4.66027991 3.65219579,3.83665374 L3.65219579,0.246873364 L4.23130794,0.246873364 L4.23130794,3.8831257 C4.23130794,4.96485 3.43127523,5.71984065 2.33382196,5.71984065" id="Fill-40" fill="#030100" mask="url(#mask-12)"></path>
                </g>
                <polygon id="Fill-43" fill="#030100" points="36.5098037 52.0500995 36.5098037 54.2907631 35.9299766 54.2907631 35.9299766 52.0500995 34.3148972 48.8635528 34.9397664 48.8635528 36.2202477 51.4631229 37.485 48.8635528 38.1105841 48.8635528"></polygon>
                <polygon id="Fill-45" fill="#030100" points="38.9563023 54.2906201 38.9563023 48.8634098 42.3251621 48.8634098 42.3251621 49.3817509 39.5354145 49.3817509 39.5354145 51.2956808 41.914064 51.2956808 41.914064 51.813307 39.5354145 51.813307 39.5354145 53.772279 42.3251621 53.772279 42.3251621 54.2906201"></polygon>
                <polygon id="Fill-47" fill="#030100" points="46.9897318 54.2906201 44.109185 49.9379846 44.109185 54.2906201 43.5293579 54.2906201 43.5293579 48.8634098 44.0784421 48.8634098 46.9597037 53.2010313 46.9597037 48.8634098 47.5395308 48.8634098 47.5395308 54.2906201"></polygon>
                <path d="M51.9364935,49.778121 C51.6540869,49.488565 51.2887458,49.381322 50.8690682,49.381322 L49.6872505,49.381322 L49.6872505,53.772565 L50.8690682,53.772565 C51.2887458,53.772565 51.6540869,53.665322 51.9364935,53.3757659 C52.3096991,52.9868313 52.294685,52.1789341 52.294685,51.5168874 C52.294685,50.8526958 52.3096991,50.1670556 51.9364935,49.778121 M52.3404421,53.787579 C52.0129935,54.1150276 51.5325449,54.2909061 50.9684467,54.2909061 L49.1088533,54.2909061 L49.1088533,48.8636958 L50.9684467,48.8636958 C51.5325449,48.8636958 52.0129935,49.0388593 52.3404421,49.3670229 C52.9045402,49.9304061 52.8745121,50.7611818 52.8745121,51.5168874 C52.8745121,52.2704481 52.9045402,53.2234808 52.3404421,53.787579" id="Fill-49" fill="#030100"></path>
                <g id="Group-53" transform="translate(53.621495, 48.616822)">
                    <mask id="mask-14" fill="white">
                        <use xlink:href="#path-13"></use>
                    </mask>
                    <g id="Clip-52"></g>
                    <path d="M3.24631682,1.10824907 C3.01038224,0.863735047 2.66648972,0.719314486 2.30901308,0.719314486 C1.9508215,0.719314486 1.60764393,0.863735047 1.37170935,1.10824907 C1.02781682,1.45857617 0.990639252,1.82463224 0.990639252,2.96069299 C0.990639252,4.09603879 1.02781682,4.46137991 1.37170935,4.81313692 C1.60764393,5.05622103 1.9508215,5.20135654 2.30901308,5.20135654 C2.66648972,5.20135654 3.01038224,5.05622103 3.24631682,4.81313692 C3.58877944,4.46137991 3.62810187,4.09603879 3.62810187,2.96069299 C3.62810187,1.82463224 3.58877944,1.45857617 3.24631682,1.10824907 M3.69602243,5.15559953 C3.32996636,5.52165561 2.85023271,5.71969766 2.30901308,5.71969766 C1.76779346,5.71969766 1.28805981,5.52165561 0.921288785,5.15559953 C0.41081215,4.64440794 0.41081215,4.1110528 0.41081215,2.96069299 C0.41081215,1.80890327 0.41081215,1.27554813 0.921288785,0.765071495 C1.28805981,0.399015421 1.76779346,0.200258411 2.30901308,0.200258411 C2.85023271,0.200258411 3.32996636,0.399015421 3.69602243,0.765071495 C4.20721402,1.27554813 4.20721402,1.80890327 4.20721402,2.96069299 C4.20721402,4.1110528 4.20721402,4.64440794 3.69602243,5.15559953" id="Fill-51" fill="#030100" mask="url(#mask-14)"></path>
                </g>
                <g id="Group-56" transform="translate(60.771028, 48.616822)">
                    <mask id="mask-16" fill="white">
                        <use xlink:href="#path-15"></use>
                    </mask>
                    <g id="Clip-55"></g>
                    <path d="M2.13342056,5.71984065 C1.03596729,5.71984065 0.242369159,4.96485 0.242369159,3.8831257 L0.242369159,0.246873364 L0.822196262,0.246873364 L0.822196262,3.83665374 C0.822196262,4.66027991 1.34125234,5.20078458 2.13342056,5.20078458 C2.92630374,5.20078458 3.45250935,4.66027991 3.45250935,3.83665374 L3.45250935,0.246873364 L4.0316215,0.246873364 L4.0316215,3.8831257 C4.0316215,4.96485 3.23087383,5.71984065 2.13342056,5.71984065" id="Fill-54" fill="#030100" mask="url(#mask-16)"></path>
                </g>
                <polygon id="Fill-57" fill="#030100" points="69.7565607 54.2906201 66.8752991 49.9379846 66.8752991 54.2906201 66.2961869 54.2906201 66.2961869 48.8634098 66.8445561 48.8634098 69.7265327 53.2010313 69.7265327 48.8634098 70.3063598 48.8634098 70.3063598 54.2906201"></polygon>
                <polygon id="Fill-59" fill="#030100" points="78.4072093 54.2906201 77.3483636 54.2906201 77.3483636 51.1276668 76.3109664 53.1853023 75.5945832 53.1853023 74.5507514 51.1276668 74.5507514 54.2906201 73.4919056 54.2906201 73.4919056 48.8641248 74.5314477 48.8641248 75.9434804 51.7990079 77.3483636 48.8641248 78.4072093 48.8641248"></polygon>
                <path d="M82.5083958,47.0419234 L81.6390126,48.3374187 L80.975536,48.3374187 L81.4631341,47.0419234 L82.5083958,47.0419234 Z M83.2469425,54.2908346 L79.6728911,54.2908346 L79.6728911,48.8643393 L83.2469425,48.8643393 L83.2469425,49.8087925 L80.7324519,49.8087925 L80.7324519,51.0821243 L82.8744519,51.0821243 L82.8744519,52.0272925 L80.7324519,52.0272925 L80.7324519,53.3456664 L83.2469425,53.3456664 L83.2469425,54.2908346 Z" id="Fill-61" fill="#030100"></path>
                <polygon id="Fill-63" fill="#030100" points="88.2091472 54.2906201 86.9980164 54.2906201 85.9456051 52.4002836 84.9010584 54.2906201 83.6899276 54.2906201 85.3736425 51.5087369 83.7964556 48.8641248 85.0004369 48.8641248 85.9456051 50.6164752 86.8986379 48.8641248 88.0947547 48.8641248 86.5175678 51.5087369"></polygon>
                <polygon id="Fill-65" fill="#030100" points="88.8801308 54.2906916 89.9396916 54.2906916 89.9396916 48.8641963 88.8801308 48.8641963"></polygon>
                <path d="M95.0158598,52.6219192 C94.9243458,53.175293 94.6927009,53.6021201 94.3216402,53.9024005 C93.9713131,54.1919565 93.5373364,54.3363771 93.0189953,54.3363771 C92.4391682,54.3363771 91.952285,54.138335 91.555486,53.7422509 C91.3116869,53.4984519 91.1543972,53.1853023 91.0829019,52.8049472 C91.0414346,52.5804519 91.0221308,52.1722136 91.0221308,51.5773724 C91.0221308,50.9825313 91.0414346,50.574293 91.0829019,50.3497977 C91.1543972,49.9687276 91.3116869,49.6570079 91.555486,49.4124939 C91.952285,49.0164098 92.4391682,48.8183678 93.0189953,48.8183678 C93.5416262,48.8183678 93.9834673,48.9656481 94.3416589,49.2602089 C94.6998505,49.5547696 94.9243458,49.9794519 95.0158598,50.5328257 L93.941285,50.5328257 C93.8140234,50.0194893 93.5094533,49.763536 93.0261449,49.763536 C92.7065607,49.763536 92.4599019,49.8829332 92.2875981,50.1217276 C92.1496121,50.314765 92.0816916,50.7995033 92.0816916,51.5773724 C92.0816916,51.9991949 92.0859813,52.2637276 92.0967056,52.3695407 C92.1324533,52.7105734 92.2161028,52.9572322 92.3483692,53.1095173 C92.5156682,53.29755 92.7415935,53.3912089 93.0261449,53.3912089 C93.5094533,53.3912089 93.8140234,53.1352556 93.941285,52.6219192 L95.0158598,52.6219192 Z" id="Fill-67" fill="#030100"></path>
                <path d="M98.6967967,51.5773724 C98.6967967,51.1605547 98.6917921,50.8967369 98.6817827,50.7852042 C98.6510397,50.4491762 98.5666752,50.2053771 98.4301192,50.0530921 C98.2578154,49.8600547 98.0311752,49.763536 97.7516285,49.763536 C97.4670771,49.763536 97.2382921,49.8600547 97.0659883,50.0530921 C96.933007,50.2053771 96.8529322,50.4491762 96.8214743,50.7852042 C96.811465,50.8767182 96.8064603,51.140536 96.8064603,51.5773724 C96.8064603,52.0142089 96.811465,52.2780266 96.8214743,52.3695407 C96.8529322,52.7055687 96.933007,52.9493678 97.0659883,53.1016528 C97.2382921,53.2946902 97.4670771,53.3912089 97.7516285,53.3912089 C98.0669229,53.3912089 98.3135818,53.2696668 98.4908902,53.0251528 C98.6281612,52.837835 98.6967967,52.3552416 98.6967967,51.5773724 M99.7563575,51.5773724 C99.7563575,52.1664939 99.733479,52.5754472 99.6884369,52.8049472 C99.6219463,53.1802977 99.4639416,53.4934472 99.2158528,53.7422509 C98.8190537,54.138335 98.3307407,54.3363771 97.7516285,54.3363771 C97.1667967,54.3363771 96.6770537,54.138335 96.2809696,53.7422509 C96.0371706,53.4984519 95.8798808,53.1853023 95.8083855,52.8049472 C95.7669182,52.5804519 95.7476145,52.1722136 95.7476145,51.5773724 C95.7476145,50.9825313 95.7669182,50.574293 95.8083855,50.3497977 C95.8798808,49.9687276 96.0371706,49.656293 96.2809696,49.4124939 C96.6770537,49.0164098 97.1667967,48.8183678 97.7516285,48.8183678 C98.3307407,48.8183678 98.8190537,49.0164098 99.2158528,49.4124939 C99.4639416,49.6612977 99.6219463,49.9744472 99.6884369,50.3497977 C99.733479,50.5792977 99.7563575,50.9882509 99.7563575,51.5773724" id="Fill-68" fill="#030100"></path>
                <polygon id="Fill-69" fill="#030100" points="107.523395 54.2906201 106.46455 54.2906201 106.46455 51.1276668 105.427152 53.1853023 104.710769 53.1853023 103.666222 51.1276668 103.666222 54.2906201 102.607377 54.2906201 102.607377 48.8641248 103.647634 48.8641248 105.059666 51.7990079 106.46455 48.8641248 107.523395 48.8641248"></polygon>
                <polygon id="Fill-70" fill="#030100" points="112.363271 54.2906201 108.78922 54.2906201 108.78922 48.8641248 112.363271 48.8641248 112.363271 49.808578 109.848066 49.808578 109.848066 51.0826248 111.990781 51.0826248 111.990781 52.027078 109.848066 52.027078 109.848066 53.3461668 112.363271 53.3461668"></polygon>
                <path d="M116.105623,52.5073836 C116.105623,53.0814911 115.911871,53.5362014 115.525796,53.8715145 C115.170464,54.1818042 114.725763,54.3369491 114.192408,54.3369491 C113.633314,54.3369491 113.16931,54.1510612 112.797534,53.7800005 L113.498903,53.0872107 C113.702665,53.2895425 113.933595,53.3910659 114.192408,53.3910659 C114.761511,53.3910659 115.046777,53.0814911 115.046777,52.4616266 L115.046777,48.8639818 L116.105623,48.8639818 L116.105623,52.5073836 Z" id="Fill-71" fill="#030100"></path>
                <path d="M120.061602,51.5773724 C120.061602,51.1605547 120.056598,50.8967369 120.046588,50.7852042 C120.015845,50.4491762 119.931481,50.2053771 119.794925,50.0530921 C119.622621,49.8600547 119.395266,49.763536 119.116434,49.763536 C118.831883,49.763536 118.603098,49.8600547 118.430794,50.0530921 C118.297813,50.2053771 118.217023,50.4491762 118.18628,50.7852042 C118.176271,50.8767182 118.171266,51.140536 118.171266,51.5773724 C118.171266,52.0142089 118.176271,52.2780266 118.18628,52.3695407 C118.217023,52.7055687 118.297813,52.9493678 118.430794,53.1016528 C118.603098,53.2946902 118.831883,53.3912089 119.116434,53.3912089 C119.431014,53.3912089 119.678387,53.2696668 119.855696,53.0251528 C119.992967,52.837835 120.061602,52.3552416 120.061602,51.5773724 M121.120448,51.5773724 C121.120448,52.1664939 121.09757,52.5754472 121.052528,52.8049472 C120.986037,53.1802977 120.828747,53.4934472 120.579943,53.7422509 C120.183859,54.138335 119.694831,54.3363771 119.116434,54.3363771 C118.531602,54.3363771 118.041859,54.138335 117.64506,53.7422509 C117.401261,53.4984519 117.243971,53.1853023 117.172476,52.8049472 C117.131724,52.5804519 117.111705,52.1722136 117.111705,51.5773724 C117.111705,50.9825313 117.131724,50.574293 117.172476,50.3497977 C117.243971,49.9687276 117.401261,49.656293 117.64506,49.4124939 C118.041859,49.0164098 118.531602,48.8183678 119.116434,48.8183678 C119.694831,48.8183678 120.183859,49.0164098 120.579943,49.4124939 C120.828747,49.6612977 120.986037,49.9744472 121.052528,50.3497977 C121.09757,50.5792977 121.120448,50.9882509 121.120448,51.5773724" id="Fill-72" fill="#030100"></path>
                <path d="M125.031386,50.5217439 C125.031386,50.3094028 124.959175,50.137814 124.817614,50.0062626 C124.675339,49.8747112 124.490166,49.8089355 124.261381,49.8089355 L123.262591,49.8089355 L123.262591,51.2345523 L124.261381,51.2345523 C124.490166,51.2345523 124.675339,51.1687766 124.817614,51.0379402 C124.959175,50.9056738 125.031386,50.734085 125.031386,50.5217439 Z M126.311152,54.2902626 L125.084292,54.2902626 L124.025446,52.1260991 L123.262591,52.1260991 L123.262591,54.2902626 L122.20303,54.2902626 L122.20303,48.8644822 L124.330731,48.8644822 C124.868376,48.8644822 125.300208,49.0260617 125.625512,49.3513654 C125.935801,49.6616551 126.090231,50.0534495 126.090231,50.5253187 C126.090231,50.8863701 125.991568,51.1959449 125.792811,51.4554729 C125.614787,51.6842579 125.383857,51.8494121 125.100021,51.9509355 L126.311152,54.2902626 Z" id="Fill-73" fill="#030100"></path>
                <polygon id="Fill-74" fill="#030100" points="130.245182 52.7199393 152.330089 52.7199393 152.330089 51.4494673 130.245182 51.4494673"></polygon>
            </g>
        </g>
    </g>
</svg>