<svg xmlns="http://www.w3.org/2000/svg" viewBox="0 0 232.54 320.77"><title>Asset 1</title><g id="Layer_2" data-name="Layer 2"><g id="Layer_1-2" data-name="Layer 1"><path d="M52.31,320.77c-3.91,0-5.06-2.77-5.06-6.42s1.32-6.41,5.08-6.41,5,2.75,5,6.41S56,320.77,52.31,320.77Zm0-12.12c-3.28,0-4.14,2.42-4.14,5.7s.86,5.71,4.14,5.71,4.08-2.51,4.08-5.71S55.58,308.65,52.31,308.65Z" style="fill:#767677"/><path d="M70.09,308.85v5h5.46v.69H70.09v6h-.88V308.13h6.56v.72Z" style="fill:#767677"/><path d="M87.33,320.47V308.13h.87v12.34Z" style="fill:#767677"/><path d="M104.78,320.77c-3.59,0-4.88-2.78-4.88-6.46,0-3.44,1.16-6.37,5-6.37a8.69,8.69,0,0,1,2.88.44l-.35.8a6.1,6.1,0,0,0-2.53-.53c-3.28,0-4.08,2.78-4.08,5.64,0,3,.88,5.77,4,5.77a7.31,7.31,0,0,0,2.78-.62l.35.8A9.07,9.07,0,0,1,104.78,320.77Z" style="fill:#767677"/><path d="M119.15,320.47V308.13H120v12.34Z" style="fill:#767677"/><path d="M139.69,320.47l-6.54-11.31v11.31h-.76V308.13h1.18l6.5,11.31V308.13h.84v12.34Z" style="fill:#767677"/><path d="M161.52,320.47l-1.43-3.87h-5.42l-1.52,3.87h-.9l5-12.34h.59l4.65,12.34Zm-4-11-2.58,6.5h4.92Z" style="fill:#767677"/><path d="M176.41,320.77a12,12,0,0,1-3.12-.53l.34-.8a8,8,0,0,0,2.8.62c1.43,0,3.25-.53,3.25-2.7,0-1.81-1.51-2.38-3.1-2.94s-3.29-1.24-3.29-3.37,1.78-3.11,4.06-3.11a9,9,0,0,1,2.85.54l-.34.8a6,6,0,0,0-2.63-.63c-1.66,0-3,.56-3,2.4,0,1.47,1.29,2,2.72,2.5,1.75.61,3.66,1.31,3.66,3.77C180.59,320,178.68,320.77,176.41,320.77Z" style="fill:#767677"/><path d="M205.17,0H22.66A22.42,22.42,0,0,0,.31,22.37V201.7a22.43,22.43,0,0,0,22.35,22.38H205.17a22.43,22.43,0,0,0,22.36-22.38v-19l-172.3.05A13.66,13.66,0,0,1,41.6,169.16V54.92A13.66,13.66,0,0,1,55.23,41.29H172.61a13.66,13.66,0,0,1,13.64,13.63v59a13.67,13.67,0,0,1-13.64,13.63H141V86.4a5.18,5.18,0,0,0-5.16-5.16H93.78a5.17,5.17,0,0,0-5.16,5.16v45.72a5.17,5.17,0,0,0,5.16,5.16H205.17a22.41,22.41,0,0,0,22.3-21.17h.06V22.37A22.43,22.43,0,0,0,205.17,0Z" style="fill:#cf232c"/><path d="M7.87,282.16V271.07H26.68v-7.34H7.87V253.55H29.24v-7.4H5.78A5.41,5.41,0,0,0,0,251.67V284c0,3.25,2.38,5.51,5.78,5.51H29.39v-7.39Z" style="fill:#767677"/><path d="M53.52,265l-7.68-1.76c-4-.89-4.75-2.46-4.75-4.71,0-4.47,4-5.14,6.37-5.14,3.78,0,7.46,1.14,10.91,2.3L63,257.24l1.88-7.47-4.34-1.39a39.94,39.94,0,0,0-13.2-2.49c-7,0-14.13,4-14.13,12.8,0,4.42,1.91,10.1,11.05,12.12l7.67,1.76c4,.91,4.82,2.49,4.82,4.76,0,4.83-4.92,5.2-6.43,5.2a36.64,36.64,0,0,1-11.17-2.3l-4.63-1.55-1.91,7.47L37,287.54A41.23,41.23,0,0,0,50.43,290c7.07,0,14.2-4,14.2-12.81C64.63,272.73,62.7,267,53.52,265Z" style="fill:#767677"/><path d="M86.52,246.15H75.07a5.41,5.41,0,0,0-5.77,5.52v37.88H77V273.9h8.93c8.37,0,14-5.58,14-13.87S94.54,246.15,86.52,246.15Zm-.58,20.51H77V253.34h9.3c3.83,0,6.11,2.48,6.11,6.63C92.42,264.29,90.11,266.66,85.94,266.66Z" style="fill:#767677"/><path d="M121.29,249.19a5.31,5.31,0,0,0-9.93,0L96,289.55h8.29l3.41-8.95h16.84l3.41,8.95h8.39Zm-11,24.18,6-15.95L122,273.37Z" style="fill:#767677"/><path d="M163.52,280.59a33.79,33.79,0,0,1-8.77,1.83c-7.69,0-11.59-4.86-11.59-14.46S147,253.5,154.69,253.5c2,0,4.62.54,8.82,1.83l4.91,1.51,1.59-7.43-4.43-1.36c-4.35-1.33-7.53-2.11-10.94-2.11-12,0-19.51,8.44-19.51,22,0,14,7.11,22,19.51,22,3.41,0,6.59-.78,10.94-2.11l4.43-1.36-1.59-7.43Z" style="fill:#767677"/><rect x="175.39" y="246.15" width="7.87" height="43.4" style="fill:#767677"/><path d="M212.44,249.2a5.31,5.31,0,0,0-9.93,0l-15.35,40.32h8.31l3.41-8.95h16.84l3.4,8.95h8.39Zm-11,24.17,5.94-15.95,5.75,15.95Z" style="fill:#767677"/><path d="M226.28,258.47a6.26,6.26,0,1,1,6.26-6.27A6.17,6.17,0,0,1,226.28,258.47Zm0-11.55a5.29,5.29,0,1,0,5.25,5.28A5.14,5.14,0,0,0,226.28,246.92Zm2,8.48-1.13-2.34H225v2.34h-.95v-5.67c0-.6.38-.81.92-.81h2a1.75,1.75,0,0,1,1.88,1.84,2.18,2.18,0,0,1-.33,1.17l-.56.81,1.34,2.66Zm-1.38-5.63H225v2.45h2.23l.41-.61a1.67,1.67,0,0,0,.22-.85A.92.92,0,0,0,226.87,249.77Z" style="fill:#767677"/></g></g></svg>