<svg xmlns="http://www.w3.org/2000/svg" viewBox="0 0 258.21 120.64"><title>Asset 1</title><g id="Layer_2" data-name="Layer 2"><g id="logos"><path d="M129.87,68.31V42.39a1,1,0,0,0-1.09-1.1h-2V35.9h6a4.35,4.35,0,0,1,2.62.6,2.76,2.76,0,0,1,.78,2.3v13h1.89a2.71,2.71,0,0,0,2.4-.95l5.19-8h7.05l-6.45,9.59a11.72,11.72,0,0,1-1,1.2,4.73,4.73,0,0,1-.72.65l-.2.15v.1a4.09,4.09,0,0,1,1.79,2l2.9,5.5a2.14,2.14,0,0,0,2.1.94h1.7v5.35h-4.7a5.34,5.34,0,0,1-2.45-.43,4.27,4.27,0,0,1-1.54-1.77l-4.25-8a2.5,2.5,0,0,0-2.35-.95h-1.39V68.31Z" style="fill:#fffdfd"/><path d="M155,61a7.14,7.14,0,0,1,.8-3.4,6.23,6.23,0,0,1,2.22-2.39,18.63,18.63,0,0,1,3-1.53,14,14,0,0,1,3.42-.87c1.24-.17,2.29-.28,3.14-.35s1.71-.1,2.57-.1h.8v-.2a5.4,5.4,0,0,0-1.12-3.85,4.84,4.84,0,0,0-3.57-1.14,7.06,7.06,0,0,0-2.3.37,1.37,1.37,0,0,0-1.1,1.32v1.35H157v-2.7a4.05,4.05,0,0,1,1-2.79,5.52,5.52,0,0,1,2.7-1.62,20,20,0,0,1,3-.65,19.34,19.34,0,0,1,2.62-.18q11,0,11,10.14v9.49a1,1,0,0,0,1.1,1.1h2v5.34h-5.69a3.38,3.38,0,0,1-2.45-.78,2.69,2.69,0,0,1-.8-2l.05-1.1h-.1c-.06.14-.15.3-.25.5a6.82,6.82,0,0,1-.8,1.08,8.89,8.89,0,0,1-1.44,1.37,7.91,7.91,0,0,1-2.2,1.07,9.77,9.77,0,0,1-9.14-1.67A7.17,7.17,0,0,1,155,61m6.39-.3a3.15,3.15,0,0,0,1,2.32,3.92,3.92,0,0,0,2.85,1,5.06,5.06,0,0,0,4.12-2.12,7.26,7.26,0,0,0,1.67-4.57v-.6H170q-8.53,0-8.54,4" style="fill:#fffdfd"/><path d="M185.5,68.31v-19a1,1,0,0,0-1.09-1.1h-2V42.84h5.84q3.34,0,3.35,2.85v.75l-.1,1.09h.1a10.11,10.11,0,0,1,3.29-3.69,9.56,9.56,0,0,1,5.69-1.6q8.89,0,8.89,9.69v9.94a1,1,0,0,0,1.1,1.09h2v5.35h-6a2.91,2.91,0,0,1-3.4-3.4V53.23a7.06,7.06,0,0,0-.87-3.87A3.47,3.47,0,0,0,199.14,48a6.79,6.79,0,0,0-4.32,1.43,7.2,7.2,0,0,0-2.52,3.77,10.51,10.51,0,0,0-.5,3.39V68.31Z" style="fill:#fffdfd"/><path d="M215.12,61a7,7,0,0,1,.8-3.4,6.15,6.15,0,0,1,2.22-2.39,19,19,0,0,1,3-1.53,14,14,0,0,1,3.42-.87c1.25-.17,2.3-.28,3.15-.35s1.7-.1,2.57-.1h.8v-.2a5.4,5.4,0,0,0-1.13-3.85,4.84,4.84,0,0,0-3.57-1.14,7,7,0,0,0-2.29.37,1.36,1.36,0,0,0-1.1,1.32v1.35h-5.9v-2.7a4,4,0,0,1,1-2.79,5.45,5.45,0,0,1,2.69-1.62,20.27,20.27,0,0,1,3-.65,19.45,19.45,0,0,1,2.62-.18q11,0,11,10.14v9.49a1,1,0,0,0,1.1,1.1h2v5.34h-5.7a3.36,3.36,0,0,1-2.44-.78,2.65,2.65,0,0,1-.8-2l0-1.1h-.1l-.25.5a7.56,7.56,0,0,1-.8,1.08A9.38,9.38,0,0,1,229,67.36a7.77,7.77,0,0,1-2.2,1.07,9.14,9.14,0,0,1-3,.48,9.24,9.24,0,0,1-6.15-2.15A7.2,7.2,0,0,1,215.12,61m6.39-.3a3.11,3.11,0,0,0,1,2.32,3.88,3.88,0,0,0,2.84,1,5,5,0,0,0,4.12-2.12,7.22,7.22,0,0,0,1.68-4.57v-.6h-1.1q-8.53,0-8.54,4" style="fill:#fffdfd"/><path d="M245.68,59V47.88h-3.3v-5a3.44,3.44,0,0,0,3.45-3.45V35.9H252v6.94h5.79v5H252V58.17c0,1.83.52,3.09,1.57,3.77a6.27,6.27,0,0,0,3.47,1l1.15-.11v5.55a10.73,10.73,0,0,1-1.95.15,16.77,16.77,0,0,1-2.49-.18,12.48,12.48,0,0,1-2.75-.77A9,9,0,0,1,248.35,66a7.53,7.53,0,0,1-1.9-2.8,10.82,10.82,0,0,1-.77-4.27" style="fill:#fffdfd"/><path d="M105.08,89.38a67.84,67.84,0,0,1-15.45-3.2,65.16,65.16,0,0,0,1-16.37A67.46,67.46,0,0,0,65.68,22.37C60.74,18.44,56.12,16,51.56,15c-8.63-2-19.13,1.42-25.3,8l-.14,0A47.36,47.36,0,0,0,.79,28a1.39,1.39,0,0,0-.65,1.85A1.37,1.37,0,0,0,2,30.5a44.84,44.84,0,0,1,23.88-4.72c9.35.88,20,7.42,24.8,11.14C49.57,49.6,54.3,63,63.41,72.92A59.4,59.4,0,0,0,86.43,88a64.56,64.56,0,0,1-16,30.29,1.38,1.38,0,0,0,0,2,1.35,1.35,0,0,0,1,.39,1.43,1.43,0,0,0,1-.43A67.37,67.37,0,0,0,89.06,88.92a71.41,71.41,0,0,0,15.78,3.23H105a1.39,1.39,0,0,0,.12-2.77" style="fill:#ddd"/><path d="M110.64,5.06A40.56,40.56,0,0,0,52,29.27c-4.18,14.47.27,31.6,11.34,43.65,9.89,10.76,25,17.77,41.43,19.23h1a1.39,1.39,0,0,0,.13-2.77c-13-1.15-25-6.67-32.75-15.15C64.51,64.86,61,51.59,64.26,40.42a31.14,31.14,0,0,1,45-18.59,1.39,1.39,0,0,0,2.06-1.22V6.27a1.38,1.38,0,0,0-.71-1.21" style="fill:#fffdfd"/><path d="M110.64,19.4a33.93,33.93,0,0,0-49,20.25C58.1,51.73,61.82,66,71.07,76.11c8.25,9,20.84,14.83,34.54,16h1a1.39,1.39,0,0,0,.12-2.77c-10.34-.91-19.82-5.3-26-12-6.82-7.42-9.57-17.93-7-26.77a24.63,24.63,0,0,1,35.61-14.7,1.39,1.39,0,0,0,2.06-1.22v-14a1.38,1.38,0,0,0-.71-1.21" style="fill:#e8e8e8"/><rect x="220.51" y="35.9" width="13.08" height="4.19" style="fill:#ddd"/></g></g></svg>