<svg xmlns="http://www.w3.org/2000/svg" viewBox="0 0 263.37 82.69"><title>Asset 2</title><g id="Layer_2" data-name="Layer 2"><g id="logos"><polygon points="141.59 11 134.56 11 109.54 40.89 109.54 10.9 104.11 13.74 104.11 70.94 109.54 70.94 109.54 47.92 114.74 41.93 136.88 70.94 143.99 70.94 118.26 37.85 141.59 11" style="fill:#fffdfd"/><path d="M155.79,63.59V31h0V28.14L150.37,31v0h0V63c0,6.39,3,8.79,8.79,8.79V67.18C156.67,67.18,155.79,66.39,155.79,63.59Z" style="fill:#fffdfd"/><path d="M260.06,64.56V43.66c0-8-3.12-13.43-15.11-13.43a32.19,32.19,0,0,0-12,2.16v4.79a35.36,35.36,0,0,1,12-2c7.43,0,9.51,2.55,9.51,8.39v2.24l-10.55.64c-10.47.64-14.22,5.67-14.22,12.46s3.51,12.87,14,12.87a20.94,20.94,0,0,0,11.85-3.85c1.31,2.7,4,3.8,7.85,3.8V67.18C261.21,67.18,260.26,66.57,260.06,64.56Zm-5.6-.92c-3.43,2-6.31,3.2-10.63,3.2-7.59,0-8.47-4.32-8.47-7.92,0-4.63,2.48-7.59,8.15-8.15l11-1Z" style="fill:#fffdfd"/><path d="M239.29,22.91a.22.22,0,0,0,.2.14h15.93a.27.27,0,0,0,.19-.39l-1.75-4a.23.23,0,0,0-.2-.15H237.73c-.17,0-.27.22-.2.4Z" style="fill:#ddd"/><path d="M220.61,63.59V42.17c0-8-4.64-12-13.19-12-4,0-8.23,1.68-12.39,4.55-2.08-3-5.84-4.55-11.19-4.55a19.77,19.77,0,0,0-10.59,3.34V28.14L167.86,31v0h0V59.36h0V63c0,6.39,3.13,8.79,9.07,8.79V67.18c-2.56,0-3.47-.79-3.47-3.59V37.53a20.18,20.18,0,0,1,10.39-2.4c4.55,0,7.59,1.6,7.59,6.8V59.47h0V63c0,6.39,3.14,8.79,9.07,8.79V67.18c-2.55,0-3.46-.79-3.46-3.59V41.93a17,17,0,0,0-.48-4.16,20.57,20.57,0,0,1,10.87-2.64c4.55,0,7.58,1.6,7.59,6.77V63c0,6.39,3.13,8.79,9.07,8.79V67.18C221.52,67.18,220.61,66.39,220.61,63.59Z" style="fill:#fffdfd"/><polygon points="38.72 14.26 38.72 12.48 36.97 12.48 36.97 10.69 35.21 10.69 35.21 8.91 33.45 8.91 33.45 7.13 31.69 7.13 31.69 5.35 29.93 5.35 29.93 3.56 28.17 3.56 28.17 1.78 26.41 1.78 26.41 0 24.61 0 24.61 24.43 26.36 24.43 26.36 26.21 28.12 26.21 28.12 28 29.88 28 29.88 29.78 31.64 29.78 31.64 31.56 33.4 31.56 33.4 33.34 35.16 33.34 35.16 35.13 36.91 35.13 36.91 36.91 38.67 36.91 38.67 38.69 40.48 38.69 40.48 14.26 38.72 14.26" style="fill:#fffdfd"/><polygon points="43.91 14.26 43.91 12.48 45.67 12.48 45.67 10.69 47.43 10.69 47.43 8.91 49.19 8.91 49.19 7.13 50.95 7.13 50.95 5.35 52.71 5.35 52.71 3.56 54.47 3.56 54.47 1.78 56.22 1.78 56.22 0 58.03 0 58.03 24.43 56.27 24.43 56.27 26.21 54.52 26.21 54.52 28 52.76 28 52.76 29.78 51 29.78 51 31.56 49.24 31.56 49.24 33.34 47.48 33.34 47.48 35.13 45.72 35.13 45.72 36.91 43.97 36.91 43.97 38.69 42.16 38.69 42.16 14.26 43.91 14.26" style="fill:#e8e8e8"/><polygon points="38.72 68.44 38.72 70.22 36.97 70.22 36.97 72 35.21 72 35.21 73.78 33.45 73.78 33.45 75.56 31.69 75.56 31.69 77.35 29.93 77.35 29.93 79.13 28.17 79.13 28.17 80.91 26.41 80.91 26.41 82.69 24.61 82.69 24.61 58.26 26.36 58.26 26.36 56.48 28.12 56.48 28.12 54.7 29.88 54.7 29.88 52.92 31.64 52.92 31.64 51.13 33.4 51.13 33.4 49.35 35.16 49.35 35.16 47.57 36.91 47.57 36.91 45.79 38.67 45.79 38.67 44 40.48 44 40.48 68.44 38.72 68.44" style="fill:#e8e8e8"/><polygon points="43.91 68.44 43.91 70.22 45.67 70.22 45.67 72 47.43 72 47.43 73.78 49.19 73.78 49.19 75.56 50.95 75.56 50.95 77.35 52.71 77.35 52.71 79.13 54.47 79.13 54.47 80.91 56.22 80.91 56.22 82.69 58.03 82.69 58.03 58.26 56.27 58.26 56.27 56.48 54.52 56.48 54.52 54.7 52.76 54.7 52.76 52.92 51 52.92 51 51.13 49.24 51.13 49.24 49.35 47.48 49.35 47.48 47.57 45.72 47.57 45.72 45.79 43.97 45.79 43.97 44 42.16 44 42.16 68.44 43.91 68.44" style="fill:#fffdfd"/><polygon points="14.26 43.94 12.48 43.94 12.48 45.7 10.69 45.7 10.69 47.46 8.91 47.46 8.91 49.22 7.13 49.22 7.13 50.98 5.35 50.98 5.35 52.73 3.56 52.73 3.56 54.49 1.78 54.49 1.78 56.25 0 56.25 0 58.06 24.43 58.06 24.43 56.3 26.21 56.3 26.21 54.54 28 54.54 28 52.79 29.78 52.79 29.78 51.03 31.56 51.03 31.56 49.27 33.34 49.27 33.34 47.51 35.13 47.51 35.13 45.75 36.91 45.75 36.91 43.99 38.69 43.99 38.69 42.18 14.26 42.18 14.26 43.94" style="fill:#fffdfd"/><polygon points="14.26 38.73 12.48 38.73 12.48 36.97 10.69 36.97 10.69 35.22 8.91 35.22 8.91 33.46 7.13 33.46 7.13 31.7 5.35 31.7 5.35 29.94 3.56 29.94 3.56 28.18 1.78 28.18 1.78 26.42 0 26.42 0 24.61 24.43 24.61 24.43 26.37 26.21 26.37 26.21 28.13 28 28.13 28 29.89 29.78 29.89 29.78 31.65 31.56 31.65 31.56 33.41 33.34 33.41 33.34 35.16 35.13 35.16 35.13 36.92 36.91 36.92 36.91 38.68 38.69 38.68 38.69 40.49 14.26 40.49 14.26 38.73" style="fill:#e8e8e8"/><polygon points="68.41 43.94 70.19 43.94 70.19 45.7 71.97 45.7 71.97 47.46 73.75 47.46 73.75 49.22 75.54 49.22 75.54 50.98 77.32 50.98 77.32 52.73 79.1 52.73 79.1 54.49 80.88 54.49 80.88 56.25 82.67 56.25 82.67 58.06 58.23 58.06 58.23 56.3 56.45 56.3 56.45 54.54 54.67 54.54 54.67 52.79 52.89 52.79 52.89 51.03 51.11 51.03 51.11 49.27 49.32 49.27 49.32 47.51 47.54 47.51 47.54 45.75 45.76 45.75 45.76 43.99 43.98 43.99 43.98 42.18 68.41 42.18 68.41 43.94" style="fill:#e8e8e8"/><polygon points="68.41 38.73 70.19 38.73 70.19 36.97 71.97 36.97 71.97 35.22 73.75 35.22 73.75 33.46 75.54 33.46 75.54 31.7 77.32 31.7 77.32 29.94 79.1 29.94 79.1 28.18 80.88 28.18 80.88 26.42 82.67 26.42 82.67 24.61 58.23 24.61 58.23 26.37 56.45 26.37 56.45 28.13 54.67 28.13 54.67 29.89 52.89 29.89 52.89 31.65 51.11 31.65 51.11 33.41 49.32 33.41 49.32 35.16 47.54 35.16 47.54 36.92 45.76 36.92 45.76 38.68 43.98 38.68 43.98 40.49 68.41 40.49 68.41 38.73" style="fill:#fffdfd"/></g></g></svg>