<svg xmlns="http://www.w3.org/2000/svg" viewBox="0 0 181.1 113.45"><title>Asset 3</title><g id="Layer_2" data-name="Layer 2"><g id="logos"><path d="M43.12,109.3a6.33,6.33,0,0,1-3.54.82c-2.67,0-4.21-.6-5-1.59a1.76,1.76,0,0,1-.33-.49,2,2,0,0,1-.15-.37l1.32-.29a1.35,1.35,0,0,0,.2.37,2.66,2.66,0,0,0,1.1.84,7.91,7.91,0,0,0,2.75.44,6.12,6.12,0,0,0,2.92-.66,1.47,1.47,0,0,0,.68-1.15,1,1,0,0,0-.25-.66c-.39-.46-1.07-.55-2.23-.62-2.25-.16-3.67-.09-4.63-.44a2.13,2.13,0,0,1-1.45-2,2.46,2.46,0,0,1,1.38-2.24,7,7,0,0,1,3.24-.58,9.2,9.2,0,0,1,3.15.47,3.12,3.12,0,0,1,1,.55,2.86,2.86,0,0,1,.84,1.09l-1.33.28a1.84,1.84,0,0,0-.38-.53,6,6,0,0,0-3.33-.8,4.45,4.45,0,0,0-2.92.78,1.27,1.27,0,0,0-.38.88,1.1,1.1,0,0,0,.84,1,10,10,0,0,0,1.77.18c2.26.13,3.72.13,4.65.6a2.25,2.25,0,0,1,1.28,2,2.44,2.44,0,0,1-1.2,2.1" style="fill:#e8e8e8"/><polygon points="55.47 109.9 50.52 105.12 47.51 107.44 47.51 109.9 46.32 109.9 46.32 97.01 47.51 97.01 47.51 106.01 54.27 100.88 56.09 100.88 51.52 104.37 57.27 109.9 55.47 109.9" style="fill:#e8e8e8"/><path d="M63.17,110.6a5.46,5.46,0,0,1-1.39,2.24,4.19,4.19,0,0,1-2.52.61,8.16,8.16,0,0,1-1.86-.22V112.1a5,5,0,0,0,1.82.33,3.64,3.64,0,0,0,1.27-.19c.91-.31,1.22-1,1.55-1.84l-4.85-9.52h1.45l4,8.18,3.45-8.18h1.3Z" style="fill:#e8e8e8"/><path d="M80.18,101.87a7.3,7.3,0,0,0-.93-.08,3.86,3.86,0,0,0-2.81,1,3.17,3.17,0,0,0-.62,1.14,4.68,4.68,0,0,0-.13.88v5H74.48v-9h1.21v1.46a3.42,3.42,0,0,1,.69-.75,5.65,5.65,0,0,1,3.82-1Z" style="fill:#e8e8e8"/><path d="M90.07,109.23a6.49,6.49,0,0,1-3.36.91,6,6,0,0,1-3.29-1,4.75,4.75,0,0,1-2.14-4,4.41,4.41,0,0,1,1.45-3.32,5.62,5.62,0,0,1,3.71-1.28,5.71,5.71,0,0,1,4,1.59,4.57,4.57,0,0,1,1,1.4,5.28,5.28,0,0,1,.41,1.94H82.54c.17,2.34,2.1,3.56,4.3,3.56a4.58,4.58,0,0,0,3.72-1.77c.11-.15.19-.26.37-.55l.94.68a6.54,6.54,0,0,1-1.8,1.79m-1.19-6.94a4.42,4.42,0,0,0-2.54-.68,3.66,3.66,0,0,0-2.66,1,3.94,3.94,0,0,0-.81,1,3.14,3.14,0,0,0-.29.9h7.84a3.32,3.32,0,0,0-1.54-2.21" style="fill:#e8e8e8"/><path d="M102.15,109.3a6.3,6.3,0,0,1-3.54.82c-2.67,0-4.21-.6-5-1.59a1.76,1.76,0,0,1-.33-.49,2,2,0,0,1-.15-.37l1.32-.29a1.68,1.68,0,0,0,.2.37,2.79,2.79,0,0,0,1.1.84,7.91,7.91,0,0,0,2.75.44,6.18,6.18,0,0,0,2.93-.66,1.49,1.49,0,0,0,.67-1.15,1,1,0,0,0-.26-.66c-.38-.46-1.06-.55-2.22-.62-2.25-.16-3.67-.09-4.62-.44a2.13,2.13,0,0,1-1.46-2A2.46,2.46,0,0,1,95,101.21a7,7,0,0,1,3.24-.58,9.25,9.25,0,0,1,3.16.47,3.19,3.19,0,0,1,1,.55,2.77,2.77,0,0,1,.84,1.09l-1.33.28a1.84,1.84,0,0,0-.38-.53,6,6,0,0,0-3.33-.8,4.43,4.43,0,0,0-2.92.78,1.27,1.27,0,0,0-.38.88,1.1,1.1,0,0,0,.84,1,10,10,0,0,0,1.77.18c2.26.13,3.72.13,4.66.6a2.26,2.26,0,0,1,1.27,2,2.44,2.44,0,0,1-1.2,2.1" style="fill:#e8e8e8"/><path d="M105.34,97.52h1.2v1.75h-1.2Zm0,3.36h1.2v9h-1.2Z" style="fill:#e8e8e8"/><path d="M118.23,109.9v-1.37a4.62,4.62,0,0,1-.64.61,5.78,5.78,0,0,1-3.47,1,5.69,5.69,0,0,1-4.71-2.21,4.61,4.61,0,0,1-.77-2.61c0-3.09,2.74-4.73,5.55-4.73a6,6,0,0,1,3.17.84,2.39,2.39,0,0,1,.87.87V97h1.21V109.9Zm-.56-6.76a2.05,2.05,0,0,0-.44-.47,4.82,4.82,0,0,0-3.24-1,6.06,6.06,0,0,0-1.55.31,3.52,3.52,0,0,0-2.44,3.45,3.69,3.69,0,0,0,.4,1.68c1,2,3.34,2.05,3.89,2.05a4.13,4.13,0,0,0,3.34-1.43,4.35,4.35,0,0,0,.6-2.39,3.93,3.93,0,0,0-.56-2.16" style="fill:#e8e8e8"/><path d="M130.42,109.23a6.49,6.49,0,0,1-3.36.91,6,6,0,0,1-3.29-1,4.74,4.74,0,0,1-2.13-4,4.4,4.4,0,0,1,1.44-3.32,5.62,5.62,0,0,1,3.71-1.28,5.7,5.7,0,0,1,4,1.59,4.57,4.57,0,0,1,1,1.4,5.46,5.46,0,0,1,.42,1.94H122.9c.16,2.34,2.1,3.56,4.29,3.56a4.59,4.59,0,0,0,3.73-1.77c.11-.15.18-.26.36-.55l.95.68a6.62,6.62,0,0,1-1.81,1.79m-1.19-6.94a4.41,4.41,0,0,0-2.53-.68,3.68,3.68,0,0,0-2.67,1,3.63,3.63,0,0,0-.8,1,2.85,2.85,0,0,0-.29.9h7.83a3.29,3.29,0,0,0-1.54-2.21" style="fill:#e8e8e8"/><path d="M143.42,109.9v-5.24a2.5,2.5,0,0,0-.73-2,4.47,4.47,0,0,0-3.15-.92,5.19,5.19,0,0,0-2.77.66,2.94,2.94,0,0,0-1,.92,2.43,2.43,0,0,0-.33,1.31v5.24h-1.21v-9h1.21l0,1.26a4.36,4.36,0,0,1,.75-.66,6.47,6.47,0,0,1,3.47-.85,8,8,0,0,1,1.83.2,3.85,3.85,0,0,1,2.72,1.93,4.88,4.88,0,0,1,.36,2.16v5Z" style="fill:#e8e8e8"/><path d="M156.38,108.63a6.44,6.44,0,0,1-4.32,1.47,6.82,6.82,0,0,1-2-.27,4.58,4.58,0,0,1-3.4-4.49,4.43,4.43,0,0,1,1.19-3.11,6.23,6.23,0,0,1,4.44-1.72,6.14,6.14,0,0,1,4.62,2,5.64,5.64,0,0,1,.67.93l-1.2.49a5,5,0,0,0-1.05-1.27,3.35,3.35,0,0,0-.56-.42,4.84,4.84,0,0,0-2.52-.64,5.5,5.5,0,0,0-.95.09,3.72,3.72,0,0,0-2.76,1.75,3.61,3.61,0,0,0-.53,1.92,3.67,3.67,0,0,0,.46,1.79,4.26,4.26,0,0,0,3.74,1.93,5.06,5.06,0,0,0,3.4-1.24,4.83,4.83,0,0,0,.95-1.42l1.2.45a8.27,8.27,0,0,1-1.36,1.8" style="fill:#e8e8e8"/><path d="M167.74,109.23a6.49,6.49,0,0,1-3.36.91,6,6,0,0,1-3.29-1,4.75,4.75,0,0,1-2.14-4,4.41,4.41,0,0,1,1.45-3.32,5.62,5.62,0,0,1,3.71-1.28,5.71,5.71,0,0,1,4,1.59,4.57,4.57,0,0,1,1,1.4,5.46,5.46,0,0,1,.42,1.94h-9.33c.16,2.34,2.1,3.56,4.29,3.56a4.57,4.57,0,0,0,3.72-1.77c.11-.15.19-.26.37-.55l1,.68a6.78,6.78,0,0,1-1.81,1.79m-1.18-6.94a4.49,4.49,0,0,0-2.55-.68,3.69,3.69,0,0,0-3.46,2,3.08,3.08,0,0,0-.3.9h7.84a3.31,3.31,0,0,0-1.53-2.21" style="fill:#e8e8e8"/><path d="M179.82,109.3a6.28,6.28,0,0,1-3.54.82c-2.67,0-4.2-.6-5-1.59a2.14,2.14,0,0,1-.47-.86l1.31-.29a2.24,2.24,0,0,0,.2.37,2.79,2.79,0,0,0,1.1.84,7.91,7.91,0,0,0,2.75.44,6.18,6.18,0,0,0,2.93-.66,1.49,1.49,0,0,0,.68-1.15,1.05,1.05,0,0,0-.26-.66c-.38-.46-1.06-.55-2.23-.62-2.25-.16-3.67-.09-4.62-.44a2.13,2.13,0,0,1-1.46-2,2.46,2.46,0,0,1,1.39-2.24,7,7,0,0,1,3.23-.58,9.25,9.25,0,0,1,3.16.47,3.24,3.24,0,0,1,1,.55,3,3,0,0,1,.84,1.09l-1.34.28a1.84,1.84,0,0,0-.38-.53,6,6,0,0,0-3.33-.8,4.45,4.45,0,0,0-2.92.78,1.32,1.32,0,0,0-.38.88,1.12,1.12,0,0,0,.84,1,10,10,0,0,0,1.77.18c2.27.13,3.73.13,4.66.6a2.26,2.26,0,0,1,1.28,2,2.45,2.45,0,0,1-1.21,2.1" style="fill:#e8e8e8"/><rect x="175.18" y="29.74" width="5.92" height="60.04" style="fill:#fffdfd"/><path d="M147.23,34.64q-12.6-6.88-29.8-6.89t-29.8,6.89q-15.7,8.58-15.7,24.27l7.48,2.83a19.49,19.49,0,0,1-.12-2.89c0-9,4.95-15.89,13.33-20.61q10.2-5.77,24.81-5.77t24.76,5.77q12.42,7.15,12.43,20.56T142.06,79.22c-6.88,3.93-15.09,5.75-24.63,5.9C106.28,85.28,93,80.44,93,80.44l-60.34-22L75.37,27.81H66.13L7.76,70V0H0V88.84H7.76V76.49l20-14.58L93.89,86.54s28.45,10.37,53.28-3.35c10.36-5.72,15.58-13.76,15.58-24.28s-5.17-18.59-15.52-24.27" style="fill:#fffdfd"/><path d="M166.44,28.86a4.93,4.93,0,1,1-4.92-4.93,4.92,4.92,0,0,1,4.92,4.93" style="fill:#ddd"/></g></g></svg>