<svg xmlns="http://www.w3.org/2000/svg" viewBox="0 0 258 95.62"><title>Asset 5</title><g id="Layer_2" data-name="Layer 2"><g id="logos"><path d="M15.7,30.88c0,4.65,2.2,6,4.6,6.48H0c2.67-.52,3.87-2.19,3.87-6.48v-20c0-4.29-1.2-6-3.87-6.48H15.7Z" style="fill:#fffdfd"/><path d="M18.64,21.77h0A4.87,4.87,0,0,0,19.85,21c2.14-1.63,2.61-4.5,2.61-8,0-5.23-1.41-8.16-3.92-8.68h0a42.64,42.64,0,0,1,7.33.52c6.48,1,9,3.92,9,8.53A8.53,8.53,0,0,1,30,21v.15A68,68,0,0,0,36.44,31.4c1.93,2.93,4.39,5.86,6.33,6.17h0c-1.83.06-8.32,0-11.2,0-3.45-.1-5.39-.84-8.06-4.55C21.36,29.88,19.85,25.28,18.64,21.77Z" style="fill:#fffdfd"/><path d="M53.77,12.25c-.89.83-1.78,3.08-1.78,9.47,0,6.75,3.14,8.79,7.33,8.79,2.87,0,5-.68,6.17-2.36h0a11.45,11.45,0,0,1-11.67,9.63c-8.32,0-12.14-6-12.14-12,0-7.49,4.66-12.46,12.09-13.5Z" style="fill:#fffdfd"/><path d="M54.15,20.88h0L57,19.83c-.06-3.35-.47-7-1.42-7.64h0c7.44.32,10,4.19,10,8.69Z" style="fill:#fffdfd"/><path d="M82.56,37.68a7.7,7.7,0,0,1-1.83-.26v6.7c0,2.35,1.1,3.61,3.19,4H68.17c1.41-.36,2.3-1.15,2.3-3.82V19.57c0-1.88-2.25-4-2.25-4h0l12.51-3.4V31a8.71,8.71,0,0,0,.89,4.08,4.61,4.61,0,0,0,2.72,2.62h0A10.77,10.77,0,0,1,82.56,37.68Z" style="fill:#fffdfd"/><path d="M88.8,26.43c0-7.64-3.22-10.91-6.33-10.47h0a10.5,10.5,0,0,1,7.75-3.77c6.8,0,9.52,4.66,9.52,11.36,0,6.49-3.24,12.72-13.4,14C86.34,37.57,88.8,34.87,88.8,26.43Z" style="fill:#fffdfd"/><path d="M104.71,17.64c0-2.15-.63-3.41-2.83-3.82h0L115,12.34V29.2c0,2.3.78,3.35,2.67,3.35a3.52,3.52,0,0,0,1.51-.31h0a7.25,7.25,0,0,1-7.48,5.54c-4.19,0-7-2.14-7-7.17Z" style="fill:#fffdfd"/><polygon points="116.09 10.72 118.89 0 125.43 4.13 116.09 10.72" style="fill:#fffdfd"/><path d="M131.15,31c0,4,2.72,5.08,2.72,5.08l-13,1.36V17.64c0-2.15-.26-3.41-2.4-3.82h0l12.66-1.48Z" style="fill:#fffdfd"/><path d="M223.71,38.34A4.24,4.24,0,0,1,228,42.52a4.24,4.24,0,1,1-8.48,0A4.24,4.24,0,0,1,223.71,38.34Z" style="fill:#fffdfd"/><path d="M236.37,42a3.43,3.43,0,1,1-3.45,3.4A3.4,3.4,0,0,1,236.37,42Z" style="fill:#fffdfd"/><path d="M136.05,29.44l12.71-3.39c0,2.14-.15,5.33-.15,7.42V55.92a14.61,14.61,0,0,0,.52,4.18c.91,2.83,2.2,3.25,2.2,3.25-6.44-.26-8.06-3-8.74-3.56h-.11l-4.76,2.46a26.43,26.43,0,0,0,.58-6.54V33.47A4.79,4.79,0,0,0,136.05,29.44Z" style="fill:#fffdfd"/><path d="M156.68,52.83c0-12.3-6.18-11.62-6.18-11.62a9.49,9.49,0,0,1,7.28-3.45c6.49,0,9.89,3.51,9.89,11.46,0,6.59-3.93,13.19-14.44,14.13C153.23,63.35,156.68,61.1,156.68,52.83Z" style="fill:#fffdfd"/><path d="M172.43,33.15a5.14,5.14,0,0,0-2-4l12.45-3.28c-.05,2.14-.15,5.32-.15,7.41v25.8A4.54,4.54,0,0,0,185,62.93H170.18a4.44,4.44,0,0,0,2.25-3.82Z" style="fill:#fffdfd"/><path d="M189.85,44.93a4.81,4.81,0,0,0-2.09-4l12.51-3.36c-.05,2.15-.16,5.35-.16,7.44V59.11a4.54,4.54,0,0,0,2.36,3.82H187.55a4.44,4.44,0,0,0,2.3-3.82Z" style="fill:#fffdfd"/><path d="M194.93,26.72c3,0,5.44,2,5.44,5s-2.46,4.92-5.44,4.92-5.28-1.94-5.28-4.92A5,5,0,0,1,194.93,26.72Z" style="fill:#fffdfd"/><path d="M219.79,37.86c-1.26.37-4.5,2.52-4.5,9.16,0,7.07,3.55,9.06,6.64,9.06a7.51,7.51,0,0,0,5.92-2.52l.05-.05c-.53,3.35-1.77,9.84-11.31,9.84-7.85,0-11.56-5.86-11.56-11.93,0-7.64,6.91-13,14.76-13.56Z" style="fill:#fffdfd"/><path d="M243.59,58.9a6.94,6.94,0,0,1-6.43,4.45c-4.19,0-6.39-2.72-6.39-6.39a5.52,5.52,0,0,1,2.93-5.18c1.1-.41,7.54-1.72,9.48-2.09A4.42,4.42,0,0,0,241.76,51a6.81,6.81,0,0,0-.83,3.4c0,3.82.52,4.66,1.62,4.66A9,9,0,0,0,243.59,58.9Z" style="fill:#fffdfd"/><path d="M236.49,40.9A18,18,0,0,1,246,37.76c6.9,0,9.21,3.3,9.21,8V57.23c0,1.36.62,2,1.72,2A1.91,1.91,0,0,0,258,59a7.24,7.24,0,0,1-6.75,4.4c-4.14,0-6.28-2.3-6.28-7V46.45c0-4.4-3.66-5.55-8.48-5.55Z" style="fill:#fffdfd"/><rect x="127.45" y="35.32" width="5.11" height="27.08" transform="translate(178.86 -81.15) rotate(90)" style="fill:#fffdfd"/><path d="M72,87.82h1.94a2.63,2.63,0,0,1,1.76.55,1.86,1.86,0,0,1,.67,1.52,2,2,0,0,1-.66,1.56A2.52,2.52,0,0,1,74,92H72.87v3.43H72Zm.89,3.44h1c1,0,1.57-.44,1.57-1.31A1.24,1.24,0,0,0,75,89a1.62,1.62,0,0,0-1.1-.38h-1Z" style="fill:#fffdfd"/><path d="M84.57,93.06A2.91,2.91,0,0,1,84,95a2.11,2.11,0,0,1-1.64.61c-1.48,0-2.22-.85-2.22-2.53V87.82h.89V93c0,1.23.44,1.84,1.33,1.84a1.14,1.14,0,0,0,1-.44A2.45,2.45,0,0,0,83.68,93V87.82h.89Z" style="fill:#fffdfd"/><path d="M93.12,95.47h-1l-2.75-6v6H88.5V87.82h1l2.76,6v-6h.87Z" style="fill:#fffdfd"/><path d="M102.07,88.54H99.71v6.93h-.88V88.54H96.46v-.72h5.61Z" style="fill:#fffdfd"/><path d="M107.69,87.67a2.2,2.2,0,0,1,2,1,5.35,5.35,0,0,1,.68,3,5.46,5.46,0,0,1-.67,2.95,2.22,2.22,0,0,1-2,1,2.2,2.2,0,0,1-2-1,6.81,6.81,0,0,1,0-5.91A2.2,2.2,0,0,1,107.69,87.67Zm0,7.17c1.13,0,1.69-1.07,1.69-3.19s-.56-3.2-1.69-3.2a1.35,1.35,0,0,0-1.25.83,5.18,5.18,0,0,0-.44,2.37,5.27,5.27,0,0,0,.43,2.37A1.38,1.38,0,0,0,107.69,94.84Z" style="fill:#fffdfd"/><path d="M122.4,87.82h1.5a3,3,0,0,1,2.41,1,4.79,4.79,0,0,1,0,5.63,3,3,0,0,1-2.36,1H122.4Zm.89,6.88h.62a2.08,2.08,0,0,0,1.73-.81,4.3,4.3,0,0,0,0-4.48,2.07,2.07,0,0,0-1.73-.82h-.62Z" style="fill:#fffdfd"/><path d="M135.09,95.47h-4V87.82h4v.77H132V91h2.95v.78H132v3h3.1Z" style="fill:#fffdfd"/><path d="M152.13,93.06a2.91,2.91,0,0,1-.54,2,2.11,2.11,0,0,1-1.64.61c-1.48,0-2.22-.85-2.22-2.53V87.82h.89V93c0,1.23.44,1.84,1.33,1.84a1.12,1.12,0,0,0,1-.44,2.45,2.45,0,0,0,.31-1.41V87.82h.89Z" style="fill:#fffdfd"/><path d="M160.69,95.47h-1l-2.75-6v6h-.89V87.82h1l2.75,6v-6h.88Z" style="fill:#fffdfd"/><path d="M168.52,95.47h-3.47V94.7h1.31V88.59h-1.31v-.77h3.47v.77h-1.27V94.7h1.27Z" style="fill:#fffdfd"/><path d="M175.25,87.67a2.22,2.22,0,0,1,2,1,6.85,6.85,0,0,1,0,5.91,2.22,2.22,0,0,1-2,1,2.2,2.2,0,0,1-1.95-1,6.76,6.76,0,0,1,0-5.91A2.18,2.18,0,0,1,175.25,87.67Zm0,7.17c1.13,0,1.7-1.07,1.7-3.19s-.57-3.2-1.7-3.2a1.36,1.36,0,0,0-1.25.83,5.19,5.19,0,0,0-.43,2.37A5.14,5.14,0,0,0,174,94,1.35,1.35,0,0,0,175.25,94.84Zm1.42-9.32L175,87.15h-.61l1.07-1.63Z" style="fill:#fffdfd"/><path d="M186,95.47h-1l-2.74-6v6h-.89V87.82h1l2.76,6v-6H186Z" style="fill:#fffdfd"/></g></g></svg>