<svg xmlns="http://www.w3.org/2000/svg" viewBox="0 0 233.01 151.63"><title>Asset 4</title><g id="Layer_2" data-name="Layer 2"><g id="logos"><path d="M114.26,36.67A18.34,18.34,0,1,1,132.6,18.34h-4.2a14.14,14.14,0,1,0-14.14,14.13Z" style="fill:#fffdfd"/><path d="M114.26,65.05A18.36,18.36,0,0,1,95.93,46.71h4.19a14.14,14.14,0,1,0,14.14-14.14v-4.2a18.34,18.34,0,0,1,0,36.68" style="fill:#fffdfd"/><path d="M100.08,50.86a18.34,18.34,0,1,1,0-36.68l.67,0a14.63,14.63,0,0,0-.63,4.18,14.14,14.14,0,1,0,14.1,14.14h4.2a18.36,18.36,0,0,1-18.34,18.34" style="fill:#fffdfd"/><path d="M127.77,50.85a14.55,14.55,0,0,0,.63-4.19,14.14,14.14,0,1,0-14.09-14.14h-4.2a18.34,18.34,0,1,1,18.34,18.34Z" style="fill:#fffdfd"/><path d="M112.75,34.48l1.24-2a14.16,14.16,0,0,1-12.47-8H97a18.42,18.42,0,0,0,15,12.06Z" style="fill:#fffdfd"/><path d="M13.26,98.64c7,1.52,10.17,4.06,10.17,8.88,0,5.4-4.46,8.89-10.67,8.89a18.27,18.27,0,0,1-12.76-5l2.19-2.59c3.26,3,6.38,4.42,10.71,4.42s7-2.19,7-5.36c0-2.95-1.56-4.6-8.12-6C4.55,100.34,1.25,98,1.25,92.84c0-5,4.33-8.57,10.26-8.57a16.34,16.34,0,0,1,11,3.83l-2,2.73a13.74,13.74,0,0,0-9-3.39c-4.07,0-6.66,2.23-6.66,5.08C4.77,95.52,6.38,97.17,13.26,98.64Z" style="fill:#fffdfd"/><path d="M58.83,116H55l-3.66-8.26h-17L30.66,116H27L41.28,84.49h3.31ZM42.89,88.6l-7.14,15.93H50Z" style="fill:#fffdfd"/><path d="M167.27,116h-3.79l-3.66-8.26h-17L139.1,116h-3.61l14.24-31.47H153ZM151.33,88.6l-7.13,15.93h14.24Z" style="fill:#fffdfd"/><path d="M194.05,116,185,103.82h-8.93V116h-3.53V84.71H186c6.87,0,11.29,3.71,11.29,9.33,0,5.22-3.57,8.26-8.48,9.15l9.6,12.77ZM185.7,88h-9.64v12.68h9.6c4.69,0,8-2.41,8-6.47C193.69,90.3,190.75,88,185.7,88Z" style="fill:#fffdfd"/><path d="M233,116h-3.79l-3.66-8.26h-17l-3.7,8.26h-3.62l14.24-31.47h3.3ZM217.07,88.6l-7.13,15.93h14.24Z" style="fill:#fffdfd"/><path d="M94.57,100.29c0-8.66-6.38-16.11-15.89-16.11h-.17c-9.41.09-15.81,7.58-15.81,16.19s6.39,16.11,15.9,16.11h.08c9.51,0,15.89-7.45,15.89-16.11v-.09Zm-28.2,0c0-7.11,5-12.81,12.14-12.85h.12c7.11,0,12.26,5.79,12.28,12.9s-5.17,12.87-12.27,12.9S66.37,107.42,66.37,100.29Z" style="fill:#fffdfd"/><path d="M79.45,115.27a22.22,22.22,0,0,0,15.36,6.09,24.5,24.5,0,0,0,2.59-.16A20.67,20.67,0,0,1,85,115.27Z" style="fill:#fffdfd"/><path d="M131.62,100.29c0-8.66-6.39-16.11-15.9-16.11h-.17c-9.41.09-15.8,7.58-15.8,16.19s6.38,16.11,15.89,16.11h.08c9.52,0,15.9-7.45,15.9-16.11v-.09Zm-28.21,0c0-7.11,5-12.81,12.14-12.85h.13c7.1,0,12.25,5.79,12.27,12.9s-5.17,12.87-12.26,12.9S103.41,107.42,103.41,100.29Z" style="fill:#fffdfd"/><path d="M116.49,115.27a22.23,22.23,0,0,0,15.37,6.09,24.48,24.48,0,0,0,2.58-.16A20.67,20.67,0,0,1,122,115.27Z" style="fill:#fffdfd"/><path d="M133.72,151.44,131,147.55h-2.45v3.89h-2V140.27h5c2.57,0,4.15,1.36,4.15,3.55a3.33,3.33,0,0,1-2.66,3.39l3,4.23Zm-2.35-9.38h-2.85v3.75h2.87c1.4,0,2.3-.73,2.3-1.88S132.82,142.06,131.37,142.06Z" style="fill:#fffdfd"/><path d="M146.68,142h-6.32v2.9H146v1.76h-5.61v3h6.41v1.75H138.4V140.27h8.28Z" style="fill:#fffdfd"/><path d="M153.72,145c2.36.58,3.58,1.42,3.58,3.29,0,2.11-1.64,3.35-4,3.35a6.86,6.86,0,0,1-4.66-1.79l1.18-1.4a5.11,5.11,0,0,0,3.53,1.45c1.21,0,2-.56,2-1.42s-.44-1.24-2.52-1.72c-2.38-.58-3.72-1.28-3.72-3.35s1.6-3.26,3.82-3.26a6.19,6.19,0,0,1,4.05,1.41L155.92,143a5.09,5.09,0,0,0-3-1.15c-1.14,0-1.81.59-1.81,1.34S151.58,144.45,153.72,145Z" style="fill:#fffdfd"/><path d="M162,140.27v11.17h-2V140.27Z" style="fill:#fffdfd"/><path d="M169.47,151.44h-4.16V140.27h4.16c3.51,0,5.94,2.41,5.94,5.57A5.6,5.6,0,0,1,169.47,151.44Zm0-9.38h-2.2v7.6h2.2a3.8,3.8,0,1,0,0-7.6Z" style="fill:#fffdfd"/><path d="M186.38,142h-6.32v2.9h5.6v1.76h-5.6v3h6.4v1.75H178.1V140.27h8.28Z" style="fill:#fffdfd"/><path d="M196.91,140.27h1.93v11.17h-1.65L191,143.5v7.94H189.1V140.27h1.82l6,7.72Z" style="fill:#fffdfd"/><path d="M207.2,151.63a5.78,5.78,0,0,1,.09-11.55,5.84,5.84,0,0,1,4.37,1.74l-1.26,1.45a4.45,4.45,0,0,0-3.13-1.39,4,4,0,0,0,0,8,4.4,4.4,0,0,0,3.21-1.45l1.26,1.28A5.78,5.78,0,0,1,207.2,151.63Z" style="fill:#fffdfd"/><path d="M222.39,142h-6.32v2.9h5.6v1.76h-5.6v3h6.4v1.75h-8.36V140.27h8.28Z" style="fill:#fffdfd"/><path d="M229.42,145c2.36.58,3.59,1.42,3.59,3.29,0,2.11-1.64,3.35-4,3.35a6.86,6.86,0,0,1-4.66-1.79l1.18-1.4a5.13,5.13,0,0,0,3.53,1.45c1.21,0,2-.56,2-1.42s-.45-1.24-2.52-1.72c-2.38-.58-3.72-1.28-3.72-3.35s1.59-3.26,3.81-3.26a6.22,6.22,0,0,1,4.06,1.41L231.62,143a5.06,5.06,0,0,0-3-1.15c-1.15,0-1.82.59-1.82,1.34S227.28,144.45,229.42,145Z" style="fill:#fffdfd"/></g></g></svg>