<?xml version="1.0" encoding="utf-8"?>
<!-- Generator: Adobe Illustrator 22.0.0, SVG Export Plug-In . SVG Version: 6.00 Build 0)  -->
<svg version="1.1" id="Layer_1" xmlns="http://www.w3.org/2000/svg" xmlns:xlink="http://www.w3.org/1999/xlink" x="0px"
     y="0px"
     viewBox="0 0 500 500" style="enable-background:new 0 0 500 500;" xml:space="preserve">
<style type="text/css">
	.st0{clip-path:url(#SVGID_2_);}
</style>
    <g>
	<g>
		<defs>
			<rect id="SVGID_1_" x="18" y="-5" width="463" height="511"/>
		</defs>
        <clipPath id="SVGID_2_">
			<use xlink:href="#SVGID_1_" style="overflow:visible;"/>
		</clipPath>
        <path fill="#8A8888" class="st0" d="M470.3,262c-23.5-23.4-50.6-1.5-50.6-1.5V137.4c0-4.1-3.3-7.5-7.5-7.5c-4.1,0-7.5,3.4-7.5,7.5V271
			c0,0-35.7,28.1-51,35V84.4c0-10.3,8.4-18.7,18.7-18.7H386c10.3,0,18.7,8.4,18.7,18.7v22.3c0,4.1,3.4,7.5,7.5,7.5
			c4.1,0,7.5-3.3,7.5-7.5V84.4c0-18.6-15.1-33.6-33.6-33.6h-13.7c-18.6,0-33.7,15.1-33.7,33.6v227.5c-4.5,1.2-9,2.1-13.7,2.5V156.7
			c0-18.6-15.2-33.8-33.8-33.8h-13.3c-18.6,0-33.8,15.2-33.8,33.8v76.3l-13.7,7.3v-25.4c0-16.8-13.7-30.4-30.4-30.4h-20.1
			c-16.8,0-30.4,13.7-30.4,30.4v68.4l-24.4,13l-68.6,19.6c-11.9,3.4-21.9,11.2-28.1,22c-6.2,10.8-7.8,23.3-4.7,35.4l7.7,29.5
			c1,4,5.1,6.4,9.1,5.4c4-1,6.4-5.1,5.4-9.1L38,369.4c-4.5-17.1,5.4-34.4,22.4-39.2l62.8-17.9l47.2,125.9
			c3.2,8.4,2.7,32.5-22.3,41.3l-47.4,10.8c-16.5,3.8-32.8-6.2-37.1-22.6l-9.6-37c-1-4-5.1-6.4-9.1-5.4c-4,1-6.4,5.1-5.4,9.1l9.6,37
			c5.4,20.8,23.9,34.6,44.5,34.6c15.1,0,57.8-11.9,57.8-11.9c13-2.9,24.1-11.4,30.4-23.1c5.2-9.7,6.8-20.8,4.5-31.4l164.1-40.2
			c13.6-3.3,26.4-9.8,37.2-18.6l79.8-65.6C491.7,293.6,477.4,269.1,470.3,262L470.3,262z M277.8,137.8h13.3
			c10.4,0,18.8,8.5,18.8,18.8v158.2l-47.2,0c-4.3,0-1.3-2.9-1.1-3.1l13.6-11c12.7-10.3,21-24.6,24.6-42.5c2.3-11.4-2-22.7-11.3-29.7
			c-8.7-6.5-19.8-7.7-29.6-3.4v-68.4C259,146.3,267.4,137.8,277.8,137.8L277.8,137.8z M164.3,214.8c0-8.5,6.9-15.5,15.5-15.5h20.1
			c8.5,0,15.5,6.9,15.5,15.5v33.3l-51,27.1L164.3,214.8L164.3,214.8z M457.9,303.6L378,369.2c-9.1,7.5-19.9,12.9-31.3,15.7
			l-165.3,40.5L137,306.7l126.9-67.4c5.2-2.7,11-2.3,15.7,1.2c4.7,3.5,6.8,9,5.6,14.7c-2.9,14.4-9.5,25.8-19.4,33.8l-13.6,11
			c-5.6,4.5-7.6,11.8-5.2,18.6c2.4,6.8,8.6,11.1,15.8,11.1l54.5,0h0c19.4,0,38.1-5.9,54-17.1l61-42.9c8.5-6,20-4.9,27.3,2.5
			C463.8,276.7,472,289.5,457.9,303.6L457.9,303.6z M457.9,303.6"/>
        <path fill="#8A8888" class="st0" d="M141.6,442.9c0-16.3-13.2-29.5-29.5-29.5c-16.3,0-29.5,13.2-29.5,29.5c0,16.3,13.2,29.5,29.5,29.5
			C128.4,472.4,141.6,459.2,141.6,442.9L141.6,442.9z M97.6,442.9c0-8,6.5-14.5,14.5-14.5c8,0,14.5,6.5,14.5,14.5
			c0,8-6.5,14.5-14.5,14.5S97.6,450.9,97.6,442.9L97.6,442.9z M97.6,442.9"/>
        <path fill="#8A8888" class="st0" d="M58.3,230l108.8-109.7l24.5,12.7c8.8,4.5,19.4,3,26.6-3.9l59.2-57c0,0-1.6,29.3,23,29.3c12.7,0,23-10.3,23-23
			V18c0-0.1,0-0.1,0-0.2C323.3,2.1,311.8-5,300.4-5h-59.9c-12.7,0-23,10.3-23,23c0,25.3,25.8,23,25.8,23l-45.2,43.5l-24.8-12.8
			c-9-4.6-19.8-2.9-26.9,4.2L25.6,197.6c-8.9,9-8.9,23.6,0.1,32.6C30.1,234.5,44.9,243.4,58.3,230L58.3,230z M36.2,208.1"/>
	</g>
</g>
</svg>
