<svg width="94" height="34" viewBox="0 0 94 34" fill="none" xmlns="http://www.w3.org/2000/svg">
<path d="M5.71525 10.872C5.71525 12.517 6.5207 12.9656 7.38806 13.16H0C0.975778 12.9806 1.40947 12.3824 1.40947 10.872V3.84335C1.40947 2.33294 0.975778 1.74971 0 1.5553H5.71525V10.872Z" fill="#F8F9FB"/>
<path d="M6.79949 7.65677C6.96986 7.582 7.1093 7.50722 7.23321 7.40254C8.00764 6.83426 8.19345 5.81735 8.19345 4.60603C8.19345 2.76662 7.68238 1.73475 6.76855 1.5553C7.74433 1.5553 8.73555 1.61512 9.43254 1.73475C11.8023 2.10862 12.7161 3.11058 12.7161 4.74063C12.7161 5.92204 11.9882 6.89408 10.9505 7.40254V7.46236C11.7094 8.95781 12.5922 10.1093 13.2892 11.0515C14.0016 12.0833 14.8845 13.1152 15.597 13.2199C14.931 13.2348 12.5612 13.2199 11.5235 13.2049C10.2689 13.175 9.55644 12.9058 8.58067 11.6048C7.79075 10.5131 7.23317 8.898 6.79949 7.65677Z" fill="#F8F9FB"/>
<path d="M19.5929 4.30701C19.2677 4.6061 18.9424 5.3987 18.9424 7.6419C18.9424 10.0197 20.0886 10.7375 21.6065 10.7375C22.6597 10.7375 23.4186 10.4982 23.8523 9.91501C23.6664 11.0516 22.5823 13.2948 19.6085 13.2948C16.5727 13.2948 15.1787 11.2011 15.1787 9.06259C15.1787 6.43057 16.8825 4.68087 19.5929 4.30701Z" fill="#F8F9FB"/>
<path d="M19.7324 7.3577L20.7857 6.98383C20.7702 5.80241 20.6153 4.51631 20.2745 4.29199C22.985 4.39667 23.8988 5.75755 23.8988 7.34274H19.7324V7.3577Z" fill="#F8F9FB"/>
<path d="M30.0787 13.2647C29.8928 13.2647 29.5985 13.2348 29.4126 13.175V15.5378C29.4126 16.3603 29.8153 16.809 30.5743 16.9436H24.8435C25.3546 16.809 25.6799 16.5398 25.6799 15.5976V6.90904C25.6799 6.25104 24.859 5.48836 24.859 5.48836L29.4126 4.29199V10.9169C29.4126 11.3805 29.4901 11.9039 29.7379 12.3525C29.9547 12.7563 30.2955 13.175 30.7291 13.2797C30.5123 13.2946 30.311 13.2797 30.0787 13.2647Z" fill="#F8F9FB"/>
<path d="M32.3556 9.30178C32.3556 6.60995 31.1785 5.4734 30.0479 5.62295C30.3266 5.17431 31.5348 4.29199 32.8668 4.29199C35.345 4.29199 36.3362 5.93699 36.3362 8.28486C36.3362 10.5729 35.1591 12.7563 31.4573 13.2199C31.4573 13.2199 32.3556 12.2777 32.3556 9.30178Z" fill="#F8F9FB"/>
<path d="M38.1482 6.20623C38.1482 5.4585 37.9159 5.00987 37.126 4.86032L41.8964 4.33691V10.2739C41.8964 11.0814 42.1752 11.4553 42.8722 11.4553C43.0425 11.4553 43.2904 11.4254 43.4298 11.3506C43.1045 12.3675 42.3456 13.2947 40.7038 13.2947C39.1859 13.2947 38.1637 12.5469 38.1637 10.7674V6.20623H38.1482Z" fill="#F8F9FB"/>
<path d="M42.2837 3.78342L43.3059 0L45.6912 1.46551L42.2837 3.78342Z" fill="#F8F9FB"/>
<path d="M47.7667 10.9019C47.7667 12.2927 48.7579 12.6815 48.7579 12.6815L44.0339 13.1601V6.20622C44.0339 5.4585 43.941 5.00987 43.1511 4.86032L47.7667 4.33691V10.9019Z" fill="#F8F9FB"/>
<path d="M81.4851 13.489C82.3215 13.489 83.034 14.147 83.034 14.9545C83.034 15.7621 82.3215 16.45 81.4851 16.45C80.6488 16.45 79.9363 15.7621 79.9363 14.9545C79.9363 14.147 80.6488 13.489 81.4851 13.489Z" fill="#F8F9FB"/>
<path d="M86.1008 14.7751C86.7823 14.7751 87.3398 15.3136 87.3398 15.9717C87.3398 16.6597 86.7823 17.1831 86.1008 17.1831C85.3883 17.1831 84.8462 16.6447 84.8462 15.9717C84.8462 15.3136 85.3883 14.7751 86.1008 14.7751Z" fill="#F8F9FB"/>
<path d="M49.5632 10.3634L54.1943 9.16699C54.1788 9.91473 54.1324 11.0363 54.1324 11.7841V19.6802C54.1324 20.069 54.1634 20.6821 54.3183 21.1457C54.6435 22.1327 55.1236 22.2823 55.1236 22.2823C52.7848 22.1926 52.1808 21.2354 51.933 21.0261H51.902L50.1673 21.8935C50.3376 21.4299 50.3841 20.3531 50.3841 19.5904V11.7691C50.3686 10.7971 49.5632 10.3634 49.5632 10.3634Z" fill="#F8F9FB"/>
<path d="M57.0752 18.5887C57.0752 14.2667 54.8293 14.506 54.8293 14.506C55.1701 14.0574 56.1304 13.2947 57.4779 13.2947C59.8477 13.2947 61.0867 14.521 61.0867 17.3325C61.0867 19.6505 59.6618 21.9686 55.8206 22.2976C55.8206 22.2826 57.0752 21.49 57.0752 18.5887Z" fill="#F8F9FB"/>
<path d="M62.8058 11.6647C62.8058 10.7674 62.0624 10.2589 62.0624 10.2589L66.6005 9.10742C66.585 9.85516 66.5386 10.9768 66.5386 11.7095V20.787C66.5386 21.7142 67.3905 22.133 67.3905 22.133H61.9695C61.9695 22.133 62.7903 21.7292 62.7903 20.787V11.6647H62.8058Z" fill="#F8F9FB"/>
<path d="M69.1563 15.8071C69.1563 14.85 68.3974 14.4014 68.3974 14.4014L72.951 13.22C72.9355 13.9677 72.8891 15.1043 72.8891 15.837V20.7871C72.8891 21.7143 73.7409 22.133 73.7409 22.133H68.3044C68.3044 22.133 69.1408 21.7292 69.1408 20.7871V15.8071H69.1563Z" fill="#F8F9FB"/>
<path d="M70.9994 9.40698C72.0836 9.40698 72.982 10.1098 72.982 11.1566C72.982 12.2034 72.0836 12.8913 70.9994 12.8913C69.9152 12.8913 69.0789 12.2034 69.0789 11.1566C69.0789 10.1098 69.9152 9.40698 70.9994 9.40698Z" fill="#F8F9FB"/>
<path d="M80.0602 13.3247C79.5955 13.4593 78.4184 14.207 78.4184 16.5399C78.4184 19.0224 79.7194 19.7252 80.8346 19.7252C81.8104 19.7252 82.6312 19.3215 82.9875 18.8429L83.003 18.828C82.8171 20.0094 82.3679 22.2825 78.883 22.2825C76.0176 22.2825 74.6702 20.2187 74.6702 18.0803C74.6857 15.4034 77.1948 13.5042 80.0602 13.3247Z" fill="#F8F9FB"/>
<path d="M88.7338 20.7272C88.6409 21.1459 87.82 22.2974 86.3951 22.2974C84.8772 22.2974 84.0718 21.3403 84.0718 20.0543C84.0718 19.0822 84.6604 18.3943 85.1405 18.2298C85.5432 18.0803 87.882 17.6167 88.5945 17.4971C88.5945 17.4971 88.2228 17.6915 88.0834 17.9457C87.8975 18.2448 87.7736 18.6934 87.7736 19.1421C87.7736 20.488 87.9594 20.787 88.3621 20.787C88.486 20.7571 88.7338 20.7272 88.7338 20.7272Z" fill="#F8F9FB"/>
<path d="M86.1472 14.3864C87.123 13.7733 88.3466 13.2798 89.6166 13.2798C92.1258 13.2798 92.9776 14.4463 92.9776 16.0913V20.1291C92.9776 20.6076 93.2099 20.8319 93.6126 20.8319C93.7985 20.8319 93.9379 20.7721 93.9999 20.7422C93.9999 20.7422 93.3958 22.2825 91.5372 22.2825C90.0348 22.2825 89.2449 21.475 89.2449 19.83V16.3306C89.2294 14.7902 87.8974 14.3864 86.1472 14.3864Z" fill="#F8F9FB"/>
<path d="M52.2856 18.0808V16.2856H42.4194V18.0808H52.2856Z" fill="#F8F9FB"/>
<path d="M26.2222 30.8964H26.9347C27.198 30.8964 27.4149 30.9562 27.5697 31.0908C27.7246 31.2254 27.8176 31.4048 27.8176 31.6292C27.8176 31.8535 27.7401 32.0479 27.5697 32.1825C27.4149 32.3171 27.198 32.3919 26.9347 32.3919H26.532V33.6032H26.2068V30.8964H26.2222ZM26.5475 32.1077H26.9038C27.291 32.1077 27.4768 31.9582 27.4768 31.6441C27.4768 31.4946 27.4303 31.3899 27.3219 31.3001C27.2135 31.2104 27.0896 31.1656 26.9192 31.1656H26.5475V32.1077Z" fill="#F8F9FB"/>
<path d="M30.8066 32.7357C30.8066 33.0497 30.7447 33.274 30.6053 33.4236C30.4814 33.5731 30.28 33.6329 30.0012 33.6329C29.4591 33.6329 29.1958 33.3339 29.1958 32.7357V30.8815H29.5211V32.7058C29.5211 33.1395 29.676 33.3488 30.0012 33.3488C30.1561 33.3488 30.28 33.304 30.3574 33.1993C30.4349 33.0946 30.4659 32.9301 30.4659 32.7058V30.8815H30.7911V32.7357H30.8066Z" fill="#F8F9FB"/>
<path d="M33.9199 33.5883H33.5637L32.557 31.4647V33.5883H32.2317V30.8964H32.5879L33.5946 33.0051V30.8964H33.9199V33.5883Z" fill="#F8F9FB"/>
<path d="M37.1882 31.1506H36.3208V33.5883H35.9956V31.1506H35.1282V30.8964H37.1727V31.1506H37.1882Z" fill="#F8F9FB"/>
<path d="M39.2325 30.8364C39.5422 30.8364 39.7901 30.9561 39.945 31.1953C40.1153 31.4346 40.1928 31.7786 40.1928 32.2422C40.1928 32.6908 40.1153 33.0348 39.945 33.2741C39.7746 33.5134 39.5422 33.633 39.2325 33.633C38.9227 33.633 38.6904 33.5134 38.52 33.2741C38.3497 33.0348 38.2722 32.6908 38.2722 32.2422C38.2722 31.7935 38.3497 31.4346 38.52 31.1953C38.6904 30.9561 38.9227 30.8364 39.2325 30.8364ZM39.2325 33.3638C39.6507 33.3638 39.852 32.9899 39.852 32.2422C39.852 31.4944 39.6507 31.1206 39.2325 31.1206C39.0311 31.1206 38.8762 31.2103 38.7678 31.4047C38.6594 31.5991 38.6129 31.8833 38.6129 32.2422C38.6129 32.6011 38.6594 32.8853 38.7678 33.0797C38.8762 33.2741 39.0311 33.3638 39.2325 33.3638Z" fill="#F8F9FB"/>
<path d="M44.5762 30.8964H45.1183C45.49 30.8964 45.7688 31.016 46.0011 31.2553C46.218 31.4946 46.3264 31.8236 46.3264 32.2424C46.3264 32.6761 46.218 33.0051 45.9856 33.2294C45.7688 33.4687 45.4745 33.5883 45.1338 33.5883H44.5762V30.8964ZM44.9014 33.3042H45.1338C45.3971 33.3042 45.6139 33.2145 45.7688 33.02C45.9237 32.8256 46.0011 32.5714 46.0011 32.2274C46.0011 31.8984 45.9237 31.6292 45.7688 31.4348C45.6139 31.2403 45.3971 31.1506 45.1338 31.1506H44.9014V33.3042Z" fill="#F8F9FB"/>
<path d="M49.2072 33.5883H47.7512V30.8964H49.1917V31.1656H48.0765V32.0031H49.1607V32.2723H48.0765V33.3191H49.2072V33.5883Z" fill="#F8F9FB"/>
<path d="M55.4182 32.7357C55.4182 33.0497 55.3562 33.274 55.2168 33.4236C55.0929 33.5731 54.8916 33.6329 54.6128 33.6329C54.0707 33.6329 53.8074 33.3339 53.8074 32.7357V30.8815H54.1326V32.7058C54.1326 33.1395 54.2875 33.3488 54.6128 33.3488C54.7677 33.3488 54.8916 33.304 54.969 33.1993C55.0465 33.0946 55.0775 32.9301 55.0775 32.7058V30.8815H55.4027V32.7357H55.4182Z" fill="#F8F9FB"/>
<path d="M58.5313 33.5883H58.1751L57.1683 31.4647V33.5883H56.843V30.8964H57.1992L58.206 33.0051V30.8964H58.5313V33.5883Z" fill="#F8F9FB"/>
<path d="M61.3811 33.5883H60.1111V33.3191H60.5912V31.1656H60.1111V30.8964H61.3811V31.1656H60.9165V33.3191H61.3811V33.5883Z" fill="#F8F9FB"/>
<path d="M63.8439 30.8366C64.1536 30.8366 64.4014 30.9562 64.5563 31.1954C64.7266 31.4347 64.8041 31.7786 64.8041 32.2422C64.8041 32.6908 64.7266 33.0348 64.5563 33.274C64.3859 33.5133 64.1536 33.6329 63.8439 33.6329C63.5341 33.6329 63.3017 33.5133 63.1314 33.274C62.961 33.0348 62.8835 32.6908 62.8835 32.2422C62.8835 31.7936 62.961 31.4347 63.1314 31.1954C63.3017 30.9562 63.5186 30.8366 63.8439 30.8366ZM63.8439 33.3637C64.262 33.3637 64.4634 32.9899 64.4634 32.2422C64.4634 31.4945 64.262 31.1207 63.8439 31.1207C63.6425 31.1207 63.4876 31.2104 63.3792 31.4048C63.2708 31.5992 63.2243 31.8833 63.2243 32.2422C63.2243 32.6011 63.2708 32.8852 63.3792 33.0796C63.4876 33.274 63.6425 33.3637 63.8439 33.3637ZM64.3549 30.0889L63.7354 30.6571H63.5186L63.9058 30.0889H64.3549Z" fill="#F8F9FB"/>
<path d="M67.7625 33.5883H67.4063L66.3995 31.4647V33.5883H66.0742V30.8964H66.4304L67.4372 33.0051V30.8964H67.7625V33.5883Z" fill="#F8F9FB"/>
</svg>
